<?xml version="1.0" encoding="utf-8"?>
<!-- Generator: Adobe Illustrator 19.0.1, SVG Export Plug-In . SVG Version: 6.00 Build 0)  -->
<svg version="1.1" id="Слой_1" xmlns="http://www.w3.org/2000/svg" xmlns:xlink="http://www.w3.org/1999/xlink" x="0px" y="0px"
	 viewBox="0 0 500 500" style="enable-background:new 0 0 500 500;" xml:space="preserve">
<path d="M480.7,231H67.5l101.2-101.4c7.7-7.7,7.7-20.2,0-27.9s-20.1-7.7-27.8,0L8.8,233.7c-0.9,0.7-1.8,1.4-2.7,2.2
	c-3.9,3.9-5.8,9-5.8,14.1c-0.1,5.1,1.9,10.2,5.8,14.1c0.8,0.8,1.7,1.6,2.7,2.2l132.1,132.1c3.8,3.8,8.9,5.8,13.9,5.8
	s10.1-1.9,13.9-5.8c7.7-7.7,7.7-20.1,0-27.8L68.1,270h412.6c10.9,0,19.7-8.6,19.7-19.5S491.6,231,480.7,231z"/>
</svg>
