<?xml version="1.0" encoding="utf-8"?>
<!-- Generator: Adobe Illustrator 19.0.1, SVG Export Plug-In . SVG Version: 6.00 Build 0)  -->
<svg version="1.1" id="Слой_1" xmlns="http://www.w3.org/2000/svg" xmlns:xlink="http://www.w3.org/1999/xlink" x="0px" y="0px"
	 viewBox="-229 31 500 500" style="enable-background:new -229 31 500 500;" xml:space="preserve">
<style type="text/css">
	.st0{fill:url(#SVGID_1_);}
</style>
<linearGradient id="SVGID_1_" gradientUnits="userSpaceOnUse" x1="-229" y1="283.0125" x2="271.0421" y2="283.0125" gradientTransform="matrix(1 0 0 -1 0 564)">
	<stop  offset="0.1961" style="stop-color:#00B187"/>
	<stop  offset="0.8706" style="stop-color:#FFFFFF"/>
</linearGradient>
<path class="st0" d="M266.9,270l-60.1-60.1c-5.5-5.5-14.4-5.5-19.9,0s-5.5,14.6,0,20.2l38.7,38.9h-440.5c-7.8,0-14.1,6.2-14.1,14
	s6.3,14,14.1,14h437.1l-35.3,35.2c-5.5,5.5-5.5,14.4,0,19.9c2.8,2.8,6.4,4.1,10,4.1s7.2-1.4,10-4.1l59.4-59.4l0,0l0.7-0.7
	c3-3,4.3-7,4-11C271.2,277.1,269.9,273,266.9,270z"/>
</svg>
