<?xml version="1.0" encoding="utf-8"?>
<!-- Generator: Adobe Illustrator 19.0.1, SVG Export Plug-In . SVG Version: 6.00 Build 0)  -->
<svg version="1.1" id="Слой_1" xmlns="http://www.w3.org/2000/svg" xmlns:xlink="http://www.w3.org/1999/xlink" x="0px" y="0px"
	 viewBox="0 0 500 500" style="enable-background:new 0 0 500 500;" xml:space="preserve">
<style type="text/css">
	.st0{fill:#00AFD1;}
</style>
<g>
	<path class="st0" d="M500,113.9c0-18.6-13.8-31.9-32.4-31.9H337V68.2c0-23.4-17.8-40.2-41.2-40.2H206c-23.4,0-43,16.8-43,40.2V82
		H35C16.4,82,0,95.3,0,113.9v109.4l15,4.6v201.1c0,23.4,19.8,43.9,43.2,43.9h386.2c23.4,0,42.6-20.6,42.6-43.9V227.9l13-4.6V113.9z
		 M187,68.2C187,58,195.8,52,206,52h89.9C306,52,313,58,313,68.2V82H187V68.2z M24,113.9c0-5.4,5.6-7.9,11-7.9h432.6
		c5.4,0,8.4,2.5,8.4,7.9v92l-176.9,57c-31.7,8.6-65.5,8.6-97.2,0L24,205.9V113.9z M463,429.1c0,10.2-8.4,19.9-18.6,19.9H58.2
		C48,449,39,439.3,39,429.1V235.6l156.4,50l0.7,0.1c18,4.9,36.6,7.4,55.1,7.4s37.1-2.5,55.2-7.4L463,235.6V429.1z"/>
	<path class="st0" d="M251.6,226.5c22,0,39.9-17.9,39.9-39.9s-17.9-39.9-39.9-39.9c-22,0-39.9,17.9-39.9,39.9
		S229.7,226.5,251.6,226.5z M251.6,170.7c8.8,0,15.9,7.1,15.9,15.9c0,8.8-7.2,15.9-15.9,15.9c-8.8,0-15.9-7.1-15.9-15.9
		C235.7,177.9,242.9,170.7,251.6,170.7z"/>
</g>
</svg>
