<?xml version="1.0" encoding="utf-8"?>
<!-- Generator: Adobe Illustrator 19.0.1, SVG Export Plug-In . SVG Version: 6.00 Build 0)  -->
<svg version="1.1" id="Слой_1" xmlns="http://www.w3.org/2000/svg" xmlns:xlink="http://www.w3.org/1999/xlink" x="0px" y="0px"
	 viewBox="-229 31 500 500" style="enable-background:new -229 31 500 500;" xml:space="preserve">
<g>
	<path d="M271,144.9c0-18.6-13.6-31.9-32.1-31.9H108V99.2C108,75.8,90.5,59,67.1,59h-89.9C-46.1,59-66,75.8-66,99.2V113h-127.7
		c-18.6,0-35.3,13.3-35.3,31.9v109.4l15,4.6V460c0,23.4,20.1,43.9,43.4,43.9h386.2c23.4,0,42.3-20.6,42.3-43.9V258.9l13-4.6V144.9
		H271z M-42,99.2C-42,89-32.9,83-22.7,83h89.9c10.2,0,16.9,6,16.9,16.2V113H-42V99.2z M-205,144.9c0-5.4,5.9-7.9,11.3-7.9h432.6
		c5.4,0,8.1,2.5,8.1,7.9v92l-176.8,57c-31.7,8.6-65.6,8.6-97.3,0l-177.9-57V144.9z M234,460.1c0,10.2-8.1,19.9-18.3,19.9h-386.3
		c-10.2,0-19.4-9.7-19.4-19.9V266.6l156.5,50l0.7,0.1c18,4.9,36.7,7.4,55.2,7.4s37-2.5,55-7.4L234,266.6V460.1z"/>
	<path d="M22.9,257.5c22,0,39.9-17.9,39.9-39.9s-17.9-39.9-39.9-39.9S-17,195.6-17,217.6S0.9,257.5,22.9,257.5z M22.9,201.7
		c8.8,0,15.9,7.1,15.9,15.9c0,8.8-7.2,15.9-15.9,15.9c-8.8,0-15.9-7.1-15.9-15.9C7,208.9,14.1,201.7,22.9,201.7z"/>
</g>
</svg>
