<?xml version="1.0" encoding="utf-8"?>
<!-- Generator: Adobe Illustrator 19.0.1, SVG Export Plug-In . SVG Version: 6.00 Build 0)  -->
<svg version="1.1" id="Слой_1" xmlns="http://www.w3.org/2000/svg" xmlns:xlink="http://www.w3.org/1999/xlink" x="0px" y="0px"
	 viewBox="0 0 500 500" style="enable-background:new 0 0 500 500;" xml:space="preserve">
<style type="text/css">
	.st0{fill:#00AFD1;}
</style>
<g>
	<path class="st0" d="M500,114.4c0-18.6-14-32.4-32.6-32.4H337V68.7c0-23.4-18-40.7-41.3-40.7h-89.9C182.4,28,163,45.3,163,68.7V82
		H34.8C16.2,82,0,95.8,0,114.4v109.4l15,4.6v201.1c0,23.4,19.6,43.4,43,43.4h386.2c23.4,0,42.8-20.1,42.8-43.4V228.4l13-4.6V114.4z
		 M187,68.7c0-10.2,8.6-16.7,18.8-16.7h89.9c10.2,0,17.3,6.5,17.3,16.7V82H187V68.7z M24,114.4c0-5.4,5.4-8.4,10.8-8.4h432.6
		c5.4,0,8.6,3,8.6,8.4v92l-177,57c-31.7,8.6-65.5,8.6-97.2,0L24,206.4V114.4z M463,429.6c0,10.2-8.6,19.4-18.8,19.4H58
		c-10.2,0-19-9.2-19-19.4V236.1l156.3,50l0.6,0.1c18,4.9,36.6,7.4,55.1,7.4s37.2-2.5,55.2-7.4L463,236.1V429.6z"/>
	<path class="st0" d="M251.4,227c22,0,39.9-17.9,39.9-39.9s-17.9-39.9-39.9-39.9s-39.9,17.9-39.9,39.9S229.5,227,251.4,227z
		 M251.4,171.2c8.8,0,15.9,7.1,15.9,15.9c0,8.8-7.2,15.9-15.9,15.9c-8.8,0-15.9-7.1-15.9-15.9C235.5,178.4,242.7,171.2,251.4,171.2z
		"/>
</g>
</svg>
