<?xml version="1.0" encoding="utf-8"?>
<!-- Generator: Adobe Illustrator 19.0.1, SVG Export Plug-In . SVG Version: 6.00 Build 0)  -->
<svg version="1.1" id="Слой_1" xmlns="http://www.w3.org/2000/svg" xmlns:xlink="http://www.w3.org/1999/xlink" x="0px" y="0px"
	 viewBox="0 0 500 500" style="enable-background:new 0 0 500 500;" xml:space="preserve">
<style type="text/css">
	.st0{fill:none;stroke:#00AFD1;stroke-width:9;stroke-miterlimit:10;}
</style>
<g>
	<path class="st0" d="M4716.3,1769.1"/>
</g>
<g>
	<g>
		<g>
			<path d="M461.4,458H46.1C23.9,458,0,439.2,0,416.5V137.8C0,116,22.4,98,46.1,98h58l44.2-56h211l44.2,56h58
				c23.1,0,38.6,17.7,38.6,39.8v278.7C500,439.6,483,458,461.4,458z M46.1,136c-3.7,0-8.1,0.2-8.1,1.8v278.7c0,3.3,5.6,7.5,8.1,7.5
				h415.3c1.7,0,4.6-3.5,4.6-7.5V137.8c0-3.1-3-1.8-4.6-1.8h-77.5l-44.2-60H167.8l-44.2,60H46.1z"/>
		</g>
		<g>
			<path d="M253.7,402c-71,0-128.8-57.8-128.8-128.8c0-71,57.8-128.8,128.8-128.8c71,0,128.8,57.8,128.8,128.8
				C382.5,344.2,324.7,402,253.7,402z M253.7,183.6c-49.4,0-89.6,40.2-89.6,89.6c0,49.4,40.2,89.6,89.6,89.6
				c49.4,0,89.6-40.2,89.6-89.6C343.4,223.8,303.1,183.6,253.7,183.6z"/>
		</g>
	</g>
	<rect x="402.9" y="42" width="73.4" height="38.7"/>
</g>
</svg>
