<?xml version="1.0" encoding="utf-8"?>
<!-- Generator: Adobe Illustrator 19.0.1, SVG Export Plug-In . SVG Version: 6.00 Build 0)  -->
<svg version="1.1" id="Слой_1" xmlns="http://www.w3.org/2000/svg" xmlns:xlink="http://www.w3.org/1999/xlink" x="0px" y="0px"
	 viewBox="0 0 500 500" style="enable-background:new 0 0 500 500;" xml:space="preserve">
<style type="text/css">
	.st0{fill:#00B187;}
</style>
<g>
	<g>
		<path class="st0" d="M460.2,466H43.6C21.4,466,0,445.7,0,422.9V143.3C0,121.5,19.8,104,43.6,104h58.2l44.3-70h211.7l44.3,70h58.2
			c23.2,0,39.8,17.1,39.8,39.3v279.6C500,446.1,481.9,466,460.2,466z M43.6,140c-3.7,0-7.6,1.8-7.6,3.3v279.6c0,3.4,5.1,8.1,7.6,8.1
			h416.6c1.7,0,4.8-4.1,4.8-8.1V143.3c0-3.1-3.2-3.3-4.8-3.3h-77.8l-44.3-71H165.7l-44.3,71H43.6z"/>
	</g>
	<g>
		<path d="M251.9,395.6c-64.2,0-116.5-52.2-116.5-116.5c0-64.2,52.2-116.5,116.5-116.5c64.2,0,116.5,52.2,116.5,116.5
			C368.4,343.4,316.1,395.6,251.9,395.6z M251.9,198.1c-44.7,0-81,36.4-81,81c0,44.7,36.4,81,81,81c44.7,0,81-36.4,81-81
			C333,234.5,296.6,198.1,251.9,198.1z"/>
	</g>
</g>
</svg>
