<?xml version="1.0" encoding="utf-8"?>
<!-- Generator: Adobe Illustrator 19.0.1, SVG Export Plug-In . SVG Version: 6.00 Build 0)  -->
<svg version="1.1" id="Слой_1" xmlns="http://www.w3.org/2000/svg" xmlns:xlink="http://www.w3.org/1999/xlink" x="0px" y="0px"
	 viewBox="0 0 500 500" style="enable-background:new 0 0 500 500;" xml:space="preserve">
<style type="text/css">
	.st0{fill:none;stroke:#00AFD1;stroke-width:9;stroke-miterlimit:10;}
</style>
<g>
	<path class="st0" d="M4716.3,1769.1"/>
</g>
<g>
	<g>
		<path d="M250,500C112.1,500,0,387.8,0,250S112.1,0,250,0s250,112.1,250,250S387.9,500,250,500z M250,28.2
			C127.7,28.2,28.2,127.7,28.2,250S127.7,471.8,250,471.8S471.8,372.3,471.8,250S372.3,28.2,250,28.2z"/>
	</g>
	<path d="M368.7,165.1c-5.9-5.9-15.4-5.9-21.2,0L209.6,303l-57.1-57.1c-5.9-5.9-15.4-5.9-21.2,0c-5.9,5.9-5.9,15.4,0,21.2l67.7,67.7
		c5.9,5.9,15.4,5.9,21.2,0l148.5-148.5C374.6,180.5,374.6,171,368.7,165.1z"/>
</g>
</svg>
