<?xml version="1.0" encoding="utf-8"?>
<!-- Generator: Adobe Illustrator 19.0.1, SVG Export Plug-In . SVG Version: 6.00 Build 0)  -->
<svg version="1.1" id="Слой_1" xmlns="http://www.w3.org/2000/svg" xmlns:xlink="http://www.w3.org/1999/xlink" x="0px" y="0px"
	 viewBox="-229 31 500 500" style="enable-background:new -229 31 500 500;" xml:space="preserve">
<style type="text/css">
	.st0{fill:#00B187;}
</style>
<g>
	<g>
		<path class="st0" d="M21,530.3c-66.6,0-129.2-25.9-176.2-73c-47.1-47.1-73-109.7-73-176.2s25.9-129.2,73-176.2
			c47.1-47.1,109.7-73,176.2-73s129.2,25.9,176.2,73c47.1,47.1,73,109.7,73,176.2s-25.9,129.2-73,176.2
			C150.2,504.3,87.6,530.3,21,530.3z M21,71.8c-115.4,0-209.2,93.8-209.2,209.2S-94.4,490.3,21,490.3S230.3,396.4,230.3,281
			S136.4,71.8,21,71.8z"/>
	</g>
	<g>
		<path class="st0" d="M-34.1,387.6c-5.3,0-10.4-2.1-14.1-5.9l-62.9-62.9c-7.8-7.8-7.8-20.5,0-28.3c7.8-7.8,20.5-7.8,28.3,0
			l48.8,48.8l159.1-159.1c7.8-7.8,20.5-7.8,28.3,0s7.8,20.5,0,28.3L-20,381.7C-23.8,385.5-28.8,387.6-34.1,387.6z"/>
	</g>
</g>
</svg>
