<?xml version="1.0" encoding="utf-8"?>
<!-- Generator: Adobe Illustrator 19.0.1, SVG Export Plug-In . SVG Version: 6.00 Build 0)  -->
<svg version="1.1" id="Слой_1" xmlns="http://www.w3.org/2000/svg" xmlns:xlink="http://www.w3.org/1999/xlink" x="0px" y="0px"
	 viewBox="-229 31 500 500" style="enable-background:new -229 31 500 500;" xml:space="preserve">
<style type="text/css">
	.st0{fill:none;stroke:#00AFD1;stroke-width:9;stroke-miterlimit:10;}
	.st1{fill:#00B187;}
</style>
<g>
	<path class="st0" d="M4487.3,1800.1"/>
</g>
<g>
	<g>
		<path class="st1" d="M21,531c-137.9,0-250-112.1-250-250S-116.9,31,21,31s250,112.1,250,250S158.9,531,21,531z M21,59.2
			c-122.3,0-221.8,99.5-221.8,221.8S-101.3,502.8,21,502.8S242.8,403.3,242.8,281S143.3,59.2,21,59.2z"/>
	</g>
	<path class="st1" d="M139.7,196.1c-5.9-5.9-15.4-5.9-21.2,0L-19.4,334l-57.1-57.1c-5.9-5.9-15.4-5.9-21.2,0
		c-5.9,5.9-5.9,15.4,0,21.2l67.7,67.7c5.9,5.9,15.4,5.9,21.2,0l148.5-148.5C145.6,211.5,145.6,202,139.7,196.1z"/>
</g>
</svg>
