<?xml version="1.0" encoding="utf-8"?>
<!-- Generator: Adobe Illustrator 19.0.1, SVG Export Plug-In . SVG Version: 6.00 Build 0)  -->
<svg version="1.1" id="Слой_1" xmlns="http://www.w3.org/2000/svg" xmlns:xlink="http://www.w3.org/1999/xlink" x="0px" y="0px"
	 viewBox="0 0 500 500" style="enable-background:new 0 0 500 500;" xml:space="preserve">
<style type="text/css">
	.st0{fill:#00B187;}
	.st1{fill:#FFFFFF;}
</style>
<g>
	<circle class="st0" cx="250" cy="250" r="250"/>
	<g>
		<path class="st1" d="M265.1,286.6h-44.6l-11,57.3l-18.1-3.7l10.4-53.6h-32.4l-0.3-16.5h35.9l9.2-46.2h-31.8l-0.3-16.5h35.3
			l10.1-51.4l17.8,3.7l-9.2,47.7h44.6l10.1-51.4l17.8,3.7l-9.2,47.7h30.9l0.3,16.5h-34.5l-9.2,46.2h30.3l0.3,16.5h-33.9l-11,57.3
			l-18.1-3.7L265.1,286.6z M223.9,270.1h44.6l9.2-46.2h-44.6L223.9,270.1z"/>
	</g>
</g>
</svg>
