<?xml version="1.0" encoding="utf-8"?>
<!-- Generator: Adobe Illustrator 19.0.1, SVG Export Plug-In . SVG Version: 6.00 Build 0)  -->
<svg version="1.1" id="Слой_1" xmlns="http://www.w3.org/2000/svg" xmlns:xlink="http://www.w3.org/1999/xlink" x="0px" y="0px"
	 viewBox="0 0 500 500" style="enable-background:new 0 0 500 500;" xml:space="preserve">
<style type="text/css">
	.st0{fill:#00B187;}
	.st1{fill:#FFFFFF;}
</style>
<g>
	<circle class="st0" cx="250" cy="250" r="250"/>
	<g>
		<path class="st1" d="M158.4,364.2c-2.4,0-4.7-1-6.4-2.9c-2.5-2.9-2.8-7.2-0.6-10.3c11.3-16.6,17.5-29.9,20-43.4
			c-31.5-18-50.1-46.1-50.1-76.1c0-26.1,13.7-50.5,38.5-68.6c24-17.5,55.9-27.2,89.6-27.2s65.6,9.7,89.6,27.2
			c24.8,18.1,38.5,42.5,38.5,68.6S364,282,339.1,300.1c-24,17.5-55.9,27.2-89.6,27.2c-8.9,0-17.8-0.7-26.4-2
			c-10.8,11.9-29.7,22.5-60.9,38C161,364,159.7,364.2,158.4,364.2z M249.5,152.7c-61.3,0-111.2,35.4-111.2,78.9
			c0,25.1,17.3,49,46.3,63.9c3.1,1.6,4.9,5,4.5,8.5c-1.2,10.5-4,20.4-8.9,31c16.3-9,27.2-16.5,32.6-23.8c1.9-2.6,5.2-3.9,8.4-3.3
			c9.2,1.7,18.7,2.6,28.3,2.6c61.3,0,111.2-35.4,111.2-78.9C360.7,188.1,310.8,152.7,249.5,152.7z"/>
	</g>
</g>
</svg>
