<?xml version="1.0" encoding="utf-8"?>
<!-- Generator: Adobe Illustrator 19.0.1, SVG Export Plug-In . SVG Version: 6.00 Build 0)  -->
<svg version="1.1" id="Слой_1" xmlns="http://www.w3.org/2000/svg" xmlns:xlink="http://www.w3.org/1999/xlink" x="0px" y="0px"
	 viewBox="0 0 500 500" style="enable-background:new 0 0 500 500;" xml:space="preserve">
<style type="text/css">
	.st0{fill:#00B187;}
	.st1{fill:#FFFFFF;}
</style>
<g>
	<circle class="st0" cx="250" cy="250" r="250"/>
	<path class="st1" d="M257,247.6v-40.7c5,0.4,11.4,0.6,16.7,1.6l0.4-0.5h0.6c1.9,0,3.5,0.1,4.7-1.1l1-0.8l0.6-2.7v-0.8
		c0-2.8-1.5-5.8-4.7-6.4c-5.8-1.5-11.3-2.5-19.3-2.8V184c0-3.4-3-7-6.5-7h-1.1c-3.4,0-6.4,3.6-6.4,7v9.5c-22,1.9-34.9,13-34.9,30.4
		c0,19,17.9,26.9,34.9,33.2v37.7c-8-0.8-18.2-3.7-23.8-5.6l-0.8-1.1h-1c-1.9,0-3.5,1.3-4.7,2.5l-1.1,1.2l-1.5,3.5v1.2
		c0,2.7,1.8,5.5,4.7,6.3c9.5,3.5,20.3,4.9,28.3,5.4v0v8.8c0,3.4,3,6,6.4,6h1.1c3.4,0,6.5-2.6,6.5-6v-8.8c17-1.7,35.1-10.6,35.1-28
		C292.1,261.3,274,253.7,257,247.6z M221.7,224c0-11.8,11.3-16,21.3-17.1v35.8C231,237.7,221.7,232.7,221.7,224z M257,294.7V262
		c13,5.1,21.5,10,21.5,18.4C278.5,289.9,268,293.7,257,294.7z"/>
	<g>
		<path class="st1" d="M250,370.5c-66.4,0-120.5-54.1-120.5-120.5S183.6,129.5,250,129.5S370.5,183.6,370.5,250
			S316.4,370.5,250,370.5z M250,143.5c-58.7,0-106.5,47.8-106.5,106.5S191.3,356.5,250,356.5S356.5,308.7,356.5,250
			S308.7,143.5,250,143.5z"/>
	</g>
</g>
</svg>
