<?xml version="1.0" encoding="utf-8"?>
<!-- Generator: Adobe Illustrator 19.0.1, SVG Export Plug-In . SVG Version: 6.00 Build 0)  -->
<svg version="1.1" id="Слой_1" xmlns="http://www.w3.org/2000/svg" xmlns:xlink="http://www.w3.org/1999/xlink" x="0px" y="0px"
	 viewBox="0 0 500 500" style="enable-background:new 0 0 500 500;" xml:space="preserve">
<style type="text/css">
	.st0{fill:#00B187;}
	.st1{fill:#FFFFFF;}
</style>
<g>
	<circle class="st0" cx="250" cy="250" r="250"/>
	<g>
		<g>
			<path class="st1" d="M298,365H145v-6.2c0-44.6,37.3-60.7,59.3-70.3c0.4-0.6,0.8-3.7-0.5-5.1c-23.1-27.4-30.5-80.8-15.2-114.2
				c9.1-19.9,24.4-31.8,45.4-34.1v-0.4l7.6,0c0.1,0,0.6,0,0.8,0l0.6,0c24.5,0.6,43.9,13.7,54.7,37.2c15.8,34.5,10.4,85.9-11.8,112.4
				c0,1,1.4,3.5,3.2,4.3c3.1,1.3,6.2,2.7,9.5,4.3l-10.9,10.2c-1.4-0.6-2.8-1.2-4.1-1.8c-5.3-2.3-9.7-7.7-11-13.4
				c-1.1-4.6-0.1-8.9,2.7-12.2c19-22.4,23.6-68.2,10-97.9c-6-13.1-18.3-28.8-42.9-29.1c-18.8,0.2-32.4,9.1-40.3,26.4
				c-14.4,31.4-5.1,78.5,12.7,99.6c3.6,4.3,5.1,10.8,3.8,16.5c-1.1,4.7-4,8-8,9.7c-24.7,10.8-47,23.4-50.1,50.4H298V365z"/>
		</g>
		<g>
			<path class="st1" d="M310.8,335.5H290c-4.5,0-7.7-3.2-7.7-7.7c0-4.5,3.2-8,7.7-8h20.7v-22.5c0-4.5,3.2-8,7.7-8c4.5,0,8,3.5,8,8
				v22.5h20.7c4.5,0,7.7,3.5,7.7,8c0,4.5-3.2,7.7-7.7,7.7h-20.7v21.7c0,4.5-3.5,8-8,8c-4.5,0-7.7-3.5-7.7-8V335.5z"/>
		</g>
	</g>
</g>
</svg>
