<?xml version="1.0" encoding="utf-8"?>
<!-- Generator: Adobe Illustrator 19.0.1, SVG Export Plug-In . SVG Version: 6.00 Build 0)  -->
<svg version="1.1" id="Слой_1" xmlns="http://www.w3.org/2000/svg" xmlns:xlink="http://www.w3.org/1999/xlink" x="0px" y="0px"
	 viewBox="-229 31 500 500" style="enable-background:new -229 31 500 500;" xml:space="preserve">
<style type="text/css">
	.st0{fill:#5ABF3D;}
	.st1{fill:#FFFFFF;}
</style>
<g>
	<circle class="st0" cx="21" cy="281" r="250"/>
	<g>
		<g>
			<path class="st1" d="M21,434.2c-84.5,0-153.2-68.7-153.2-153.2S-63.5,127.8,21,127.8S174.2,196.5,174.2,281S105.5,434.2,21,434.2
				z M21,145.1c-75,0-135.9,61-135.9,135.9S-54,416.9,21,416.9S156.9,356,156.9,281S96,145.1,21,145.1z"/>
		</g>
		<path class="st1" d="M93.8,229c-3.6-3.6-9.4-3.6-13,0l-84.5,84.5l-35-35c-3.6-3.6-9.4-3.6-13,0s-3.6,9.4,0,13l41.5,41.5
			c3.6,3.6,9.4,3.6,13,0l91-91C97.3,238.4,97.3,232.6,93.8,229z"/>
	</g>
</g>
</svg>
