<?xml version="1.0" encoding="utf-8"?>
<!-- Generator: Adobe Illustrator 19.0.1, SVG Export Plug-In . SVG Version: 6.00 Build 0)  -->
<svg version="1.1" id="Слой_1" xmlns="http://www.w3.org/2000/svg" xmlns:xlink="http://www.w3.org/1999/xlink" x="0px" y="0px"
	 viewBox="-229 31 500 500" style="enable-background:new -229 31 500 500;" xml:space="preserve">
<style type="text/css">
	.st0{fill:#00AFD1;}
</style>
<path class="st0" d="M198.2,104.9C151.8,58.2,90.1,32,24.4,31.2c-0.5-0.1-1-0.1-1.5-0.1L22,31c0,0,0,0-0.1,0c-0.7,0-1.3,0-1.9,0.1
	c-66.4,0.3-128.7,26.2-175.6,73.2c-47.2,47.1-73.1,109.8-73.1,176.5s26,129.4,73.1,176.6C-109,504.1-47.1,530,18.8,530.5
	c1.1,0.3,2.3,0.5,3.5,0.5h0.1c66.4-2,128.8-26.7,175.6-73.8c46.9-47.1,72.7-109.9,72.7-176.3S245,152,198.2,104.9z M240.8,280.8
	c0,26.4-4.7,51.7-13.3,75.2c-25.2-4.1-50.4-7.4-75.5-10c4.7-21.3,7.1-43.1,7.1-65.1c0-18.9-1.8-37.7-5.3-56.2
	c25.5-2.7,51.1-6.1,76.7-10.3C237.2,235.4,240.8,257.7,240.8,280.8z M-198.8,280.8c0-23,3.6-45.3,10.2-66.2
	c26.3,4.5,52.7,8.1,79.3,10.8c-3.4,18.2-5.1,36.8-5.1,55.5c0,21.7,2.4,43.3,6.9,64.3c-26.2,2.7-52.2,6.2-78.1,10.5
	C-194.2,332.4-198.8,307.2-198.8,280.8z M-84.6,281c0-17.9,1.6-35.5,5-52.8c27.8,2.2,55.6,3.4,83.6,3.7V339
	c-27,0.3-54.5,1.5-81.6,3.6C-82.3,322.6-84.6,302-84.6,281z M40,231.8c28-0.5,56-1.9,84.3-4.2c3.5,17.4,5.2,35.3,5.2,53.4
	c0,21.2-2.2,42-7,62.2c-27.7-2.2-55.4-3.6-82.4-4.1V231.8H40z M219.2,186c-24.2,3.8-48.3,7-72.4,9.5c-5.7-19.3-13.3-38-22.7-55.7
	c-14.3-27-32.8-51.8-54.6-73.3C135.5,81.4,190.5,126.3,219.2,186z M116.9,198.2c-25.7,2-51.9,3.2-76.9,3.7V79.1
	C75,111.5,102.4,152.7,116.9,198.2z M4,80v122c-25-0.3-50.9-1.4-76.1-3.2C-57.7,153.5-31,112.4,4,80z M-24.1,65.6
	c-22.1,21.7-40.9,46.8-55.4,74.1c-9.5,18-17.2,36.9-22.9,56.4c-25.2-2.5-50.2-5.8-75.1-9.9C-148.2,125.3-91.8,79.8-24.1,65.6z
	 M-173,384.1c24.3-3.9,48.8-7.1,73.4-9.5c5.3,16.4,12.1,32.4,20.2,47.6c14.4,27.2,33.1,52.1,55,73.7
	C-88.8,482.4-142.9,440.5-173,384.1z M-69.1,372c24.3-1.7,49.1-2.8,73.1-3v113C-29,451.7-54.3,413.8-69.1,372z M40,483V369.1
	c24,0.4,49.2,1.6,74,3.5C98.9,414.6,73,452.7,40,483z M69.9,495.2c21.6-21.4,40-46.1,54.2-72.9c8-15,14.6-30.8,20-46.9
	c23.5,2.4,47.1,5.4,70.8,9.1C185.2,439.6,132.5,480.8,69.9,495.2z"/>
</svg>
