<?xml version="1.0" encoding="utf-8"?>
<!-- Generator: Adobe Illustrator 19.0.1, SVG Export Plug-In . SVG Version: 6.00 Build 0)  -->
<svg version="1.1" id="Слой_1" xmlns="http://www.w3.org/2000/svg" xmlns:xlink="http://www.w3.org/1999/xlink" x="0px" y="0px"
	 viewBox="0 0 500 500" style="enable-background:new 0 0 500 500;" xml:space="preserve">
<style type="text/css">
	.st0{fill:#00B187;}
	.st1{fill:#FFFFFF;stroke:#FFFFFF;stroke-width:11;stroke-miterlimit:10;}
</style>
<g>
	<circle class="st0" cx="250" cy="250" r="250"/>
	<g>
		<path class="st1" d="M225.3,248.8V237h7.9c16.7-1.2,27.5-0.7,33.3-8.8c3.8-5.4,5.3-14.9,5.3-21.6c0-22.5-14.9-28.7-34.8-28.7
			c-11.1,0-22.8,2.7-33,6.1l-5.6-12c14-5.1,27.5-7.8,41.5-7.8c33.3,0,51.5,14.2,51.7,41.2c0.3,15.4-5.8,31.1-18.7,35.5
			c18.4,5.9,26.6,21.1,26.6,40.4c0,29.4-23.7,48-59.9,48c-16.4,0-34.5-4.2-48.2-11.3l7.6-12.5c11.1,5.4,26.3,9.6,40.1,9.6
			c14,0,27.5-2.2,34.2-9.8c5.3-5.9,6.1-14.7,6.1-23.5c0-14.7-7.3-30.6-24-32.1c-7.9-0.7-14.3-1-22.2-1H225.3z"/>
	</g>
</g>
</svg>
