<?xml version="1.0" encoding="utf-8"?>
<!-- Generator: Adobe Illustrator 19.0.1, SVG Export Plug-In . SVG Version: 6.00 Build 0)  -->
<svg version="1.1" id="Слой_1" xmlns="http://www.w3.org/2000/svg" xmlns:xlink="http://www.w3.org/1999/xlink" x="0px" y="0px"
	 viewBox="0 0 500 500" style="enable-background:new 0 0 500 500;" xml:space="preserve">
<style type="text/css">
	.st0{fill:#00B187;}
	.st1{fill:#FFFFFF;stroke:#FFFFFF;stroke-width:11;stroke-miterlimit:10;}
</style>
<g>
	<circle class="st0" cx="250" cy="250" r="250"/>
	<g>
		<path class="st1" d="M301.6,326.2H193.1v-5.6c0-21.8,11.7-44.8,44.1-66.6c30.7-20.8,37.1-25.7,37.1-46.1
			c0-19.1-10.8-25.2-33.6-25.2c-12.3,0-27.2,3.2-39.8,7.6l-5-14c15.8-5.6,33.3-8.8,49.4-8.8c28.9,0,49.7,16.2,49.7,40.2
			c0,22.3-11.4,30.4-36,49.5c-31,23.8-43.6,30.4-45.3,55.4h87.7V326.2z"/>
	</g>
</g>
</svg>
