<?xml version="1.0" encoding="utf-8"?>
<!-- Generator: Adobe Illustrator 19.0.1, SVG Export Plug-In . SVG Version: 6.00 Build 0)  -->
<svg version="1.1" id="Слой_1" xmlns="http://www.w3.org/2000/svg" xmlns:xlink="http://www.w3.org/1999/xlink" x="0px" y="0px"
	 viewBox="0 0 500 500" style="enable-background:new 0 0 500 500;" xml:space="preserve">
<style type="text/css">
	.st0{fill:#00B187;}
	.st1{fill:#FFFFFF;}
</style>
<g>
	<circle class="st0" cx="250" cy="250" r="250"/>
	<g>
		<g>
			<path class="st1" d="M143.8,325.7c-2.1,0-4.2-0.9-5.7-2.6c-2.2-2.6-2.5-6.3-0.5-9.1c10-14.7,15.5-26.5,17.7-38.4
				c-27.9-16-44.3-40.8-44.3-67.4c0-23.1,12.1-44.7,34.1-60.7c21.3-15.5,49.5-24.1,79.4-24.1s58.1,8.6,79.4,24.1
				c22,16.1,34.1,37.6,34.1,60.7s-12.1,44.7-34.1,60.7c-21.3,15.5-49.5,24.1-79.4,24.1c-7.9,0-15.7-0.6-23.4-1.8
				c-9.5,10.5-26.3,20-53.9,33.7C146.1,325.4,145,325.7,143.8,325.7z M224.5,138.3c-54.3,0-98.5,31.3-98.5,69.8
				c0,22.3,15.3,43.4,41,56.6c2.8,1.4,4.4,4.4,4,7.5c-1.1,9.3-3.5,18.1-7.8,27.5c14.5-7.9,24.1-14.6,28.8-21.1
				c1.7-2.3,4.6-3.5,7.4-3c8.1,1.5,16.6,2.3,25.1,2.3c54.3,0,98.5-31.3,98.5-69.8C323,169.7,278.8,138.3,224.5,138.3z"/>
		</g>
		<g>
			<path class="st1" d="M359,376.7c-1.1,0-2.3-0.3-3.3-0.8c-24.3-12.1-39.2-20.4-47.8-29.7c-6.7,1-13.5,1.5-20.4,1.5
				c-35.1,0-67.2-13.2-85.8-35.3l23.2,1.2c16.2,12,38.9,19.1,62.7,19.1c7.5,0,14.9-0.7,22.1-2c2.8-0.5,5.7,0.6,7.4,3
				c3.9,5.3,11.6,10.8,23.1,17.2c-3.2-7.5-5.1-14.8-6-22.3c-0.4-3.1,1.2-6.1,4-7.5c22.5-11.5,35.9-30,35.9-49.4
				c0-14.6-7.2-28.3-20.5-39.3l2.3-17c21.1,14.3,33.2,34.9,33.2,56.4c0,23.7-14.6,45.8-39.2,60.2c2,10.3,6.8,20.5,15.5,33.2
				c1.9,2.8,1.7,6.6-0.5,9.2C363.2,375.8,361.1,376.7,359,376.7z"/>
		</g>
	</g>
</g>
</svg>
