<?xml version="1.0" encoding="utf-8"?>
<!-- Generator: Adobe Illustrator 19.0.1, SVG Export Plug-In . SVG Version: 6.00 Build 0)  -->
<svg version="1.1" id="Слой_1" xmlns="http://www.w3.org/2000/svg" xmlns:xlink="http://www.w3.org/1999/xlink" x="0px" y="0px"
	 viewBox="0 0 500 500" style="enable-background:new 0 0 500 500;" xml:space="preserve">
<style type="text/css">
	.st0{fill:#00B187;}
	.st1{fill:#FFFFFF;}
</style>
<g>
	<circle class="st0" cx="250" cy="250" r="250"/>
	<g>
		<path class="st1" d="M327.9,378.1C327.9,378.1,327.8,378.1,327.9,378.1c-14.9-0.1-30-0.1-44.6-0.1c-11.1,0-22.3,0-33.4,0
			c-14.1,0-28.8,0.1-43.2-0.1c-0.1,0-0.2,0-0.2,0c-14.7,0-25.2-6.5-36.2-13.4c-10.2-6.4-20.8-12.9-37.2-16.6
			c-5-1.1-8.5-5.3-8.9-10.3c-5.7-34.7-6.5-51.2,0.1-84.9c0.3-3.1,1.9-6.9,5.1-9c0.2-0.2,0.5-0.3,0.7-0.4
			c41.8-20.9,97.7-54.9,100.8-108.7c0-4.6,1.9-7.5,3.5-9.2c2.2-2.3,5.4-3.6,8.9-3.6c5-0.1,9.5,0.7,13.2,2.2
			c7.2,2.9,13.2,8.5,18.3,17c7.5,12.7,10.6,27.5,9.2,44c-0.8,8.8-2.5,17.5-4.2,25.9l-0.7,3.7c0,0,0,0.1,0,0.1c6.8,0,13.6,0,20.4,0
			c13.9,0,28.2-0.1,42.4,0.1c15.1,0.2,37.5,9.7,38.6,26.4c0.7,9.9-2.1,17.6-8.1,23.1c5.1,6.8,7.3,14.6,6,22
			c-1.4,7.9-8,13.1-14.4,16.4c3.4,5.7,5.9,12.9,3.9,21.4c-2,8.3-8.1,14.5-16.4,17.4c2.6,7.9,2.5,15.6-0.7,21.8
			C346.8,370.6,335.2,378.1,327.9,378.1z M299.1,362.3c9.5,0,19.1,0,28.7,0.1c2.3-0.5,7.9-4.3,8.9-6.2c1.5-3,1.1-9.3-3.6-16.2
			c-1.7-2.4-1.8-5.6-0.4-8.2c1.4-2.6,4.3-4.2,7.1-4.1c5,0.2,11.3-1.6,12.6-7.1c1.2-4.9-1.5-9.5-6.9-16.3c-1.6-2-2.1-4.8-1.4-7.3
			c0.8-2.5,2.8-4.4,5.3-5.2c8.2-2.4,13-6.3,13.3-8.1c1-5.5-3.6-11.3-7.9-14.5c-2.2-1.7-3.4-4.5-3-7.3c0.4-2.8,2.3-5.2,4.9-6.2
			c7.2-2.8,8.3-7,7.9-13.3c-0.3-5-13.3-11.6-23.1-11.7c-14-0.1-28.3-0.1-42.2-0.1c-6.9,0-13.8,0-20.7,0c-6.7,0-10.4-2.8-12.3-5.2
			c-2-2.4-4.1-6.8-2.8-13.6l0.7-3.7c1.7-8.3,3.2-16.2,3.9-24.2c1.1-13.4-1.2-24.7-7.1-34.7c-3.3-5.5-6.7-8.8-10.7-10.4
			c-1.1-0.5-2.5-0.8-4.1-0.9c-4.7,59.6-62.4,96-106.9,118.5c-5.9,30.7-5.4,45.4-0.2,77c17.4,4.4,29.4,11.8,39.2,17.9
			c10.3,6.4,17.9,11,28.2,11c0,0,0.1,0,0.1,0c14.3,0.2,28.9,0.1,43,0.1c11.1,0,22.3,0,33.4,0C288.5,362.3,293.8,362.3,299.1,362.3z"
			/>
	</g>
</g>
</svg>
