<?xml version="1.0" encoding="utf-8"?>
<!-- Generator: Adobe Illustrator 19.0.1, SVG Export Plug-In . SVG Version: 6.00 Build 0)  -->
<svg version="1.1" id="Слой_1" xmlns="http://www.w3.org/2000/svg" xmlns:xlink="http://www.w3.org/1999/xlink" x="0px" y="0px"
	 viewBox="-229 31 500 500" style="enable-background:new -229 31 500 500;" xml:space="preserve">
<style type="text/css">
	.st0{fill:#00AFD1;}
</style>
<g>
	<g>
		<path class="st0" d="M-169.9,417.1c-3.8,0-7.5-1.6-10.2-4.6c-4-4.6-4.4-11.4-1-16.5c18-26.4,27.8-47.6,31.9-69.1
			c-50.2-28.7-79.8-73.4-79.8-121.1c0-41.6,21.8-80.4,61.4-109.2c38.3-27.9,89-43.3,142.8-43.3S79.7,68.7,118,96.6
			c39.6,28.9,61.4,67.7,61.4,109.2S157.6,286.2,118,315c-38.3,27.9-89,43.3-142.8,43.3c-14.2,0-28.3-1.1-42.1-3.2
			c-17.1,18.9-47.3,35.9-97,60.6C-165.9,416.6-167.9,417.1-169.9,417.1z M-24.9,80.2c-97.6,0-177.1,56.3-177.1,125.6
			c0,40,27.5,78.1,73.7,101.8c5,2.6,7.9,8,7.2,13.5c-1.9,16.7-6.4,32.6-14.1,49.4c26-14.3,43.3-26.2,51.9-37.9
			c3.1-4.2,8.3-6.3,13.4-5.3c14.6,2.7,29.8,4.1,45.1,4.1c97.7,0,177.2-56.3,177.2-125.6C152.3,136.5,72.8,80.2-24.9,80.2z"/>
	</g>
	<g>
		<path class="st0" d="M217.1,508.8c-2,0-4.1-0.5-6-1.4c-43.7-21.7-70.5-36.7-85.9-53.5c-12,1.8-24.4,2.8-36.8,2.8
			c-63.1,0-120.8-23.8-154.4-63.6l41.7,2.2c29.2,21.6,69.9,34.4,112.7,34.4c13.4,0,26.8-1.2,39.7-3.6c5.1-1,10.3,1.1,13.4,5.3
			c7,9.6,20.9,19.4,41.5,31c-5.8-13.6-9.2-26.5-10.8-40.1c-0.6-5.6,2.2-11,7.2-13.5c40.4-20.8,64.5-54,64.5-88.9
			c0-26.2-13-50.9-36.8-70.8l4.1-30.6c37.9,25.8,59.7,62.8,59.7,101.4c0,42.6-26.2,82.4-70.6,108.2c3.7,18.5,12.3,36.9,27.8,59.6
			c3.5,5.1,3.1,11.8-1,16.5C224.7,507.2,220.9,508.8,217.1,508.8z"/>
	</g>
</g>
</svg>
