<?xml version="1.0" encoding="utf-8"?>
<!-- Generator: Adobe Illustrator 19.0.1, SVG Export Plug-In . SVG Version: 6.00 Build 0)  -->
<svg version="1.1" id="Слой_1" xmlns="http://www.w3.org/2000/svg" xmlns:xlink="http://www.w3.org/1999/xlink" x="0px" y="0px"
	 viewBox="0 0 500 500" style="enable-background:new 0 0 500 500;" xml:space="preserve">
<style type="text/css">
	.st0{fill:#00AFD1;}
</style>
<g>
	<path class="st0" d="M187.1,197.8l-81.7,206.5l201.3-87.8L388.3,110L187.1,197.8z M202.8,240.9l61.1,61.1l-103,44.9L202.8,240.9z
		 M287.4,282.4l-66.2-66.2l111.7-48.7L287.4,282.4z"/>
	<g>
		<path class="st0" d="M250,500c-66.8,0-129.6-26-176.8-73.2C26,379.6,0,316.8,0,250c0-66.8,26-129.6,73.2-176.8
			C120.4,26,183.2,0,250,0s129.6,26,176.8,73.2C474,120.4,500,183.2,500,250c0,66.8-26,129.6-73.2,176.8
			C379.6,474,316.8,500,250,500z M250,30.5C128.9,30.5,30.5,128.9,30.5,250c0,121.1,98.5,219.5,219.5,219.5S469.5,371.1,469.5,250
			C469.5,128.9,371.1,30.5,250,30.5z"/>
	</g>
</g>
</svg>
