<?xml version="1.0" encoding="utf-8"?>
<!-- Generator: Adobe Illustrator 19.0.1, SVG Export Plug-In . SVG Version: 6.00 Build 0)  -->
<svg version="1.1" id="Слой_1" xmlns="http://www.w3.org/2000/svg" xmlns:xlink="http://www.w3.org/1999/xlink" x="0px" y="0px"
	 viewBox="-229 31 500 500" style="enable-background:new -229 31 500 500;" xml:space="preserve">
<style type="text/css">
	.st0{fill:#0083BC;}
</style>
<g>
	<g>
		<path class="st0" d="M68,281l190.9,190.9c16.2,16.2,16.2,30.8,0,47c-16.2,16.2-30.8,16.2-47,0L21,328l-190.9,190.9
			c-16.2,16.2-30.8,16.2-47,0c-16.2-16.2-16.2-30.8,0-47L-26,281L-216.9,90.1c-16.1-16.1-16.1-30.8,0-47c16.2-16.1,30.9-16.1,47,0
			L21,234L211.9,43.1c16.2-16.2,30.8-16.2,47,0s16.2,30.8,0,47L68,281z"/>
	</g>
</g>
</svg>
