<?xml version="1.0" encoding="utf-8"?>
<!-- Generator: Adobe Illustrator 19.0.1, SVG Export Plug-In . SVG Version: 6.00 Build 0)  -->
<svg version="1.1" id="Слой_1" xmlns="http://www.w3.org/2000/svg" xmlns:xlink="http://www.w3.org/1999/xlink" x="0px" y="0px"
	 viewBox="0 0 500 500" style="enable-background:new 0 0 500 500;" xml:space="preserve">
<style type="text/css">
	.st0{fill:#00B187;}
	.st1{fill:#FFFFFF;}
</style>
<g>
	<g>
		<path class="st0" d="M293.8,500L262,263.7L499,289.4l-1.1,10.6c-5.3,49.7-27.6,96.9-62.6,132.8c-35,35.9-81.5,59.2-130.9,65.8
			L293.8,500z M286.7,287.8l25.3,188c84.5-15.7,149.7-82.6,163.3-167.5L286.7,287.8z"/>
	</g>
	<g>
		<g>
			<polygon class="st1" points="265.5,446.2 261.7,425.2 262.7,425.1 266.5,446 			"/>
		</g>
		<g>
			<path class="st1" d="M225.8,449.7C101.8,449.7,1,348.8,1,224.8S101.8,0,225.8,0s224.8,100.9,224.8,224.8c0,8-0.4,16.2-1.3,24.3
				l-1.1,10.6l-210-22.8l28.2,209.4l-10.6,1.4C245.9,449,235.8,449.7,225.8,449.7z M225.8,21.3c-112.2,0-203.5,91.3-203.5,203.5
				s91.3,203.5,203.5,203.5c5.5,0,11-0.2,16.6-0.7l-29-214.9L429,236.2c0.2-3.8,0.3-7.6,0.3-11.4C429.4,112.6,338.1,21.3,225.8,21.3
				z"/>
		</g>
	</g>
</g>
</svg>
