<?xml version="1.0" encoding="utf-8"?>
<!-- Generator: Adobe Illustrator 19.0.1, SVG Export Plug-In . SVG Version: 6.00 Build 0)  -->
<svg version="1.1" id="Слой_1" xmlns="http://www.w3.org/2000/svg" xmlns:xlink="http://www.w3.org/1999/xlink" x="0px" y="0px"
	 viewBox="0 0 500 500" style="enable-background:new 0 0 500 500;" xml:space="preserve">
<style type="text/css">
	.st0{fill:#00AFD1;}
</style>
<g>
	<g>
		<path class="st0" d="M250.1,436.9C170.3,436.9,108,395,77.9,370C33.1,332.8,2.6,286.1,0.1,251.1L0,250l0.1-1.1
			c2.5-35,33.1-81.7,77.8-118.9c30.1-25,92.4-66.9,172.2-66.9c79.8,0,142.1,41.9,172.1,66.9c44.7,37.2,75.2,83.9,77.8,118.9l0.1,1.1
			l-0.1,1.1c-2.5,35-33,81.7-77.8,118.9C392.1,395,329.8,436.9,250.1,436.9z M29.7,250c2.6,26.6,30,66.3,67.1,97.3
			c27,22.4,82.8,60.1,153.2,60.1c70.5,0,126.2-37.6,153.2-60.1c37.1-30.9,64.5-70.7,67.1-97.3c-2.6-26.6-29.9-66.3-67.1-97.3
			c-27-22.4-82.7-60.1-153.2-60.1c-70.5,0-126.3,37.6-153.2,60.1C59.6,183.7,32.2,223.4,29.7,250z"/>
	</g>
	<g>
		<path class="st0" d="M250,357.9c-59.5,0-107.9-48.4-107.9-107.9c0-59.5,48.4-107.9,107.9-107.9S357.9,190.5,357.9,250
			C357.9,309.5,309.5,357.9,250,357.9z M250,171.7c-43.2,0-78.3,35.1-78.3,78.3s35.1,78.3,78.3,78.3s78.3-35.1,78.3-78.3
			S293.2,171.7,250,171.7z"/>
	</g>
</g>
</svg>
