<?xml version="1.0" encoding="utf-8"?>
<!-- Generator: Adobe Illustrator 16.0.0, SVG Export Plug-In . SVG Version: 6.00 Build 0)  -->
<!DOCTYPE svg PUBLIC "-//W3C//DTD SVG 1.1//EN" "http://www.w3.org/Graphics/SVG/1.1/DTD/svg11.dtd">
<svg version="1.1" id="Слой_1" xmlns="http://www.w3.org/2000/svg" xmlns:xlink="http://www.w3.org/1999/xlink" x="0px" y="0px"
	 width="612px" height="792px" viewBox="0 0 612 792" enable-background="new 0 0 612 792" xml:space="preserve">
<g>
	<g>
		<path fill="#FFFFFF" d="M306.001,624.766c-97.676,0-173.931-51.285-210.773-81.885C40.392,497.348,3.06,440.186,0.001,397.346
			l-0.123-1.345l0.123-1.347c3.06-42.84,40.514-100.001,95.227-145.533c36.843-30.601,113.098-81.886,210.773-81.886
			c97.675,0,173.93,51.285,210.65,81.886c54.713,45.532,92.045,102.693,95.227,145.533l0.123,1.347l-0.123,1.345
			c-3.06,42.84-40.392,100.002-95.227,145.535C479.808,573.481,403.553,624.766,306.001,624.766z M36.231,396.001
			c3.182,32.558,36.72,81.15,82.13,119.095c33.048,27.418,101.348,73.563,187.517,73.563c86.292,0,154.469-46.023,187.517-73.563
			c45.411-37.822,78.948-86.537,82.131-119.095c-3.183-32.559-36.598-81.151-82.131-119.096
			c-33.048-27.417-101.225-73.563-187.517-73.563s-154.591,46.022-187.517,73.563C72.828,314.849,39.291,363.442,36.231,396.001z"/>
	</g>
	<g>
		<path fill="#FFFFFF" d="M305.878,528.071c-72.828,0-132.069-59.242-132.069-132.07c0-72.828,59.241-132.07,132.069-132.07
			s132.07,59.242,132.07,132.07C437.948,468.828,378.706,528.071,305.878,528.071z M305.878,300.161
			c-52.877,0-95.839,42.963-95.839,95.84c0,52.876,42.962,95.839,95.839,95.839s95.84-42.963,95.84-95.839
			C401.718,343.124,358.755,300.161,305.878,300.161z"/>
	</g>
</g>
</svg>
