<?xml version="1.0" encoding="utf-8"?>
<!-- Generator: Adobe Illustrator 19.0.1, SVG Export Plug-In . SVG Version: 6.00 Build 0)  -->
<svg version="1.1" id="Слой_1" xmlns="http://www.w3.org/2000/svg" xmlns:xlink="http://www.w3.org/1999/xlink" x="0px" y="0px"
	 viewBox="0 0 500 500" style="enable-background:new 0 0 500 500;" xml:space="preserve">
<style type="text/css">
	.st0{fill:#00AFD1;}
</style>
<path class="st0" d="M274.6,0H98.7C82.6,0,70,10,70,26.1v442.7c0,16.1,12.6,31.2,28.7,31.2h302.7c16.1,0,27.7-15.1,27.7-31.2V151.7
	L274.6,0z M401,163.2V177H251V27h12.2L401,163.2z M401.3,472H98.7c-0.8,0-0.7-2.3-0.7-3.2V26.1c0-0.8-0.2,0.9,0.7,0.9H223v178h178
	v263.8C401,469.7,402.2,472,401.3,472z"/>
</svg>
