<?xml version="1.0" encoding="utf-8"?>
<!-- Generator: Adobe Illustrator 19.0.1, SVG Export Plug-In . SVG Version: 6.00 Build 0)  -->
<svg version="1.1" id="Слой_1" xmlns="http://www.w3.org/2000/svg" xmlns:xlink="http://www.w3.org/1999/xlink" x="0px" y="0px"
	 viewBox="0 0 500 500" style="enable-background:new 0 0 500 500;" xml:space="preserve">
<style type="text/css">
	.st0{fill:#00B187;}
</style>
<g>
	<g>
		<path class="st0" d="M471.1,447.3H28.9c-16,0-28.9-13-28.9-28.9V81.6c0-16,13-28.9,28.9-28.9H202l35.3,47.6h233.8
			c16,0,28.9,13,28.9,28.9v289.1C500,434.3,487,447.3,471.1,447.3z M30.7,416.6h438.7V131H221.9l-35.3-47.6H30.7V416.6z"/>
	</g>
	<g>
		<g>
			<path d="M147.2,349.8c-2,0-3.9-0.8-5.3-2.4c-2.1-2.4-2.3-5.9-0.5-8.5c9.3-13.6,14.4-24.6,16.4-35.7
				c-25.9-14.8-41.2-37.9-41.2-62.5c0-21.5,11.2-41.5,31.7-56.4c19.8-14.4,45.9-22.4,73.7-22.4s53.9,7.9,73.7,22.4
				c20.4,14.9,31.7,34.9,31.7,56.4s-11.2,41.5-31.7,56.4c-19.8,14.4-45.9,22.4-73.7,22.4c-7.3,0-14.6-0.6-21.7-1.7
				c-8.8,9.8-24.4,18.5-50,31.3C149.4,349.6,148.3,349.8,147.2,349.8z M222.1,176c-50.4,0-91.4,29.1-91.4,64.8
				c0,20.7,14.2,40.3,38,52.5c2.6,1.3,4.1,4.1,3.7,7c-1,8.6-3.3,16.8-7.3,25.5c13.4-7.4,22.4-13.5,26.8-19.6
				c1.6-2.2,4.3-3.2,6.9-2.7c7.5,1.4,15.4,2.1,23.3,2.1c50.4,0,91.4-29.1,91.4-64.8C313.5,205,272.5,176,222.1,176z"/>
		</g>
		<g>
			<path d="M347,397.1c-1,0-2.1-0.2-3.1-0.7c-22.6-11.2-36.4-19-44.3-27.6c-6.2,0.9-12.6,1.4-19,1.4c-32.6,0-62.3-12.3-79.7-32.8
				l21.5,1.1c15,11.2,36.1,17.7,58.1,17.7c6.9,0,13.8-0.6,20.5-1.9c2.6-0.5,5.3,0.6,6.9,2.7c3.6,5,10.8,10,21.4,16
				c-3-7-4.8-13.7-5.6-20.7c-0.3-2.9,1.2-5.7,3.7-7c20.8-10.7,33.3-27.9,33.3-45.9c0-13.5-6.7-26.3-19-36.5l2.1-15.8
				c19.6,13.3,30.8,32.4,30.8,52.3c0,22-13.5,42.5-36.4,55.8c1.9,9.5,6.3,19,14.3,30.8c1.8,2.6,1.6,6.1-0.5,8.5
				C350.9,396.3,348.9,397.1,347,397.1z"/>
		</g>
	</g>
</g>
</svg>
