<?xml version="1.0" encoding="utf-8"?>
<!-- Generator: Adobe Illustrator 19.0.1, SVG Export Plug-In . SVG Version: 6.00 Build 0)  -->
<svg version="1.1" id="Слой_1" xmlns="http://www.w3.org/2000/svg" xmlns:xlink="http://www.w3.org/1999/xlink" x="0px" y="0px"
	 viewBox="0 0 500 500" style="enable-background:new 0 0 500 500;" xml:space="preserve">
<style type="text/css">
	.st0{fill:#00B187;}
</style>
<g>
	<g>
		<g>
			<path d="M249.9,379c-5.7,0-11.2-2.4-15-6.7c-19-21.3-65.2-73.1-82.2-93.3c-7.3-8.6-12.4-18.6-14.8-28.9
				c-1.1-4.7-1.7-9.1-1.7-13.3c0-19.9,5.8-35,17.1-45c10.3-9,24.9-13.6,43.5-13.6c24,0,38.9,14,47.8,22.4c1.8,1.7,4.1,3.9,5.6,4.9
				c1.4-1,3.6-3.2,5.4-4.8c9-8.5,24.1-22.8,48-22.8c17.6,0,32.7,5.6,43.5,16.1c10.9,10.6,16.7,25.4,16.7,42.8c0,5-0.9,10.5-2.6,16.4
				c-2.7,9.3-7.4,17.9-14.1,25.8c-16.7,19.7-63.1,71.8-82.3,93.3C261,376.6,255.6,379,249.9,379z M196.9,191.9
				c-15.2,0-26.8,3.4-34.6,10.2c-8.3,7.3-12.5,19-12.5,34.8c0,3.1,0.4,6.5,1.3,10.1c1.9,8.2,6.1,16.2,12,23.3
				c16.9,20,62.9,71.7,81.9,93c1.2,1.4,3,2.2,4.8,2.2c1.9,0,3.6-0.8,4.8-2.2c19.1-21.4,65.4-73.4,82.1-93
				c5.4-6.4,9.2-13.4,11.4-20.8c1.3-4.6,2-8.8,2-12.6c0-27.9-17.9-45.3-46.6-45.3c-18.5,0-30.1,11-38.6,19.1
				c-5.5,5.2-9.4,8.9-14.6,8.9c-5.4,0-9.6-4-15-9C227,202.7,215.5,191.9,196.9,191.9z"/>
		</g>
	</g>
	<g>
		<path class="st0" d="M471.1,447.3H28.9c-16,0-28.9-13-28.9-28.9V81.6c0-16,13-28.9,28.9-28.9H202l35.3,47.6h233.8
			c16,0,28.9,13,28.9,28.9v289.1C500,434.3,487,447.3,471.1,447.3z M30.7,416.6h438.7V131H221.9l-35.3-47.6H30.7V416.6z"/>
	</g>
</g>
</svg>
