<?xml version="1.0" encoding="utf-8"?>
<!-- Generator: Adobe Illustrator 19.0.1, SVG Export Plug-In . SVG Version: 6.00 Build 0)  -->
<svg version="1.1" id="Слой_1" xmlns="http://www.w3.org/2000/svg" xmlns:xlink="http://www.w3.org/1999/xlink" x="0px" y="0px"
	 viewBox="0 0 500 500" style="enable-background:new 0 0 500 500;" xml:space="preserve">
<style type="text/css">
	.st0{fill:#00AFD1;}
</style>
<path class="st0" d="M499.8,297.3c0.9-65.1,0-163.9-51-211.5c-21.1-19.7-48.8-28.3-82.5-25.5l2.2,27.1c26-2.2,46.2,3.9,61.7,18.4
	c34.7,32.4,40,102.4,40.3,157.8c-19.1-20.1-46-32.7-75.8-32.7c-40.3,0-75.3,22.9-92.7,56.3c-34.4-20.3-70-20.1-104.4,0.3
	c-17.4-33.6-52.5-56.6-92.9-56.6c-30.5,0-58,13.1-77.1,34c0.3-55.6,5.3-126.6,40.3-159.3c15.5-14.5,35.7-20.4,61.7-18.2l2.2-27.1
	c-33.6-2.8-61.4,5.9-82.5,25.6c-51,47.6-48.9,146.2-48.9,211.3c0,7.3-0.4,32.3-0.4,38.3c0,57.7,46.9,104.6,104.6,104.6
	s104.6-46.9,104.6-104.6c0-7.5-0.8-14.8-2.3-21.8c29-19.4,56.5-19.5,85.5-0.4c-1.6,7.2-2.4,14.6-2.4,22.2
	c0,57.7,46.9,104.6,104.6,104.6s104.6-46.9,104.6-104.6C499.3,328.6,499.7,303.6,499.8,297.3z M104.6,413
	c-42.7,0-77.4-34.7-77.4-77.4s34.7-77.4,77.4-77.4s77.4,34.7,77.4,77.4S147.3,413,104.6,413z M394.7,413
	c-42.7,0-77.4-34.7-77.4-77.4s34.7-77.4,77.4-77.4s77.4,34.7,77.4,77.4S437.4,413,394.7,413z"/>
</svg>
