<?xml version="1.0" encoding="utf-8"?>
<!-- Generator: Adobe Illustrator 19.0.1, SVG Export Plug-In . SVG Version: 6.00 Build 0)  -->
<svg version="1.1" id="Слой_1" xmlns="http://www.w3.org/2000/svg" xmlns:xlink="http://www.w3.org/1999/xlink" x="0px" y="0px"
	 viewBox="0 0 500 500" style="enable-background:new 0 0 500 500;" xml:space="preserve">
<style type="text/css">
	.st0{fill:#FFFFFF;}
	.st1{fill:#00B187;}
</style>
<g>
	<g>
		<path class="st0" d="M355.3,493.9c-8.1,4.2-17.1,6.3-26.4,6.1l-27.3-0.3c-12.6-0.2-25-4.6-34.8-12.5l-36.4-29.3
			c-16.9-13.6-38-22.1-60.9-24.6c-27-2.9-46.4-6.6-59.5-15.5c-9.4-6.4-15.3-17.1-15.7-28.6c-0.5-11.4,4.5-22.2,13.7-29.6
			c11.5-9.2,29.9-9,38.9-7.4c10.7,1.9,35,4.2,52.8,5.7l-111-217.3c-5.3-10.3-4.2-21.3-2.9-28.6l0.1-0.3c2.2-10.9,9.3-20.4,19.4-26.3
			c10.1-5.9,21.9-7.3,32.3-3.8c10,3.3,18.1,10.3,22.9,19.6l30.7,60c3.8-5.3,8.9-9.6,14.8-12.6c0,0,0,0,0,0c10.1-5.1,21.5-6,32.2-2.4
			l0.6,0.2c2.1,0.7,4.2,1.6,6.2,2.6c3.8-8.3,10.3-15,18.5-19.2c9.7-5,20.8-5.9,31.2-2.5c6.2,2,11.7,5.4,16.2,9.8
			c10.3-15.5,30-23,48.6-17c10.8,3.5,19.6,11,24.7,21.1l83.8,164c4.5,8.8,6.8,18.7,6.8,28.6l-0.2,44.3c-0.1,20-9.9,38.8-26.1,50.4
			l-85.9,61.1C360.2,491.1,357.8,492.6,355.3,493.9z M124,377.1c-0.5,0.2-0.9,0.5-1.2,0.8c-4.3,3.5-5.1,7.5-4.9,10.3
			c0.2,4,2.2,7.9,5.4,10.1c10,6.9,30.4,9.6,48.7,11.5c27.4,3,52.7,13.2,73.2,29.7l36.4,29.3c5.8,4.6,12.9,7.2,20.3,7.3l27.3,0.3
			c7.1,0.1,13.8-2,19.6-6.1l85.9-61.1c10.1-7.2,16.2-18.9,16.2-31.3l0.2-44.3c0-6.2-1.4-12.2-4.2-17.7l-83.5-163.5
			c-2.1-4.1-5.5-7.6-9.8-9.3c-10.3-4.3-21.9,1.2-25.2,11.6c-1.5,4.7-1.2,9.6,1,14l16.9,33.1c3,5.8,0.7,12.9-5.1,15.9h0
			c-5.8,3-12.9,0.7-15.9-5.1l-27.4-53.6c-2.1-4.2-5.7-7.6-10.2-9.1c-9.1-3-19,2-21.9,11.1c-1.4,4.4-1.1,9.1,1.1,13.2l21.2,41.5
			c3,5.8,0.7,12.9-5.1,15.9v0c-5.8,3-12.9,0.7-15.9-5.1l-24.6-48.3c-2.3-4.4-6.2-7.8-10.9-9.3l-0.6-0.2c-4.6-1.5-9.7-1.2-14,1.1h0
			c-4.4,2.3-7.7,6.1-9.2,10.9l-0.3,1.1c-1.2,3.9-1.1,8.1,0.4,11.9l30.6,59.9c3,5.8,0.7,12.9-5.1,15.9l0,0c-5.8,3-12.9,0.7-15.9-5.1
			l-77.7-152.2c-1.9-3.8-5.2-6.6-9.3-8c-3.9-1.3-8.8-0.6-13.1,1.8c-4.2,2.4-7.2,6.3-8.1,10.5c-1.1,6.3-0.9,10.5,0.7,13.5
			l130.2,254.9l-20.9-1.6c-2.3-0.2-57.2-4.3-76.1-7.7C136.3,374.2,128,375.1,124,377.1z"/>
	</g>
	<g>
		<path class="st1" d="M122.1,223.9c-53.4,0-96.8-50.2-96.8-112S68.7,0,122.1,0s96.8,50.2,96.8,112S175.5,223.9,122.1,223.9z
			 M122.1,23.6c-40.4,0-73.2,39.6-73.2,88.4s32.8,88.4,73.2,88.4s73.2-39.6,73.2-88.4S162.5,23.6,122.1,23.6z"/>
	</g>
</g>
</svg>
