<?xml version="1.0" encoding="utf-8"?>
<!-- Generator: Adobe Illustrator 19.0.1, SVG Export Plug-In . SVG Version: 6.00 Build 0)  -->
<svg version="1.1" id="Слой_1" xmlns="http://www.w3.org/2000/svg" xmlns:xlink="http://www.w3.org/1999/xlink" x="0px" y="0px"
	 viewBox="0 0 500 500" style="enable-background:new 0 0 500 500;" xml:space="preserve">
<style type="text/css">
	.st0{fill:none;stroke:#00AFD1;stroke-width:9;stroke-miterlimit:10;}
</style>
<g>
	<path class="st0" d="M4716.3,1769.1"/>
</g>
<g>
	<g>
		<path d="M238.1,122.4c-33.7,0-61.2-27.5-61.2-61.2c0-33.7,27.5-61.2,61.2-61.2s61.2,27.5,61.2,61.2
			C299.3,94.9,271.8,122.4,238.1,122.4z M238.1,11.7c-27.3,0-49.5,22.2-49.5,49.5c0,27.3,22.2,49.5,49.5,49.5s49.5-22.2,49.5-49.5
			C287.5,33.9,265.4,11.7,238.1,11.7z"/>
	</g>
	<g>
		<path d="M388.5,177.1c-33.7,0-61.2-27.5-61.2-61.2s27.5-61.2,61.2-61.2s61.2,27.5,61.2,61.2S422.2,177.1,388.5,177.1z M388.5,66.4
			c-27.3,0-49.5,22.2-49.5,49.5c0,27.3,22.2,49.5,49.5,49.5s49.5-22.2,49.5-49.5C437.9,88.6,415.7,66.4,388.5,66.4z"/>
	</g>
	<g>
		<path d="M284.9,282.6c-33.7,0-61.2-27.5-61.2-61.2c0-33.7,27.5-61.2,61.2-61.2s61.2,27.5,61.2,61.2
			C346.1,255.1,318.7,282.6,284.9,282.6z M284.9,171.9c-27.3,0-49.5,22.2-49.5,49.5s22.2,49.5,49.5,49.5s49.5-22.2,49.5-49.5
			S312.2,171.9,284.9,171.9z"/>
	</g>
	<g>
		<path d="M83.9,500H17.5V288.1h66.4V500z M33.2,484.4h35.2V303.7H33.2V484.4z"/>
	</g>
	<g>
		<path d="M294.9,482.6H70.3V316.9l1.3-1.6c25.1-31.2,105.4-36.1,143.2-8.8c12.4,8.9,28.9,10.5,41.9,11l55.6,1.9
			c8.2,0.1,16.4,2.9,23,7.9l1.5,1.2c9.1,6.9,14.7,17.4,15.4,28.8c0.6,10.7-3.1,21.1-10.3,28.9l5.9,0c0,0,0.1,0,0.1,0
			c6.4,0,12.6-2.7,16.9-7.5l46.9-52c15.8-16.3,35.3-21.3,52.3-13.3c12.1,5.8,19.7,17.4,18.5,28.4
			C475.4,400.9,366.8,482.6,294.9,482.6z M82,470.9h212.9c70.9,0,170-81,175.8-130.6c0.7-5.9-4.3-12.8-11.8-16.4
			c-12.1-5.7-26.6-1.7-38.7,10.8l-46.6,51.8c-6.6,7.3-16,11.4-25.7,11.4l-33.9-0.1c-0.3,0-0.6,0-0.9,0l-85.5-0.3l0.1-11.7L313,386
			c0,0,0,0,0,0l0.7,0c7.6,0,13.8-2.3,18.4-6.8c5.8-5.6,8.8-13.3,8.3-21.3c-0.5-8-4.4-15.3-10.8-20.1l-1.5-1.2
			c-4.6-3.5-10.4-5.5-16.2-5.5l-55.7-1.9c-14.7-0.5-33.4-2.4-48.3-13.2c-31.8-22.9-103.3-19.7-125.9,5.1V470.9z"/>
	</g>
</g>
</svg>
