<?xml version="1.0" encoding="utf-8"?>
<!-- Generator: Adobe Illustrator 19.0.1, SVG Export Plug-In . SVG Version: 6.00 Build 0)  -->
<svg version="1.1" id="Слой_1" xmlns="http://www.w3.org/2000/svg" xmlns:xlink="http://www.w3.org/1999/xlink" x="0px" y="0px"
	 viewBox="0 0 500 500" style="enable-background:new 0 0 500 500;" xml:space="preserve">
<style type="text/css">
	.st0{fill:#00B187;}
</style>
<g>
	<g>
		<path class="st0" d="M249.7,470.9c-12.5,0-24.5-5.4-32.9-14.7C175,409.3,73.6,295.5,36.3,251.2c-16-19-27.3-41-32.6-63.5
			c-2.4-10.2-3.6-20-3.6-29.1c0-43.7,12.7-77,37.7-99c22.6-19.8,54.7-29.8,95.6-29.8c52.8,0,85.5,30.8,104.9,49.2
			c3.9,3.7,9.1,8.6,12.2,10.8c3.1-2.3,8-6.9,11.8-10.5c19.8-18.7,52.9-50,105.4-50c38.8,0,71.8,12.2,95.6,35.3
			c24,23.3,36.7,55.8,36.7,94.1c0,11.1-1.9,23.2-5.6,36c-5.9,20.3-16.3,39.4-31,56.6c-36.8,43.4-138.8,157.8-180.9,205
			C274.2,465.5,262.2,470.9,249.7,470.9z M133.3,59.5c-33.4,0-59,7.5-76,22.4c-18.3,16-27.5,41.8-27.5,76.5c0,6.8,1,14.3,2.8,22.3
			c4.3,18,13.4,35.7,26.4,51.1c37.1,44,138.2,157.6,180,204.3c2.7,3.1,6.5,4.8,10.6,4.8c4.1,0,7.9-1.7,10.6-4.8
			c42.1-47.1,143.8-161.3,180.4-204.5c11.9-14,20.3-29.4,25.1-45.7c2.9-10.1,4.4-19.4,4.4-27.6c0-61.4-39.3-99.5-102.5-99.5
			c-40.6,0-66.2,24.2-84.9,41.9c-12,11.4-20.7,19.6-32.1,19.6c-11.8,0-21.1-8.8-32.9-19.9C199.4,83.3,174.3,59.5,133.3,59.5z"/>
	</g>
	<g>
		<path d="M249.8,361.6c-6.4,0-12.5-2.7-16.8-7.5c-21.4-24-73.3-82.2-92.4-104.9c-8.2-9.7-14-21-16.7-32.5
			c-1.2-5.2-1.9-10.3-1.9-14.9c0-22.4,6.5-39.4,19.3-50.7c11.5-10.1,28-15.3,48.9-15.3c27,0,43.7,15.7,53.7,25.2
			c2,1.9,4.6,4.4,6.3,5.5c1.6-1.2,4.1-3.6,6-5.4c10.1-9.6,27.1-25.6,53.9-25.6c19.8,0,36.8,6.2,49,18.1
			c12.3,11.9,18.8,28.6,18.8,48.1c0,5.7-1,11.9-2.9,18.4c-3,10.4-8.4,20.2-15.8,29c-18.8,22.2-71,80.8-92.6,104.9
			C262.4,358.8,256.3,361.6,249.8,361.6z M190.3,151.1c-17.1,0-30.2,3.9-38.9,11.5c-9.3,8.2-14.1,21.4-14.1,39.2
			c0,3.5,0.5,7.3,1.5,11.4c2.2,9.2,6.9,18.3,13.5,26.2c19,22.5,70.8,80.6,92.1,104.6c1.4,1.6,3.3,2.4,5.4,2.4c2.1,0,4-0.9,5.4-2.4
			c21.5-24.1,73.6-82.6,92.3-104.6c6.1-7.2,10.4-15,12.8-23.4c1.5-5.2,2.3-9.9,2.3-14.2c0-31.4-20.1-51-52.5-51
			c-20.8,0-33.9,12.4-43.5,21.4c-6.2,5.8-10.6,10-16.4,10c-6,0-10.8-4.5-16.8-10.2C224.1,163.2,211.2,151.1,190.3,151.1z"/>
	</g>
</g>
</svg>
