<?xml version="1.0" encoding="utf-8"?>
<!-- Generator: Adobe Illustrator 19.0.1, SVG Export Plug-In . SVG Version: 6.00 Build 0)  -->
<svg version="1.1" id="Слой_1" xmlns="http://www.w3.org/2000/svg" xmlns:xlink="http://www.w3.org/1999/xlink" x="0px" y="0px"
	 viewBox="-229 31 500 500" style="enable-background:new -229 31 500 500;" xml:space="preserve">
<style type="text/css">
	.st0{fill:#00AFD1;}
</style>
<g>
	<path class="st0" d="M20.7,501.9c-12.5,0-24.5-5.4-32.9-14.7c-41.8-46.9-143.2-160.7-180.5-205c-16-19-27.3-41-32.6-63.5
		c-2.4-10.2-3.6-20-3.6-29.1c0-43.7,12.7-77,37.7-99c22.6-19.8,54.7-29.8,95.6-29.8c52.8,0,85.5,30.8,104.9,49.2
		c3.9,3.7,9.1,8.6,12.2,10.8c3.1-2.3,8-6.9,11.8-10.5c19.8-18.7,52.9-50,105.4-50c38.8,0,71.8,12.2,95.6,35.3
		c24,23.3,36.7,55.8,36.7,94.1c0,11.1-1.9,23.2-5.6,36c-5.9,20.3-16.3,39.4-31,56.6c-36.8,43.4-138.8,157.8-180.9,205
		C45.2,496.5,33.2,501.9,20.7,501.9L20.7,501.9z M-95.7,90.5c-33.4,0-59,7.5-76,22.4c-18.3,16-27.5,41.8-27.5,76.5
		c0,6.8,1,14.3,2.8,22.3c4.3,18,13.4,35.7,26.4,51.1c37.1,44,138.2,157.6,180,204.3c2.7,3.1,6.5,4.8,10.6,4.8s7.9-1.7,10.6-4.8
		C73.2,420,175,305.8,211.6,262.6c11.9-14,20.3-29.4,25.1-45.7c2.9-10.1,4.4-19.4,4.4-27.6c0-61.4-39.3-99.6-102.5-99.6
		c-40.6,0-66.2,24.2-84.9,41.9c-12,11.4-20.7,19.6-32.1,19.6c-11.8,0-21.1-8.8-32.9-19.9C-29.6,114.3-54.7,90.5-95.7,90.5z"/>
</g>
</svg>
