<?xml version="1.0" encoding="utf-8"?>
<!-- Generator: Adobe Illustrator 19.0.1, SVG Export Plug-In . SVG Version: 6.00 Build 0)  -->
<svg version="1.1" id="Слой_1" xmlns="http://www.w3.org/2000/svg" xmlns:xlink="http://www.w3.org/1999/xlink" x="0px" y="0px"
	 viewBox="0 0 500 500" style="enable-background:new 0 0 500 500;" xml:space="preserve">
<g>
	<path d="M440.1,170.2c-1.5,1-2.5,1.7-3.6,2.5c-15,10.4-27.3,23.4-36.3,39.3c-11,19.4-15.2,40.2-13.4,62.4
		c1.1,13.5,4.3,26.4,10.1,38.7c8.9,18.6,22.3,33.1,39.4,44.5c4.4,3,9.1,5.6,13.9,7.8c0.8,0.4,1.6,0.8,2.3,1.1
		c0.6,1.4-0.1,2.5-0.4,3.6c-6.5,19.6-15.1,38.3-25.8,55.9c-9.4,15.3-19.6,30.1-31.3,43.8c-4.7,5.6-9.9,10.7-15.6,15.3
		c-7.3,5.8-15.3,10.3-24.5,12.6c-5.5,1.4-11,1.7-16.7,1.6c-8.7-0.2-17-2.2-25.1-5.4c-4.9-2-9.8-4.1-14.8-6.2
		c-7.6-3.2-15.3-5.8-23.5-7c-7.5-1.2-15-1.4-22.6-0.9c-11,0.8-21.5,3.7-31.7,7.9c-5.6,2.4-11.3,4.8-17,7c-8.1,3.1-16.4,5-25.1,5.3
		c-7.8,0.2-15.2-1.4-22.3-4.7c-7.3-3.4-13.7-8-19.6-13.4c-6.3-5.7-12-11.9-17.3-18.6c-14.9-19-28.6-38.7-39.3-60.5
		c-13.2-27-22.8-55.3-28.2-84.9c-3.7-19.9-5.2-40-4-60.3c1.4-23.9,6.7-46.9,17.9-68.2c13.2-25.1,32.4-44.2,58.1-56.3
		c17.4-8.2,35.7-12,55-10.8c8.2,0.5,16.2,2.5,24,5.2c8.3,2.9,16.5,6.3,24.8,9.3c5.2,1.9,10.5,3.8,15.9,5.4c6.6,2,13.4,2.1,20-0.1
		c5.8-1.9,11.6-3.9,17.3-6.1c9.2-3.5,18.4-7.3,27.9-10.2c7.4-2.2,14.8-4,22.5-4.8c6.6-0.8,13.3-0.6,19.9-0.1
		c14.9,1.1,29.3,4.5,42.9,10.7c17.6,8,32.1,19.7,43.5,35.2C438.5,167.8,439.2,168.9,440.1,170.2z"/>
	<path d="M349.5-0.1c0.9,5.3,0.9,10.1,0.6,14.9c-1.6,24-10.6,45.2-25.6,63.9c-11.9,14.9-26.8,25.7-44.8,32.2
		c-8.5,3.1-17.3,4.7-26.4,4.4c-0.8,0-1.6-0.1-2.3-0.1c-0.2,0-0.5-0.2-0.9-0.4c-0.1-0.7-0.4-1.6-0.5-2.5c-1.2-13.9,1.2-27.3,6.3-40.1
		c13.8-35,38.9-57.8,74.7-69c5.5-1.7,11.1-2.7,16.8-3.2C348-0.1,348.6-0.1,349.5-0.1z"/>
</g>
</svg>
