<?xml version="1.0" encoding="utf-8"?>
<!-- Generator: Adobe Illustrator 19.0.1, SVG Export Plug-In . SVG Version: 6.00 Build 0)  -->
<svg version="1.1" id="Слой_1" xmlns="http://www.w3.org/2000/svg" xmlns:xlink="http://www.w3.org/1999/xlink" x="0px" y="0px"
	 viewBox="0 0 500 500" style="enable-background:new 0 0 500 500;" xml:space="preserve">
<g>
	<path d="M249.9,495.9c-62.9,0-125.8-0.2-188.7,0.1c-25.2,0.1-50.1-17.4-55.8-44.9c-0.9-4.5-1.2-9.1-1.3-13.7
		C4,338.8,4,240.2,4,141.5c0-26.9,0-53.8,0-80.7C4.1,34.7,21.4,12.3,46.6,5.9c5.2-1.3,10.6-1.8,16-1.9C165.7,4,268.8,4,372,4
		c22.3,0,44.6,0,66.9,0c27.4,0.1,50.2,18.5,55.9,45.3c0.7,3.5,1.2,7.1,1.2,10.7c0.1,126.7,0.1,253.4,0,380.1
		c0,27-20.4,50.8-47.1,55.1c-3.4,0.5-6.9,0.8-10.3,0.8C375.7,495.9,312.8,495.9,249.9,495.9z M60.8,212.4c0,2,0,3.6,0,5.3
		c0,66.4,0,132.7,0,199.1c0,1.4,0,2.8,0,4.2c0.3,8.6,6.1,15.8,14.4,17.7c2.3,0.5,4.8,0.5,7.3,0.5c111.6,0,223.1,0,334.7,0
		c1.4,0,2.8,0,4.2-0.1c7.9-0.4,14.8-5.7,16.9-13.4c0.6-2.3,0.8-4.8,0.8-7.2c0-40,0-79.9,0-119.9c0-27.3,0-54.6,0-81.9
		c0-1.5-0.1-2.9-0.1-4.3c-14.4,0-28.3,0-42.6,0c8.1,32.2,6.2,63.6-6.1,94.1c-12.3,30.5-32.6,54.5-60.5,72
		c-48.2,30.1-110,30.5-158.3,0.9c-24.7-15.1-43.7-35.4-56.7-61.2c-16.9-33.7-20.6-69.1-11.4-105.9C89.2,212.4,75.3,212.4,60.8,212.4
		z M249.9,344.6c52.2,0,94.6-42.1,94.7-94.1c0.1-52.6-42.1-95.1-94.5-95.1c-52.3,0-94.6,42.3-94.6,94.5
		C155.4,302.4,197.5,344.5,249.9,344.6z M439.2,108.4c0-9.1,0-18.2,0-27.3c0-0.1,0-0.3,0-0.4c0.6-10.9-8.2-20.1-20.1-20
		c-18.2,0.2-36.4,0-54.5,0.1c-12,0-20,8-20,20c0,18.2,0.2,36.4-0.1,54.5c-0.2,11.5,9.1,20.3,20,20.2c18.3-0.3,36.6-0.3,54.9,0
		c12,0.2,20.2-9.7,19.9-19.8C439,126.6,439.2,117.5,439.2,108.4z"/>
</g>
</svg>
