<?xml version="1.0" encoding="utf-8"?>
<!-- Generator: Adobe Illustrator 19.0.1, SVG Export Plug-In . SVG Version: 6.00 Build 0)  -->
<svg version="1.1" id="Слой_1" xmlns="http://www.w3.org/2000/svg" xmlns:xlink="http://www.w3.org/1999/xlink" x="0px" y="0px"
	 viewBox="-229 31 500 500" style="enable-background:new -229 31 500 500;" xml:space="preserve">
<g>
	<path d="M20.9,530.9c-63.9,0-127.8-0.2-191.7,0.1c-25.6,0.1-50.9-17.7-56.7-45.6c-1-4.5-1.3-9.3-1.3-13.9
		c-0.2-100.3-0.1-200.5-0.1-300.7c0-27.3,0-54.7,0-82c0-26.5,17.6-49.4,43.3-55.8c5.2-1.3,10.8-1.9,16.2-1.9
		C-64.6,31,40.1,31,144.9,31c22.6,0,45.3,0,67.9,0c27.8,0.1,51,18.8,56.8,46c0.8,3.5,1.2,7.2,1.2,10.8c0.1,128.7,0.1,257.5,0,386.2
		c0,27.4-20.7,51.6-47.9,56c-3.4,0.6-7,0.8-10.5,0.8C148.7,530.9,84.8,530.9,20.9,530.9z M-171.2,242.8c0,2,0,3.7,0,5.4
		c0,67.4,0,134.9,0,202.3c0,1.4,0,2.9,0,4.3c0.3,8.7,6.2,16.1,14.6,18c2.4,0.5,4.9,0.5,7.4,0.5c113.4,0,226.7,0,340.1,0
		c1.4,0,2.9,0,4.3-0.1c8.1-0.4,15-5.8,17.2-13.6c0.6-2.3,0.8-4.9,0.8-7.3c0-40.6,0-81.2,0-121.8c0-27.7,0-55.5,0-83.2
		c0-1.5-0.1-3-0.1-4.4c-14.7,0-28.8,0-43.2,0c8.3,32.8,6.3,64.6-6.2,95.6s-33.1,55.4-61.5,73.2c-48.9,30.6-111.8,31-160.9,1
		c-25-15.3-44.4-36-57.6-62.2c-17.2-34.3-20.9-70.2-11.6-107.6C-142.4,242.8-156.5,242.8-171.2,242.8z M20.9,377.1
		c53,0,96.1-42.7,96.2-95.6c0.1-53.4-42.8-96.6-96-96.6c-53.1,0-96.1,42.9-96.2,96.1C-75.1,334.2-32.3,377.1,20.9,377.1z
		 M213.3,137.1c0-9.2,0-18.5,0-27.7c0-0.1,0-0.3,0-0.4c0.6-11-8.3-20.5-20.4-20.3c-18.5,0.2-36.9,0-55.4,0.1
		c-12.2,0-20.3,8.1-20.3,20.3c0,18.5,0.2,36.9-0.1,55.4c-0.2,11.7,9.2,20.7,20.3,20.5c18.6-0.3,37.2-0.3,55.8,0
		c12.2,0.2,20.5-9.8,20.2-20.2C213,155.6,213.3,146.3,213.3,137.1z"/>
</g>
</svg>
