<?xml version="1.0" encoding="utf-8"?>
<!-- Generator: Adobe Illustrator 19.0.1, SVG Export Plug-In . SVG Version: 6.00 Build 0)  -->
<svg version="1.1" id="Слой_1" xmlns="http://www.w3.org/2000/svg" xmlns:xlink="http://www.w3.org/1999/xlink" x="0px" y="0px"
	 viewBox="-229 31 500 500" style="enable-background:new -229 31 500 500;" xml:space="preserve">
<style type="text/css">
	.st0{fill:#00B187;}
</style>
<g>
	<path class="st0" d="M271,83c0-28.7-23.3-52-52-52h-396c-28.7,0-52,23.3-52,52v396c0,28.7,23.3,52,52,52h396c28.7,0,52-23.3,52-52
		V83z M-189,82.9c0-6.6,5.3-11.9,11.9-11.9H219c6.6,0,11.9,5.3,11.9,11.9v389.6L80.4,230.1c-2.7-4.3-7.2-6.9-12.2-7.1
		c-5-0.2-9.8,2.2-12.7,6.3L-33.6,354l-33.3-30.4c-3.3-3-7.6-4.4-12-3.8s-8.3,3-10.7,6.7l-99.4,153c0-0.1,0-0.3,0-0.4V82.9z
		 M219.1,491h-391.8L-76,342.3l37.3,34.1c2.1,1.9,4.9,2.9,7.8,2.6c2.8-0.3,5.4-1.8,7.1-4.1L67.4,247L219.1,491z"/>
	<g>
		<path class="st0" d="M-107.4,196.1c-20.2,0-36.6-16.4-36.6-36.6s16.4-36.5,36.6-36.5s36.6,16.4,36.6,36.6S-87.3,196.1-107.4,196.1
			z M-107.4,143c-9.1,0-16.6,7.4-16.6,16.6c0,9.1,7.4,16.6,16.6,16.6s16.6-7.4,16.6-16.6C-90.9,150.4-98.3,143-107.4,143z"/>
	</g>
</g>
</svg>
