<?xml version="1.0" encoding="utf-8"?>
<!-- Generator: Adobe Illustrator 19.0.1, SVG Export Plug-In . SVG Version: 6.00 Build 0)  -->
<svg version="1.1" id="Слой_1" xmlns="http://www.w3.org/2000/svg" xmlns:xlink="http://www.w3.org/1999/xlink" x="0px" y="0px"
	 viewBox="-229 31 500 500" style="enable-background:new -229 31 500 500;" xml:space="preserve">
<style type="text/css">
	.st0{fill:#00B187;}
</style>
<g>
	<g>
		<path class="st0" d="M-54.7,478.5c-3.8,0-7.7-1-11.2-3c-6.9-4-11.2-11.3-11.2-19.2V105.7c0-7.9,4.3-15.3,11.2-19.2
			c6.9-4,15.4-4,22.2,0L260,261.8c6.9,4,11.1,11.3,11.1,19.2s-4.2,15.3-11.1,19.2L-43.6,475.5C-47,477.5-50.9,478.5-54.7,478.5z
			 M-32,144.2v273.7L205,281L-32,144.2z"/>
	</g>
	<g>
		<path class="st0" d="M-206.7,478.5c-3.8,0-7.7-1-11.1-3c-6.9-4-11.2-11.3-11.2-19.2V105.7c0-7.9,4.3-15.3,11.1-19.2
			c6.9-4,15.7-4,22.5,0L-94,144.8v51.3l-90-51.9v273.7l90-51.9v51.3l-101.3,58.2C-198.7,477.5-202.9,478.5-206.7,478.5z"/>
	</g>
</g>
</svg>
