<?xml version="1.0" encoding="utf-8"?>
<!-- Generator: Adobe Illustrator 19.0.1, SVG Export Plug-In . SVG Version: 6.00 Build 0)  -->
<svg version="1.1"
	 id="Layer_1" xmlns:rdf="http://www.w3.org/1999/02/22-rdf-syntax-ns#" xmlns:sodipodi="http://sodipodi.sourceforge.net/DTD/sodipodi-0.dtd" xmlns:svg="http://www.w3.org/2000/svg" xmlns:inkscape="http://www.inkscape.org/namespaces/inkscape" xmlns:dc="http://purl.org/dc/elements/1.1/" xmlns:cc="http://creativecommons.org/ns#"
	 xmlns="http://www.w3.org/2000/svg" xmlns:xlink="http://www.w3.org/1999/xlink" x="0px" y="0px" viewBox="6 -6 512 512"
	 style="enable-background:new 6 -6 512 512;" xml:space="preserve">
<g id="g11" transform="matrix(1.3463089,0,0,1.3463089,-87.877922,-71.308561)">
	<path id="path13-6" d="M290.4,232.3l54.6-54.7L118.5,52.2c-3.2-1.8-6.3-3-9.3-3.7L290.4,232.3z"/>
	<path id="path15" d="M352.9,295.6l68.4-37.9c18.8-10.4,18.8-27.5,0-37.9L354.9,183l-56.8,57L352.9,295.6L352.9,295.6z"/>
	<path id="path17-8" d="M95.2,49.9c-6.7,3.4-10.9,11.3-10.9,22.5v332.7c0,11.4,4.3,19.2,11.1,22.6L282.7,240L95.2,49.9z"/>
	<path id="path19-3" d="M290.4,247.8L109.7,428.9c2.8-0.7,5.8-1.9,8.8-3.6L343,301.1L290.4,247.8L290.4,247.8z"/>
</g>
</svg>
