<?xml version="1.0" encoding="utf-8"?>
<!-- Generator: Adobe Illustrator 19.0.1, SVG Export Plug-In . SVG Version: 6.00 Build 0)  -->
<svg version="1.1" id="Слой_1" xmlns="http://www.w3.org/2000/svg" xmlns:xlink="http://www.w3.org/1999/xlink" x="0px" y="0px"
	 viewBox="0 0 500 500" style="enable-background:new 0 0 500 500;" xml:space="preserve">
<path d="M479.4,84H383V29.6C383,17.8,373.8,9,361.9,9H136.1C124.3,9,115,17.8,115,29.6V84H20.2C8.4,84-1,93.4-1,105.3v364.2
	c0,11.9,9.4,22.5,21.2,22.5h459.2c11.9,0,21.6-10.6,21.6-22.5V105.3C501,93.4,491.3,84,479.4,84z M152,46h194v38H152V46z M464,121
	v217H36V121H464z M36,455v-80h79v52.5c0,3.3,2.3,6.5,5.6,6.5h25c3.3,0,6.4-3.2,6.4-6.5V375h194v52.5c0,3.3,3.1,6.5,6.4,6.5h25
	c3.3,0,5.6-3.2,5.6-6.5V375h81v80H36z"/>
</svg>
