<?xml version="1.0" encoding="utf-8"?>
<!-- Generator: Adobe Illustrator 19.0.1, SVG Export Plug-In . SVG Version: 6.00 Build 0)  -->
<svg version="1.1"
	 id="Layer_1" xmlns:cc="http://creativecommons.org/ns#" xmlns:svg="http://www.w3.org/2000/svg" xmlns:dc="http://purl.org/dc/elements/1.1/" xmlns:rdf="http://www.w3.org/1999/02/22-rdf-syntax-ns#" xmlns:sodipodi="http://sodipodi.sourceforge.net/DTD/sodipodi-0.dtd" xmlns:inkscape="http://www.inkscape.org/namespaces/inkscape"
	 xmlns="http://www.w3.org/2000/svg" xmlns:xlink="http://www.w3.org/1999/xlink" x="0px" y="0px" viewBox="-3 -196 512 512"
	 style="enable-background:new -3 -196 512 512;" xml:space="preserve">
<style type="text/css">
	.st0{fill:#616161;}
</style>
<g id="g11" transform="matrix(1.3463089,0,0,1.3463089,-87.877922,-71.308561)">
	<path id="path13-6" class="st0" d="M283.7,91.1l54.6-54.7L111.8-89c-3.2-1.8-6.3-3-9.3-3.7L283.7,91.1z"/>
	<path id="path15" class="st0" d="M346.2,154.4l68.4-37.9c18.8-10.4,18.8-27.5,0-37.9l-66.4-36.8l-56.8,57L346.2,154.4L346.2,154.4z
		"/>
	<path id="path17-8" class="st0" d="M88.5-91.3C81.8-87.9,77.6-80,77.6-68.8v332.7c0,11.4,4.3,19.2,11.1,22.6L276,98.8L88.5-91.3z"
		/>
	<path id="path19-3" class="st0" d="M283.7,106.6L103,287.7c2.8-0.7,5.8-1.9,8.8-3.6l224.5-124.2L283.7,106.6L283.7,106.6z"/>
</g>
</svg>
