<?xml version="1.0" encoding="utf-8"?>
<!-- Generator: Adobe Illustrator 19.0.1, SVG Export Plug-In . SVG Version: 6.00 Build 0)  -->
<svg version="1.1" id="Слой_1" xmlns="http://www.w3.org/2000/svg" xmlns:xlink="http://www.w3.org/1999/xlink" x="0px" y="0px"
	 viewBox="-229 31 500 500" style="enable-background:new -229 31 500 500;" xml:space="preserve">
<style type="text/css">
	.st0{fill:#616161;}
</style>
<g>
	<path class="st0" d="M162.1,332.3c-45.1,0-89.1,0-134.1,0c0-31.5,0-61.8,0-93.2c77.2,0,154.9,0,233.6,0c5.8,22.7,5.4,46.2,3.3,69.7
		c-4.7,52.3-21.5,100.1-54.7,141.5c-32.7,40.9-75.3,65.7-126.5,75.1c-106.3,19.5-194.6-11-260.4-98.1
		c-84.7-111.8-52.2-281.7,66.8-356.1c95.5-59.7,213.5-52.3,297,18.7c1.8,1.6,3.5,3.2,4,3.7c-22.9,22.9-45.7,45.8-69.5,69.6
		C78.8,130,28.8,119-26,138.7c-41.5,14.9-70.9,43.3-88.1,83.8c-34.7,81.8,8.6,176,93.1,203.5C57.9,451.5,144.6,408.1,162.1,332.3z"
		/>
</g>
</svg>
