<?xml version="1.0" encoding="utf-8"?>
<!-- Generator: Adobe Illustrator 19.0.1, SVG Export Plug-In . SVG Version: 6.00 Build 0)  -->
<svg version="1.1" id="Слой_1" xmlns="http://www.w3.org/2000/svg" xmlns:xlink="http://www.w3.org/1999/xlink" x="0px" y="0px"
	 viewBox="0 0 500 500" style="enable-background:new 0 0 500 500;" xml:space="preserve">
<style type="text/css">
	.st0{fill:#00AFD1;}
</style>
<path class="st0" d="M209,434.2l21.2-21.2l-82.8-82.8l96.9-96.9c54.6,42.5,135.5,35.5,181.4-21C465,163.7,464,92.9,423.2,45.5
	c-50-58.1-138-60.5-191.2-7.4c-47.5,47.5-50.6,122.9-9.2,174.1L50.1,384.9c-6.1,6.1-6.1,15.9,0,22l93,93l21.2-21.2l-82.8-82.8
	l44.6-44.6L209,434.2z M253.3,59.4c39.1-39.1,102.8-39.1,141.9,0c39.1,39.1,39.1,102.8,0,141.9c-39.1,39.1-102.8,39.1-141.9,0
	C214.1,162.1,214.1,98.5,253.3,59.4z"/>
</svg>
