<?xml version="1.0" encoding="utf-8"?>
<!-- Generator: Adobe Illustrator 19.0.1, SVG Export Plug-In . SVG Version: 6.00 Build 0)  -->
<svg version="1.1" id="Слой_1" xmlns="http://www.w3.org/2000/svg" xmlns:xlink="http://www.w3.org/1999/xlink" x="0px" y="0px"
	 viewBox="0 0 1000 160" style="enable-background:new 0 0 1000 160;" xml:space="preserve">
<style type="text/css">
	.st0{fill:#FFFFFF;}
</style>
<g>
	<g>
		<line class="st0" x1="477" y1="12" x2="477" y2="147"/>
		<path class="st0" d="M476,160c-6.5,0-12-5.3-12-11.8V12.5c0-6.5,5.5-11.8,12-11.8s12,5.3,12,11.8v135.7
			C488,154.7,482.5,160,476,160z"/>
	</g>
	<g>
		<path class="st0" d="M148.5,160c-6.5,0-11.8-5.3-11.8-11.8s5.3-11.8,11.8-11.8c55.5,0,87-2.5,87-53.7c0-55.7-31.4-58.4-87-58.4
			c-6.5,0-11.8-5.3-11.8-11.8S142,0.7,148.5,0.7c25.6,0,52,0,73,9.9c25.3,12,37.6,35.6,37.6,72.1c0,34.1-12.7,57-37.9,68.1
			C200.4,160,174,160,148.5,160z"/>
	</g>
	<path class="st0" d="M128.7,143.9L76,8.2c-1.8-4.7-6.4-7.6-11.2-7.5C60,0.6,55.4,3.5,53.6,8.2L0.8,143.9
		c-2.4,6.1,0.6,12.9,6.7,15.3c1.4,0.5,2.9,0.8,4.3,0.8c4.7,0,9.2-2.9,11-7.5l42-107.9l42,107.9c1.8,4.7,6.3,7.5,11,7.5
		c1.4,0,2.9-0.3,4.3-0.8C128.1,156.8,131.1,150,128.7,143.9z"/>
	<path class="st0" d="M450.4,1.5c-6.1-2.4-12.9,0.6-15.3,6.7l-42,107.9l-24.7-63.5l14-35.9c2.4-6.1-0.6-12.9-6.7-15.3
		c-6.1-2.4-12.9,0.6-15.3,6.7l-4.6,11.9l-4.6-11.9c-2.4-6.1-9.2-9.1-15.3-6.7c-6.1,2.4-9.1,9.2-6.7,15.3l14,35.9l-24.7,63.5
		l-42-107.9c-2.4-6.1-9.2-9.1-15.3-6.7c-6.1,2.4-9.1,9.2-6.7,15.3l52.8,135.7c1.7,4.4,5.8,7.2,10.3,7.5c0,0,0.1,0,0.1,0
		c0.2,0,0.4,0,0.6,0c0.1,0,0.1,0,0.2,0c0.1,0,0.1,0,0.2,0c0.2,0,0.4,0,0.6,0c0,0,0.1,0,0.1,0c4.5-0.3,8.6-3,10.3-7.5l26.1-67.2
		l26.1,67.2c1.7,4.4,5.8,7.2,10.3,7.5c0,0,0.1,0,0.1,0c0.2,0,0.4,0,0.6,0c0.1,0,0.1,0,0.2,0c0.1,0,0.1,0,0.2,0c0.2,0,0.4,0,0.6,0
		c0,0,0.1,0,0.1,0c4.5-0.3,8.6-3,10.3-7.5l52.8-135.7C459.5,10.7,456.4,3.9,450.4,1.5z"/>
	<path class="st0" d="M592.1,0h-83.8c-6.5,0-11.8,5-11.8,11.5S501.8,23,508.3,23H538v125.2c0,6.5,5.5,11.8,12,11.8s12-5.3,12-11.8
		V23h30.1c6.5,0,11.8-5,11.8-11.5S598.6,0,592.1,0z"/>
	<path class="st0" d="M988.2,136.1c-52.1,0-83-2.1-86.6-45.1h62.2c6.5,0,11.8-6,11.8-12.5S970.3,66,963.8,66h-61.6
		c5.4-40,35.9-42.7,86.1-42.7c6.5,0,11.8-4.8,11.8-11.3s-5.3-11.6-11.8-11.6c-25.6,0-52,0.1-73,10c-25.3,12-37.6,35.6-37.6,72.2
		c0,34.1,12.7,57,37.9,68.1c20.8,9.2,47.2,9.2,72.7,9.2c6.5,0,11.8-5.4,11.8-11.9S994.7,136.1,988.2,136.1z"/>
	<path class="st0" d="M710.5,0.7C704,0.7,699,6,699,12.5V66h-66V12.5c0-6.5-5-11.8-11.5-11.8S610,6,610,12.5v135.7
		c0,6.5,5,11.8,11.5,11.8s11.5-5.3,11.5-11.8V91h66v57.2c0,6.5,5,11.8,11.5,11.8s11.5-5.3,11.5-11.8V12.5C722,6,717,0.7,710.5,0.7z"
		/>
	<path class="st0" d="M859.2,2.8C853.8-0.8,846.6,0.6,843,6l-42.5,63.4L757.9,6c-3.6-5.4-11.1-6.8-16.5-3.2
		c-4.7,3.2-4.4,8.3-4.4,14.3v131.1c0,6.5,5.5,11.8,12,11.8s12-5.3,12-11.8V52.7l29.2,43.6c2.3,3.4,6,5.2,9.8,5.2c0.2,0,0.4,0,0.6,0
		c0.2,0,0.4,0,0.6,0c3.8,0,7.5-1.8,9.8-5.2l30-44.8v96.8c0,6.5,5,11.8,11.5,11.8s11.5-5.3,11.5-11.8V16C864,9.3,863.1,5.5,859.2,2.8
		z"/>
</g>
</svg>
