<?xml version="1.0" encoding="utf-8"?>
<!-- Generator: Adobe Illustrator 19.0.1, SVG Export Plug-In . SVG Version: 6.00 Build 0)  -->
<svg version="1.1" id="Слой_1" xmlns="http://www.w3.org/2000/svg" xmlns:xlink="http://www.w3.org/1999/xlink" x="0px" y="0px"
	 viewBox="0 0 500 500" style="enable-background:new 0 0 500 500;" xml:space="preserve">
<style type="text/css">
	.st0{fill:#FFFFFF;}
	.st1{fill:#00A783;}
</style>
<g>
	<g>
		<path class="st0" d="M21,313.3l38.4-38.4c2.1-2.1,4.8-3.1,7.4-3c2.7,0,5.4,1,7.4,3l38.4,38.4c4.1,4.1,4.1,10.6,0,14.7
			c-2,2-4.7,3-7.3,3c-2.7,0-5.3-1-7.3-3l-17.2-17.2c16.2,71.2,73.5,126.5,147.3,138.9c5.7,0.9,9.5,6.3,8.5,12
			c-0.9,5.1-5.2,8.7-10.2,8.7c-0.6,0-1.1,0-1.7-0.1c-44.2-7.4-85.3-29.8-115.8-62.9C82.2,378.3,65,343.4,58.3,305.3L35.6,328
			c-2,2-4.7,3-7.3,3s-5.3-1-7.3-3C16.9,323.9,16.9,317.3,21,313.3z"/>
		<path class="st1" d="M415.7,245.2c0,0-0.1,0-0.1,0c0,0-0.1,0-0.1,0c-2.7,0-5.3-1-7.3-3l-38.4-38.4c-4.1-4.1-4.1-10.6,0-14.7
			c4.1-4.1,10.6-4.1,14.7,0l15.9,15.9c-16.4-70.8-73.5-125.8-147-138.2c-5.7-1-9.5-6.3-8.5-12c1-5.7,6.3-9.5,12-8.5
			c44.1,7.4,85.2,29.8,115.7,63c26.9,29.3,44.1,64.7,50.6,103.5l23.6-23.6c4.1-4.1,10.6-4.1,14.7,0c4.1,4.1,4.1,10.6,0,14.7
			L423,242.1C421,244.2,418.4,245.2,415.7,245.2z"/>
	</g>
	<path class="st1" d="M426.2,376.5c12.5-12.5,20.2-29.7,20.2-48.7c0-38-30.9-68.9-68.9-68.9s-68.9,30.9-68.9,68.9
		c0,19.7,8.2,37.4,21.5,50c-41.3,19.1-69,61-69,107.5V500h237v-14.7C498,437.2,469.2,394.9,426.2,376.5z M326.2,327.8
		c0-28.3,23-51.3,51.3-51.3s51.3,23,51.3,51.3c0,28.3-23,51.3-51.3,51.3S326.2,356.1,326.2,327.8z M278.8,482
		c1.4-42,29-78.9,68.6-92.2c9.1,4.4,19.3,6.9,30,6.9c11.4,0,22.1-2.8,31.6-7.7c41.1,12.5,69.7,50,71.1,93H278.8z"/>
	<path class="st0" d="M167.3,117.6c12.5-12.5,20.2-29.7,20.2-48.7c0-38-30.9-68.9-68.9-68.9S49.6,30.9,49.6,68.9
		c0,19.7,8.2,37.4,21.4,50c-41.3,19.1-69,61-69,107.5V241h237v-14.6C239,178.3,210.3,136,167.3,117.6z M67.3,68.9
		c0-28.3,23-51.3,51.3-51.3s51.3,23,51.3,51.3s-23,51.3-51.3,51.3S67.3,97.2,67.3,68.9z M19.9,224c1.4-43,29-79.3,68.6-92.6
		c9.1,4.4,19.3,6.7,30,6.7c11.4,0,22.1-2.5,31.6-7.4c41.1,12.5,69.7,49.3,71.1,93.3H19.9z"/>
</g>
</svg>
