<?xml version="1.0" encoding="utf-8"?>
<!-- Generator: Adobe Illustrator 19.0.1, SVG Export Plug-In . SVG Version: 6.00 Build 0)  -->
<svg version="1.1" id="Слой_1" xmlns="http://www.w3.org/2000/svg" xmlns:xlink="http://www.w3.org/1999/xlink" x="0px" y="0px"
	 viewBox="0 0 500 500" style="enable-background:new 0 0 500 500;" xml:space="preserve">
<style type="text/css">
	.st0{fill:none;stroke:#00AFD1;stroke-width:9;stroke-miterlimit:10;}
	.st1{fill:#00AFD1;}
</style>
<g>
	<path class="st0" d="M4716.3,1769.1"/>
</g>
<g>
	<path class="st1" d="M475.4,119.7L98.8,30.5c-9.5-2.2-19.2-0.1-26.8,6C64.3,42.5,60,51.5,60,61.3V124H32.1
		C14.7,124,0,140.2,0,157.7v281.1C0,456.3,14.7,470,32.1,470h435.7c17.4,0,32.1-13.7,32.1-31.2V172.2v-14.6v-7.2
		C500,135.8,489.7,123.1,475.4,119.7z M93,63.2L358.2,124H93V63.2z M467,437H33V157h434v15.2V437z"/>
	<circle cx="94.9" cy="298.3" r="35.9"/>
</g>
</svg>
