<?xml version="1.0" encoding="utf-8"?>
<!-- Generator: Adobe Illustrator 19.0.1, SVG Export Plug-In . SVG Version: 6.00 Build 0)  -->
<svg version="1.1" id="Слой_1" xmlns="http://www.w3.org/2000/svg" xmlns:xlink="http://www.w3.org/1999/xlink" x="0px" y="0px"
	 viewBox="0 0 500 500" style="enable-background:new 0 0 500 500;" xml:space="preserve">
<style type="text/css">
	.st0{fill:#FFFFFF;}
	.st1{fill:#00B187;}
</style>
<g>
	<g>
		<path class="st0" d="M162.7,425.8c12.1,5.2,24.8,9.3,37.6,12.3l4.7-20.3c-11.6-2.7-23.1-6.4-34.1-11.1L162.7,425.8z"/>
		<path class="st0" d="M407.4,65.5C365.9,23.7,310.6,0.4,251.6,0c-0.1,0-0.2,0-0.4,0c-0.1,0-0.3,0-0.4,0L250,0
			C127.7,0,28.2,99.5,28.2,221.8c0,72.5,35.5,140.5,95,182l11.9-17.1c-11.8-8.2-22.5-17.5-32-27.8c17.2-12.5,33.7-22.8,49.7-31.1
			c1.5,3.5,3,6.9,4.7,10.3l18.8-9c-1.6-3.4-3.2-6.8-4.6-10.3c6.6-2.8,13-5.3,19.5-7.4l-6.6-19.8c-6.7,2.2-13.5,4.4-20.3,7.3
			c-7.1-21.4-11.1-43-12.1-67H211v-21h-58.9c0.9-22,5.6-45,12.6-66.5c26.1,11.1,50.3,17.8,77.3,19.1V180h21v-16.5
			c25-1.5,49.8-8.3,75.6-19.5c7.1,21.6,10.8,45,11.7,67H293v21h57.3c-1,24-5.1,45.9-12.2,67.5c-4.4-1.9-8.7-3.5-13.1-5.1l-7.3,19.6
			c4.3,1.6,8.6,3.4,12.9,5.3c-0.8,1.8-1.5,3.6-2.3,5.3l19,8.7c0.7-1.6,1.4-3.2,2.1-4.9c15.4,8.2,31.2,18.2,47.7,30.4
			c-8.2,8.8-17.3,16.9-27.2,24.2l12.5,16.7c27.2-20.2,49.7-46.8,65.1-76.8c16.2-31.5,24.4-65.6,24.4-101.2
			C471.8,162.9,449,107.4,407.4,65.5z M397.2,85.4c-16.4,12.1-32.3,22.2-47.8,30.5c-15-34.7-37.1-66.2-65.4-92.1
			C328.4,31.4,367.8,53.7,397.2,85.4z M218.9,23.3c-28.7,26.2-51.2,58.1-66.3,93.3c-16.2-8.4-32.8-18.8-49.9-31.3
			C132.8,52.9,173.3,30.4,218.9,23.3z M145.2,307.9c-17.9,9.1-36.3,20.4-55.6,34.4C65.8,310.7,51.5,272,49.3,232h81.9
			C132.3,258,136.9,283.6,145.2,307.9z M131.2,211h-82c2-40,16.6-79.1,40-110.2c19.1,13.9,37.7,25.3,55.9,34.6
			C137,159.6,132.2,186,131.2,211z M172.5,125.5c15.3-36,38.5-68.3,69.5-93.8v111C218,141.4,196.2,135.7,172.5,125.5z M263,142.6
			V32.1c29,25.3,53.6,57.3,68.8,92.9C308.4,135.2,285,141.1,263,142.6z M357,134.9c17.5-9.1,35.4-20.7,53.7-34.3
			c23.5,31.2,38.1,70.4,40.1,110.4h-79.6C370.2,186,365.3,159.4,357,134.9z M410.5,342.5c-18.5-13.7-36.3-25.1-53.6-34.2
			c8.4-24.5,13.2-50.4,14.2-76.4h79.5C448.5,274,434.5,311,410.5,342.5z"/>
		<path class="st0" d="M302.3,416l5.4,20.1c11.7-3.1,23.2-7.3,34.2-12.3l-8.6-19C323.3,409.4,312.8,413.1,302.3,416z"/>
	</g>
	<path class="st1" d="M401.3,416.7l-80.4-131.9c-0.3-0.4-0.5-0.9-0.8-1.3c-3.6-5.6-9.9-8.8-16.5-8.8h-45.4
		c25.5-4.2,45.2-25.8,44.9-52.3c-0.4-26.5-21-48.8-47.4-51c-30.5-2.5-56.2,21.8-56.2,51.8c0,26.2,19.6,47.3,44.9,51.5h-44.2h0h0
		c-3,0-5.9,1.1-8.3,3c-2.5,2.1-4.7,4.4-6.5,7.3l-80,131.8c-5.2,8.6-6,19.1-2,28.7c1.5,3.5,3.6,6.6,6.3,9.3
		c6.4,6.5,14.5,9.4,22.4,9.4c10.6,0,20.6-5.4,26.5-15.1l33.3-55.5V500h122.4V393.7l33.6,55.4c5.9,9.7,16.2,15,26.8,15
		c6.7,0,13.5-2.2,19.4-6.8c4.4-3.5,7.8-8.1,9.8-13.3C407.3,434.9,406.3,425,401.3,416.7z M220.3,222.9c0-17.1,13.9-30.9,30.9-30.9
		s30.9,13.9,30.9,30.9s-13.9,30.9-30.9,30.9S220.3,240,220.3,222.9z M384.3,436.8c-0.5,1.2-1.2,2.4-2.2,3.4c-5,5.1-13,3.8-16.5-1.8
		l-51.8-86.1c-1.9-3.2-5.4-5.2-9.2-5.2l0,0c-5.9,0-10.7,4.8-10.7,10.7v121.4h-81.3l0-119.9c0-6-4.8-10.8-10.8-10.8h0
		c-3.8,0-7.3,2-9.2,5.2l-51.9,84.8c-3,4.9-9.2,6.5-14.2,3.5c-2.4-1.4-4-3.7-4.6-6.4s-0.2-5.5,1.3-7.9l80.1-131.7
		c0.1-0.2,0.3-0.3,0.4-0.3h99.5c0.1,0,0.3,0.1,0.4,0.3l80,131.8C385.2,430.5,385.5,433.7,384.3,436.8z"/>
</g>
</svg>
