<?xml version="1.0" encoding="utf-8"?>
<!-- Generator: Adobe Illustrator 19.0.1, SVG Export Plug-In . SVG Version: 6.00 Build 0)  -->
<svg version="1.1" id="Слой_1" xmlns="http://www.w3.org/2000/svg" xmlns:xlink="http://www.w3.org/1999/xlink" x="0px" y="0px"
	 viewBox="0 0 500 500" style="enable-background:new 0 0 500 500;" xml:space="preserve">
<style type="text/css">
	.st0{fill:none;stroke:#00A783;stroke-width:21;stroke-miterlimit:10;}
	.st1{fill:none;stroke:#FFFFFF;stroke-width:21;stroke-linecap:round;stroke-miterlimit:10;}
	.st2{fill:#00A783;}
	.st3{fill:none;stroke:#00A783;stroke-width:21;stroke-linejoin:round;stroke-miterlimit:10;}
</style>
<g>
	<path class="st0" d="M323.3,280.5v133.7c0,21.5-17.5,39-39,39H81c-21.5,0-39-17.5-39-39V85.8c0-21.5,17.5-39,39-39h203.3
		c21.5,0,39,17.5,39,39v85.7"/>
	<line class="st0" x1="42" y1="96.5" x2="323" y2="96.5"/>
	<line class="st0" x1="42" y1="375.5" x2="323" y2="375.5"/>
	<line class="st1" x1="118" y1="286.5" x2="249" y2="286.5"/>
	<line class="st1" x1="118" y1="237.5" x2="220" y2="237.5"/>
	<line class="st1" x1="118" y1="189.5" x2="235" y2="189.5"/>
	<circle class="st2" cx="187" cy="414.8" r="19.8"/>
	<path class="st0" d="M323.5,124l97.8,91.7C429,286,432.5,370,458,405"/>
	<path class="st3" d="M361.6,415c-16.6-35.3-22-68.9-3.4-98.9l-73.4-74.3c-4.7-4.7-7.3-11-7.3-17.6l0,0c0-13.8,11.2-24.9,24.9-24.9
		h0.2c6.6,0,13,2.6,17.6,7.3l50.6,50.9"/>
</g>
</svg>
