<?xml version="1.0" encoding="utf-8"?>
<!-- Generator: Adobe Illustrator 19.0.1, SVG Export Plug-In . SVG Version: 6.00 Build 0)  -->
<svg version="1.1" id="Слой_1" xmlns="http://www.w3.org/2000/svg" xmlns:xlink="http://www.w3.org/1999/xlink" x="0px" y="0px"
	 viewBox="0 0 500 500" style="enable-background:new 0 0 500 500;" xml:space="preserve">
<style type="text/css">
	.st0{fill:none;stroke:#00AFD1;stroke-width:9;stroke-miterlimit:10;}
	.st1{fill:#00B187;}
</style>
<g>
	<path class="st0" d="M4716.3,1769.1"/>
</g>
<g>
	<g>
		<path class="st1" d="M250,500C112.1,500,0,387.8,0,250S112.1,0,250,0s250,112.1,250,250S387.9,500,250,500z M250,28.2
			C127.7,28.2,28.2,127.7,28.2,250S127.7,471.8,250,471.8S471.8,372.3,471.8,250S372.3,28.2,250,28.2z"/>
	</g>
	<g>
		<path class="st1" d="M263.6,236.4h110.8c9.4,0,13.6,4.3,13.6,13.6c0,9.4-4.3,13.6-13.6,13.6l-110.8,0v110.8
			c0,9.4-4.3,13.6-13.6,13.6c-9.4,0-13.6-4.3-13.6-13.6l0-110.8H125.6c-9.4,0-13.6-4.3-13.6-13.6c0-9.4,4.3-13.6,13.6-13.6l110.8,0
			V125.6c0-9.4,4.3-13.6,13.6-13.6c9.4,0,13.6,4.3,13.6,13.6L263.6,236.4z"/>
	</g>
</g>
</svg>
