<?xml version="1.0" encoding="utf-8"?>
<!-- Generator: Adobe Illustrator 16.0.0, SVG Export Plug-In . SVG Version: 6.00 Build 0)  -->
<!DOCTYPE svg PUBLIC "-//W3C//DTD SVG 1.1//EN" "http://www.w3.org/Graphics/SVG/1.1/DTD/svg11.dtd">
<svg version="1.1" id="Слой_1" xmlns="http://www.w3.org/2000/svg" xmlns:xlink="http://www.w3.org/1999/xlink" x="0px" y="0px"
	 width="612px" height="792px" viewBox="0 0 612 792" enable-background="new 0 0 612 792" xml:space="preserve">
<g>
	<path fill="#FFFFFF" d="M581.95,241.758L120.992,132.576c-11.628-2.692-23.501-0.122-32.804,7.345
		c-9.425,7.344-14.688,18.359-14.688,30.354v76.5H39.351c-21.298,0-39.291,20.074-39.291,41.494v344.066
		c0,21.297,17.993,37.943,39.291,37.943h533.297c21.298,0,39.29-16.646,39.29-37.943V306.018v-17.871v-8.813
		C612.06,261.464,599.454,245.919,581.95,241.758z M113.892,172.602l324.605,74.174H113.892V172.602z M571.669,629.888H40.453
		v-342.72h531.216v18.85V629.888z"/>
	<circle fill="#FFFFFF" cx="116.219" cy="460.241" r="43.941"/>
</g>
</svg>
