<?xml version="1.0" encoding="utf-8"?>
<!-- Generator: Adobe Illustrator 19.0.1, SVG Export Plug-In . SVG Version: 6.00 Build 0)  -->
<svg version="1.1" id="Слой_1" xmlns="http://www.w3.org/2000/svg" xmlns:xlink="http://www.w3.org/1999/xlink" x="0px" y="0px"
	 viewBox="0 0 500 500" style="enable-background:new 0 0 500 500;" xml:space="preserve">
<style type="text/css">
	.st0{fill:#FFFFFF;}
</style>
<g>
	<path class="st0" d="M488.9,434.6c-77-106.7-113.1-256.4-38.9-404.9c1.6-3.3-0.2-7-4.3-8.3L382.8,0.5c-3.8-1.3-8.1,0.1-9.9,3
		c-103,167.3-121.9,323.9-14,493.1c2.1,3.2,7.1,4.4,10.9,2.5l116.4-55.8C489.9,441.5,491.1,437.6,488.9,434.6z"/>
	<path class="st0" d="M212.6,434.6c-77-106.7-113.1-256.4-38.9-404.9c1.6-3.3-0.2-7-4.3-8.3L106.5,0.5c-3.8-1.3-8.1,0.1-9.9,3
		c-103,167.3-121.9,323.9-14,493.1c2.1,3.2,7.1,4.4,10.9,2.5l116.4-55.8C213.6,441.5,214.8,437.6,212.6,434.6z"/>
</g>
</svg>
