<?xml version="1.0" encoding="utf-8"?>
<!-- Generator: Adobe Illustrator 19.0.1, SVG Export Plug-In . SVG Version: 6.00 Build 0)  -->
<svg version="1.1" id="Слой_1" xmlns="http://www.w3.org/2000/svg" xmlns:xlink="http://www.w3.org/1999/xlink" x="0px" y="0px"
	 viewBox="0 0 500 500" style="enable-background:new 0 0 500 500;" xml:space="preserve">
<style type="text/css">
	.st0{fill:#FFFFFF;}
</style>
<g>
	<path class="st0" d="M11.1,65.4c77,106.7,113.1,256.4,38.9,404.9c-1.6,3.3,0.2,7,4.3,8.3l62.9,20.9c3.8,1.3,8.1-0.1,9.9-3
		c103-167.3,121.9-323.9,14-493.1c-2.1-3.2-7.1-4.4-10.9-2.5L13.9,56.7C10.1,58.5,8.9,62.4,11.1,65.4z"/>
	<path class="st0" d="M287.4,65.4c77,106.7,113.1,256.4,38.9,404.9c-1.6,3.3,0.2,7,4.3,8.3l62.9,20.9c3.8,1.3,8.1-0.1,9.9-3
		c103-167.3,121.9-323.9,14-493.1c-2.1-3.2-7.1-4.4-10.9-2.5L290.2,56.7C286.4,58.5,285.2,62.4,287.4,65.4z"/>
</g>
</svg>
