<?xml version="1.0" encoding="utf-8"?>
<!-- Generator: Adobe Illustrator 19.0.1, SVG Export Plug-In . SVG Version: 6.00 Build 0)  -->
<svg version="1.1" id="Слой_1" xmlns="http://www.w3.org/2000/svg" xmlns:xlink="http://www.w3.org/1999/xlink" x="0px" y="0px"
	 viewBox="0 0 500 500" style="enable-background:new 0 0 500 500;" xml:space="preserve">
<style type="text/css">
	.st0{fill:#00AFD1;}
</style>
<g>
	<g>
		<path class="st0" d="M62.2,287.7c-1.1-1.1-1.9-2.5-2.4-4c-0.9-3-0.2-6.2,1.7-8.5l0.2-0.2c9.5-12.8,59.8-75.3,134-61.9
			c12.5-31.7,35.3-75.2,73.8-107.8c44-37.2,98.1-51.9,160.7-43.6c4.2,0.6,7.5,3.9,8.1,8.1c8.3,62.7-6.4,116.7-43.6,160.7
			c-32.6,38.5-76,61.3-107.8,73.8c13.4,74.2-49.1,124.6-61.9,134l-0.2,0.2c-2.3,1.9-5.5,2.6-8.5,1.7c-4.2-1.2-7-5.2-6.8-9.5
			c2.2-40.7-8.9-75.5-34.1-106.2c-30.7-25.2-65.4-36.3-106.2-34.1C66.6,290.6,64,289.6,62.2,287.7z M420.6,79.4
			C292.3,66.3,235,163.1,212.1,222.7c-2.7,6.9-9.8,10.8-17.1,9.3c-49.1-10.2-86.9,19.7-106,39.7c37,2,70.2,15,99.1,38.9
			c0.5,0.4,0.9,0.8,1.2,1.2c23.9,28.9,37,62.2,38.9,99.1c20-19.1,49.7-56.9,39.7-106v0c-1-7.3,2.4-14.4,9.3-17.1
			C336.9,265,433.7,207.7,420.6,79.4z"/>
	</g>
	<g>
		<path d="M290.4,209.6c-18.3-18.3-18.3-48,0-66.3c18.3-18.3,48-18.3,66.3,0s18.3,48,0,66.3C338.4,227.9,308.6,227.9,290.4,209.6z
			 M343.4,156.6c-11-11-28.8-11-39.8,0s-11,28.8,0,39.8s28.8,11,39.8,0S354.4,167.6,343.4,156.6z"/>
	</g>
	<g>
		<path d="M82,417.8c-1.4-1.4-2.3-3.1-2.6-5.1c-6.5-40.5,7.5-72,41.8-93.8c4.4-2.8,10.2-1.5,12.9,2.9c2.8,4.4,1.5,10.2-2.9,12.9
			c-25.9,16.5-37.1,39-34.2,68.6c30.5,4.8,52.7-6.4,67.7-34.1c2.5-4.5,8.2-6.2,12.7-3.8c4.5,2.5,6.2,8.2,3.8,12.7
			c-20,36.9-52.8,51.5-94.6,42.3C84.9,419.9,83.3,419,82,417.8z"/>
	</g>
</g>
</svg>
