<?xml version="1.0" encoding="utf-8"?>
<!-- Generator: Adobe Illustrator 19.0.1, SVG Export Plug-In . SVG Version: 6.00 Build 0)  -->
<svg version="1.1" id="Слой_1" xmlns="http://www.w3.org/2000/svg" xmlns:xlink="http://www.w3.org/1999/xlink" x="0px" y="0px"
	 viewBox="0 0 500 500" style="enable-background:new 0 0 500 500;" xml:space="preserve">
<style type="text/css">
	.st0{fill:#FFFFFF;}
	.st1{fill:#00A783;}
</style>
<g>
	<g>
		<path class="st0" d="M256.1,231.5c13.9,3.5,24.8,11.4,32.7,23.8c8.1,12.9,10.6,26.9,7.6,42.2c-2,10.6-6.8,19.8-14.2,27.5
			c-7.2,7.5-15.9,12.5-26,15v6.2c0,3.4-1.1,6.3-3.4,8.7c-2.4,2.3-5.2,3.5-8.4,3.5c-3.2,0-6-1.2-8.3-3.5c-2.3-2.4-3.4-5.3-3.4-8.7
			v-5.7c-9.8-2-18.3-6.5-25.6-13.5c-7.4-6.9-12.5-15.3-15.3-25.1c-1.2-4-0.6-7.6,1.8-11c2.4-3.4,5.5-5,9.6-5c6,0,9.8,2.8,11.3,8.5
			c2.8,9.9,8.8,16.7,18.2,20.3v-61.6c-10.8-2.8-19.6-8.7-26.5-17.5c-7.1-9-10.6-19.3-10.6-30.9V201c0-11.7,3.5-22.1,10.6-31.2
			c6.9-9.1,15.7-14.9,26.5-17.6v-6.1c0-3.3,1.1-6.1,3.4-8.5c2.4-2.3,5.1-3.5,8.3-3.5c3.3,0,6.1,1.2,8.4,3.5c2.3,2.4,3.4,5.3,3.4,8.5
			v6.3c17.2,4.4,28.7,15.2,34.3,32.5c1.3,4,0.7,7.6-1.6,11c-2.4,3.4-5.7,5-9.7,5h-0.1c-5.6,0-9.3-2.7-11.1-8.2
			c-2.1-6.3-6-11-11.7-14.2V231.5z M219.4,205c0,10,4.4,17.4,13.1,22v-48.4c-8.7,4.8-13.1,12.3-13.1,22.4V205z M272.6,294.3
			c1.9-7.8,1.3-15.1-2-22c-3.2-6.6-8-11.5-14.5-14.6V314C264.8,310,270.3,303.4,272.6,294.3z"/>
	</g>
	<path class="st1" d="M246,441.6l-39.8-39.8c-4.2-4.2-11-4.2-15.2,0c-4.2,4.2-4.2,11,0,15.2l17.7,17.7
		c-74-16.7-131.6-76.1-144.5-152.8c-1-5.9-6.5-9.8-12.4-8.8c-5.9,1-9.8,6.5-8.8,12.4c7.7,45.8,30.9,88.5,65.3,120.1
		c30.1,27.7,66.6,45.5,106.4,52.3l-23.7,23.7c-4.2,4.2-4.2,11,0,15.2c2.1,2.1,4.9,3.2,7.6,3.2c2.8,0,5.5-1.1,7.6-3.2L246,457
		c2.1-2.1,3.2-4.9,3.2-7.7C249.1,446.5,248.1,443.7,246,441.6z"/>
	<path class="st1" d="M496.8,295.4L457,255.6c-2.1-2.1-4.9-3.2-7.7-3.1c-2.8,0-5.6,1-7.7,3.1l-39.8,39.8c-4.2,4.2-4.2,11,0,15.2
		c2.1,2.1,4.9,3.2,7.6,3.2c2.8,0,5.5-1.1,7.6-3.2l17.8-17.8C418.1,366.6,358.6,424,282,436.9c-5.9,1-9.8,6.5-8.8,12.4
		c0.9,5.3,5.4,9,10.6,9c0.6,0,1.2,0,1.8-0.2c45.9-7.7,88.5-30.9,120.2-65.3c27.5-30,45.4-66.2,52.3-105.8l23.6,23.6
		c2.1,2.1,4.9,3.2,7.6,3.2c2.8,0,5.5-1.1,7.6-3.2C501.1,306.4,501.1,299.6,496.8,295.4z"/>
	<path class="st1" d="M303,101.4c2.8,0,5.5-1.1,7.6-3.2c4.2-4.2,4.2-11,0-15.2L294,66.4c73.2,17.1,130.2,76.2,143,152.3
		c0.9,5.3,5.4,9,10.6,9c0.6,0,1.2,0,1.8-0.2c5.9-1,9.8-6.6,8.8-12.4c-7.7-45.8-31-88.4-65.4-120c-30.2-27.7-66.8-45.6-106.7-52.3
		l24.4-24.4c4.2-4.2,4.2-11,0-15.2c-4.2-4.2-11-4.2-15.2,0L255.6,43c-2.1,2.1-3.2,4.9-3.2,7.7c0,2.8,1,5.6,3.2,7.7l39.8,39.8
		C297.5,100.3,300.2,101.4,303,101.4z"/>
	<path class="st1" d="M50.6,249.1c0,0,0.1,0,0.1,0c0,0,0.1,0,0.1,0c2.8,0,5.5-1.1,7.6-3.2l39.8-39.8c4.2-4.2,4.2-11,0-15.2
		c-4.2-4.2-11-4.2-15.2,0l-16.5,16.5C83.5,133.9,142.7,76.8,219,64c5.9-1,9.8-6.5,8.8-12.4c-1-5.9-6.5-9.8-12.4-8.8
		c-45.8,7.7-88.4,30.9-120,65.4c-27.9,30.4-45.8,67.2-52.5,107.4l-24.5-24.5c-4.2-4.2-11-4.2-15.2,0c-4.2,4.2-4.2,11,0,15.2L43,246
		C45.1,248.1,47.8,249.1,50.6,249.1z"/>
</g>
</svg>
