<?xml version="1.0" encoding="utf-8"?>
<!-- Generator: Adobe Illustrator 19.0.1, SVG Export Plug-In . SVG Version: 6.00 Build 0)  -->
<svg version="1.1" id="Слой_1" xmlns="http://www.w3.org/2000/svg" xmlns:xlink="http://www.w3.org/1999/xlink" x="0px" y="0px"
	 viewBox="0 0 500 500" style="enable-background:new 0 0 500 500;" xml:space="preserve">
<style type="text/css">
	.st0{fill:#FFFFFF;}
	.st1{fill:#00A783;}
</style>
<g>
	<path class="st0" d="M256,231.9c13.6,3.4,24.3,11.2,32.1,23.4c7.9,12.6,10.4,26.5,7.4,41.5c-2,10.4-6.7,19.4-14,27
		c-7.1,7.4-15.6,12.3-25.5,14.8v6.1c0,3.3-1.1,6.1-3.3,8.5c-2.3,2.3-5.1,3.4-8.3,3.4c-3.1,0-5.9-1.1-8.2-3.4
		c-2.2-2.4-3.3-5.2-3.3-8.5V339c-9.6-2-18-6.4-25.2-13.2c-7.3-6.8-12.3-15-15-24.7c-1.2-3.9-0.6-7.5,1.7-10.8c2.3-3.3,5.5-5,9.4-5
		c5.9,0,9.6,2.8,11.2,8.4c2.7,9.8,8.7,16.4,17.8,20v-60.6c-10.6-2.8-19.2-8.5-26-17.2c-6.9-8.8-10.4-19-10.4-30.4v-3.7
		c0-11.5,3.5-21.7,10.4-30.7c6.8-8.9,15.4-14.7,26-17.3v-6c0-3.2,1.1-6,3.3-8.4c2.3-2.3,5-3.4,8.2-3.4c3.2,0,6,1.1,8.3,3.4
		c2.2,2.4,3.3,5.2,3.3,8.4v6.2c16.9,4.3,28.2,15,33.7,31.9c1.2,3.9,0.7,7.5-1.6,10.8c-2.4,3.3-5.6,5-9.5,5h-0.1
		c-5.5,0-9.2-2.7-10.9-8c-2.1-6.2-5.9-10.9-11.5-14V231.9z M219.9,205.8c0,9.8,4.3,17,12.9,21.6v-47.6c-8.6,4.8-12.9,12.1-12.9,22
		V205.8z M272.2,293.6c1.9-7.6,1.2-14.8-2-21.6c-3.1-6.5-7.9-11.3-14.2-14.4v55.3C264.5,308.9,269.9,302.5,272.2,293.6z"/>
</g>
<path class="st1" d="M246,438.3l-39.1-39.1c-4.1-4.1-10.8-4.1-15,0c-4.1,4.1-4.1,10.8,0,15l17.4,17.4
	c-72.7-16.4-129.3-74.8-142-150.2c-1-5.8-6.4-9.6-12.2-8.7c-5.8,1-9.7,6.4-8.7,12.2c7.6,45,30.4,87,64.2,118
	c29.6,27.2,65.4,44.7,104.5,51.4L192,477.6c-4.1,4.1-4.1,10.8,0,15c2.1,2.1,4.8,3.1,7.5,3.1c2.7,0,5.4-1,7.5-3.1l39.1-39.1
	c2.1-2.1,3.1-4.8,3.1-7.6C249.2,443.1,248.1,440.4,246,438.3z"/>
<path class="st1" d="M492.6,294.6l-39.1-39.1c-2.1-2.1-4.9-3.1-7.6-3.1c-2.7,0-5.5,1-7.6,3.1l-39.1,39.1c-4.1,4.1-4.1,10.8,0,15
	c2.1,2.1,4.8,3.1,7.5,3.1c2.7,0,5.4-1,7.5-3.1l17.5-17.5c-16.5,72.6-74.9,129-150.2,141.6c-5.8,1-9.7,6.4-8.7,12.2
	c0.9,5.2,5.4,8.8,10.4,8.8c0.6,0,1.2,0,1.8-0.1c45.1-7.6,87-30.3,118.1-64.2c27.1-29.5,44.6-65.1,51.4-103.9l23.2,23.2
	c2.1,2.1,4.8,3.1,7.5,3.1s5.4-1,7.5-3.1C496.7,305.4,496.7,298.7,492.6,294.6z"/>
<path class="st1" d="M302.1,103.9c2.7,0,5.4-1,7.5-3.1c4.1-4.1,4.1-10.8,0-15l-16.3-16.3c72,16.8,127.9,74.9,140.5,149.7
	c0.9,5.2,5.4,8.8,10.4,8.8c0.6,0,1.2,0,1.8-0.1c5.8-1,9.6-6.4,8.7-12.2c-7.6-45-30.4-86.9-64.2-117.9
	C360.7,70.6,324.8,53,285.6,46.4l24-24c4.1-4.1,4.1-10.8,0-15c-4.1-4.1-10.8-4.1-15,0l-39.1,39.1c-2.1,2.1-3.1,4.8-3.1,7.6
	c0,2.7,1,5.5,3.1,7.6l39.1,39.1C296.7,102.9,299.4,103.9,302.1,103.9z"/>
<path class="st1" d="M54,249.1c0,0,0.1,0,0.1,0c0,0,0.1,0,0.1,0c2.7,0,5.4-1,7.5-3.1l39.1-39.1c4.1-4.1,4.1-10.8,0-15
	c-4.1-4.1-10.8-4.1-15,0l-16.2,16.2C86.4,136,144.6,79.8,219.6,67.2c5.8-1,9.7-6.4,8.7-12.2c-1-5.8-6.4-9.6-12.2-8.7
	c-45,7.6-86.9,30.4-118,64.2c-27.4,29.9-45,66-51.6,105.5L22.4,192c-4.1-4.1-10.8-4.1-15,0c-4.1,4.1-4.1,10.8,0,15L46.5,246
	C48.6,248.1,51.3,249.1,54,249.1z"/>
</svg>
