<?xml version="1.0" encoding="utf-8"?>
<!-- Generator: Adobe Illustrator 19.0.1, SVG Export Plug-In . SVG Version: 6.00 Build 0)  -->
<svg version="1.1" id="Слой_1" xmlns="http://www.w3.org/2000/svg" xmlns:xlink="http://www.w3.org/1999/xlink" x="0px" y="0px"
	 viewBox="0 0 500 500" style="enable-background:new 0 0 500 500;" xml:space="preserve">
<style type="text/css">
	.st0{fill:#FFFFFF;}
	.st1{fill:#00A783;}
</style>
<g>
	<g>
		<path class="st0" d="M250.2,304H99.7c-6.7,0-12.1-5.3-12.1-12s5.4-12,12.1-12h150.4c6.7,0,12.1,5.3,12.1,12S256.8,304,250.2,304z"
			/>
	</g>
	<g>
		<path class="st0" d="M216.9,248H99.7c-6.7,0-12.1-5.3-12.1-12s5.4-12,12.1-12h117.1c6.7,0,12.1,5.3,12.1,12S223.5,248,216.9,248z"
			/>
	</g>
	<g>
		<path class="st0" d="M234.1,193H99.7c-6.7,0-12.1-5.8-12.1-12.5S93.1,168,99.7,168h134.3c6.7,0,12.1,5.8,12.1,12.5
			S240.7,193,234.1,193z"/>
	</g>
	<g>
		<circle class="st1" cx="179" cy="439.2" r="22.7"/>
	</g>
	<path class="st1" d="M464.2,251.8c-1.3-14.1-2.7-28.6-4.3-42.5l-0.3-4.4L348,99.9V61.5C348,30.2,322.1,4,290.7,4H57.3
		C25.9,4,0,30.2,0,61.5v377C0,469.8,25.9,496,57.3,496h233.4c31.3,0,57.3-26.2,57.3-57.5V314.8l12.8,13.2
		c-16.2,32.5-13.7,70.7,7.9,116.6l21.8-10.3c-20-42.5-21.5-74.9-4.6-102c2.9-4.7,2.2-10.9-1.7-14.8l-84.3-85.3
		c-3.1-3.1-4.8-7.2-4.8-11.6c0-9.1,7.4-16.5,16.6-16.5h0.3c4.4,0,8.6,1.7,11.7,4.8l58.1,58.4l17.1-17l-58.2-58.3
		c-7.7-7.7-17.9-11.8-28.8-11.8h-0.3c-22.4,0-40.7,18.1-40.7,40.6c0,10.8,4.5,21,12.1,28.6l41,41.2V382H24V86h300v74h24v-27
		l88.7,83.3c1.3,12.4,2.4,25.2,3.6,37.7c6.8,71.3,13.8,145,40.1,181l19.5-14.2C477.5,390.2,470.8,319.8,464.2,251.8z M324,406v32.5
		c0,18-15.2,33.5-33.3,33.5H57.3c-18,0-33.3-15.5-33.3-33.5V406H324z M24,62v-0.5C24,43.5,39.2,28,57.3,28h233.4
		c18,0,33.3,15.5,33.3,33.5V62H24z"/>
</g>
</svg>
