<?xml version="1.0" encoding="utf-8"?>
<!-- Generator: Adobe Illustrator 19.0.1, SVG Export Plug-In . SVG Version: 6.00 Build 0)  -->
<svg version="1.1" id="Слой_1" xmlns="http://www.w3.org/2000/svg" xmlns:xlink="http://www.w3.org/1999/xlink" x="0px" y="0px"
	 viewBox="0 0 500 500" style="enable-background:new 0 0 500 500;" xml:space="preserve">
<style type="text/css">
	.st0{fill:#00AFD1;}
</style>
<path class="st0" d="M494.5,235h-55.7C431.7,141,358,67.1,265,59.9V4.5c0-3.3-2.2-4.5-5.5-4.5h-17.9c-3.3,0-5.5,1.2-5.5,4.5v55.4
	C143,67.1,69.3,141,62.2,235H6.5c-3.3,0-6.5,1.2-6.5,4.5v17.9c0,3.3,3.2,6.5,6.5,6.5h55.7C69.6,356,143,429.2,236,436.5v56
	c0,3.3,2.2,7.5,5.5,7.5h17.9c3.3,0,5.5-4.2,5.5-7.5v-56c93-7.2,166.4-80.5,173.8-172.5h55.7c3.3,0,5.5-3.2,5.5-6.5v-17.9
	C500,236.2,497.8,235,494.5,235z M408.8,235H265V89.9C341,97,401.9,157,408.8,235z M236,89.9V235H92.2C99.1,157,160,97,236,89.9z
	 M92.2,264H236v142.5C160,399.4,99.5,338,92.2,264z M265,406.5V264h143.8C401.5,338,341,399.4,265,406.5z"/>
</svg>
