<?xml version="1.0" encoding="utf-8"?>
<!-- Generator: Adobe Illustrator 19.0.1, SVG Export Plug-In . SVG Version: 6.00 Build 0)  -->
<svg version="1.1" id="Слой_1" xmlns="http://www.w3.org/2000/svg" xmlns:xlink="http://www.w3.org/1999/xlink" x="0px" y="0px"
	 viewBox="0 0 500 500" style="enable-background:new 0 0 500 500;" xml:space="preserve">
<style type="text/css">
	.st0{fill:#FFFFFF;}
	.st1{fill:#00B187;}
</style>
<g>
	<g>
		<path class="st0" d="M414.9,500H85.1c-20.4,0-37.1-16.6-37.1-37.1V37.1C48.1,16.6,64.7,0,85.1,0h329.7c20.4,0,37.1,16.6,37.1,37.1
			v425.9C451.9,483.4,435.3,500,414.9,500z M85.1,18.2c-10.4,0-18.8,8.4-18.8,18.8v425.9c0,10.4,8.4,18.8,18.8,18.8h329.7
			c10.4,0,18.8-8.4,18.8-18.8V37.1c0-10.4-8.4-18.8-18.8-18.8H85.1z"/>
	</g>
	<path class="st1" d="M262.2,200.6c22.4-5.1,39.2-25.2,39.2-49.1c0-27.8-22.6-50.4-50.4-50.4s-50.4,22.6-50.4,50.4
		c0,23.9,16.4,44,38.8,49.1c-43.3,5.5-77.3,42.6-77.3,87.4V350h177v-62.1C339,243.2,305.4,206.1,262.2,200.6z M218.7,151.4
		c0-17.8,14.4-32.2,32.2-32.2s32.2,14.4,32.2,32.2s-14.4,32.2-32.2,32.2S218.7,169.2,218.7,151.4z M320,331H181v-43.1
		c0-38.5,31-69.9,69.5-69.9s69.5,31.3,69.5,69.9V331z"/>
	<g>
		<rect x="198" y="427" class="st1" width="103" height="19"/>
	</g>
</g>
</svg>
