<?xml version="1.0" encoding="utf-8"?>
<!-- Generator: Adobe Illustrator 19.0.1, SVG Export Plug-In . SVG Version: 6.00 Build 0)  -->
<svg version="1.1" id="Слой_1" xmlns="http://www.w3.org/2000/svg" xmlns:xlink="http://www.w3.org/1999/xlink" x="0px" y="0px"
	 viewBox="-229 31 500 500" style="enable-background:new -229 31 500 500;" xml:space="preserve">
<path d="M91,260.1c34.8-25.6,56.4-68.4,51.4-115.9C136,83.5,86.2,35.5,25.3,31.3c-73.9-5.1-135.7,53.6-135.7,126.5
	c0,43.1,22,81.2,54.9,104.1c-80.8,24.4-139.6,99.6-139.6,188.3v0.3c0,6.1,3,11.7,8.1,15l0,0C-117.9,509.2-48.5,531,21.1,531
	s138.8-21.8,207.9-65.5l0,0c5-3.3,8-9,8-15v-0.3C237.1,359.1,175.1,282.3,91,260.1z M-74.1,157.8c0-49.9,40.6-90.6,90.6-90.6
	s90.5,40.7,90.5,90.6s-40.6,90.6-90.6,90.6S-74.1,207.7-74.1,157.8z M-149,445.9c-6.4-3.7-10-10.9-8.9-18.2
	c10.8-78,78-138.6,158.9-138.6h40.1c80.9,0,148.1,60.4,158.9,138.4c1,7.3-2.5,14.5-8.9,18.2C76.8,510.9-34.8,511.1-149,445.9z"/>
</svg>
