<?xml version="1.0" encoding="utf-8"?>
<!-- Generator: Adobe Illustrator 19.0.1, SVG Export Plug-In . SVG Version: 6.00 Build 0)  -->
<svg version="1.1" id="Слой_1" xmlns="http://www.w3.org/2000/svg" xmlns:xlink="http://www.w3.org/1999/xlink" x="0px" y="0px"
	 viewBox="0 0 500 500" style="enable-background:new 0 0 500 500;" xml:space="preserve">
<style type="text/css">
	.st0{fill:#FFFFFF;}
	.st1{fill:none;stroke:#00AFD1;stroke-width:9;stroke-miterlimit:10;}
</style>
<path class="st0" d="M320,229.1c34.8-25.6,56.4-68.4,51.4-115.9C365,52.5,315.2,4.5,254.3,0.3c-73.9-5.1-135.7,53.6-135.7,126.5
	c0,43.1,22,81.2,54.9,104.1C92.7,255.3,33.9,330.5,33.9,419.2v0.3c0,6.1,3,11.7,8.1,15l0,0c69.1,43.7,138.5,65.5,208.1,65.5
	s138.8-21.8,207.9-65.5h0c5-3.3,8-9,8-15v-0.3C466.1,328.1,404.1,251.3,320,229.1z M154.9,126.8c0-49.9,40.6-90.6,90.6-90.6
	S336,76.9,336,126.8s-40.6,90.6-90.6,90.6S154.9,176.7,154.9,126.8z M80,414.9c-6.4-3.7-10-10.9-8.9-18.2
	c10.8-78,78-138.6,158.9-138.6h40.1c80.9,0,148.1,60.4,158.9,138.4c1,7.3-2.5,14.5-8.9,18.2C305.8,479.9,194.2,480.1,80,414.9z"/>
<g>
	<path class="st1" d="M4716.3,1769.1"/>
</g>
</svg>
