<?xml version="1.0" encoding="utf-8"?>
<!-- Generator: Adobe Illustrator 19.0.1, SVG Export Plug-In . SVG Version: 6.00 Build 0)  -->
<svg version="1.1" id="Слой_1" xmlns="http://www.w3.org/2000/svg" xmlns:xlink="http://www.w3.org/1999/xlink" x="0px" y="0px"
	 viewBox="-229 31 500 500" style="enable-background:new -229 31 500 500;" xml:space="preserve">
<style type="text/css">
	.st0{fill:#00AFD1;}
</style>
<g>
	<path class="st0" d="M271,416c0-59.2-48.1-107.4-107.3-107.4c-36.1,0-68,17.9-87.5,45.2c-9.2-6.6-19.6-17.1-19.7-30.9
		c-0.1-14.5,1.4-25.6,2.5-28.9c0.5-1.6,2.1-5,3.7-8.4c4.5-9.6,11-23.5,13.3-37c10.4-7.7,17.8-18.5,20.5-30.5
		c2-8.9,2.4-22.3-6.2-37.7c20-75.1-11.8-110-32.9-124.2c-4.3-3-8.9-3.3-12.6-3.6c-3-0.2-5.8-0.4-9.4-1.9c-0.9-0.4-2.6-2-3.9-3.1
		c-2.7-2.5-6.1-5.6-10.8-6.9l-0.8-0.2c-10.4-2.2-21.2-3-31.1-2.3c-26-1.8-64.2,6.3-87.5,35.1c-14.6,18-28.6,51-13.8,106.6
		c-8.6,15.3-8.2,28.6-6.2,37.4c2.7,11.9,10.1,22.7,20.6,30.4c2.3,13.4,8.8,26.7,13.3,36c1.6,3.3,3.3,6.8,3.8,8.4
		c1.4,4.2,2.8,14.3,2.7,26.8c-0.1,21.1-30.2,33.1-62,45.8c-26.4,10.6-53.9,21.5-70.7,40.1c-0.9,1-2.1,2.1-3.2,3.3
		c-6,6.4-14.8,15.3-14.8,26.7V524h393v-0.6C223,523.2,271,475.1,271,416z M-204.7,435.3c0.4-2.3,5.6-7.6,8.1-10.2
		c1.3-1.4,2.6-2.8,3.8-4.1c13.1-14.5,37.8-24.4,61.7-34c37.8-15.1,76.8-30.7,77-68c0.1-13.9-1.4-26.8-4-34.5c-1-3.1-2.8-6.7-5-11.3
		c-4.4-9-11-22.5-11.6-33.1l-0.4-6.4l-5.5-3.2c-7.5-4.4-12.8-11.1-14.5-18.5s0.2-15.3,5.7-23.5l3.1-4.7l-1.6-5.4
		c-11.4-39.1-8.7-69.4,7.9-89.9c17.8-21.9,47.7-27.8,68-26.2l0.9,0.1l0.9-0.1c7.5-0.6,15.7-0.1,23.7,1.5c0.5,0.4,1.2,1.1,1.8,1.6
		c2.6,2.4,6.2,5.7,11,7.7c7.2,3,13,3.4,16.9,3.7c0.6,0,1.2,0.1,1.7,0.1C72.4,96.1,79.7,131.4,65.8,179l-1.6,5.4l3.1,4.7
		c5.5,8.3,7.5,16.3,5.7,23.9c-1.7,7.5-7,14.3-14.4,18.6l-5.5,3.2l-0.4,6.4c-0.7,10.8-7.3,25.1-11.8,34.5c-2.1,4.5-3.8,8.1-4.8,11
		c-2.8,8.6-3.8,25.1-3.7,36.6c0.1,19.8,11.6,38.2,32,51.9c-5.2,12.6-8.1,26.9-8.1,41.4c0,33.5,15.4,63.5,39.5,83.5h-300.4
		L-204.7,435.3z M164.1,499.4l-6-0.2c-43.3-2.9-77.7-39.1-77.7-83.1c0-46,37.4-83.3,83.3-83.3c46,0,83.3,37.4,83.3,83.3
		C247,461.8,209.8,499.1,164.1,499.4z"/>
	<g>
		<path class="st0" d="M151.7,428.9h-32c-6.9,0-11.9-5-11.9-11.9s5-12.3,11.9-12.3h32V370c0-6.9,5-12.3,11.9-12.3
			s12.3,5.4,12.3,12.3v34.7h32c6.9,0,11.9,5.4,11.9,12.3s-5,11.9-11.9,11.9h-32v33.5c0,6.9-5.4,12.3-12.3,12.3s-11.9-5.4-11.9-12.3
			V428.9z"/>
	</g>
</g>
</svg>
