<?xml version="1.0" encoding="utf-8"?>
<!-- Generator: Adobe Illustrator 19.0.1, SVG Export Plug-In . SVG Version: 6.00 Build 0)  -->
<svg version="1.1" id="Слой_1" xmlns="http://www.w3.org/2000/svg" xmlns:xlink="http://www.w3.org/1999/xlink" x="0px" y="0px"
	 viewBox="0 0 500 500" style="enable-background:new 0 0 500 500;" xml:space="preserve">
<style type="text/css">
	.st0{fill:none;stroke:#00A783;stroke-width:17;stroke-linecap:round;stroke-linejoin:round;stroke-miterlimit:10;}
	.st1{fill:#FFFFFF;}
	.st2{fill:none;stroke:#00A783;stroke-width:21;stroke-miterlimit:10;}
	.st3{fill:none;stroke:#FFFFFF;stroke-width:21;stroke-miterlimit:10;}
</style>
<path class="st0" d="M96.4,386.5c0-60.4,37.7-86.1,121.4-107.3"/>
<path class="st0" d="M288.1,288.2c-9.7-3.1-20.2-6.1-31.6-9"/>
<path class="st1" d="M422.4,322.9c-3.7-3.7-9.7-3.7-13.4,0l-65.2,65.2l-24.4-24.4c-3.7-3.7-9.7-3.7-13.4,0c-3.7,3.7-3.7,9.7,0,13.4
	l30,30c0.3,0.3,0.7,0.7,1.1,0.9c0,0,0,0,0.1,0.1c1.9,1.9,4.3,2.8,6.7,2.8s4.9-0.9,6.7-2.8l71.8-71.8
	C426.1,332.7,426.1,326.7,422.4,322.9z"/>
<path class="st2" d="M438.2,288.4c3.9-15.8,6-32.4,6-49.4c0-113.3-91.9-205.2-205.2-205.2C125.7,33.8,33.8,125.7,33.8,239
	S125.7,444.2,239,444.2c17.2,0,33.9-2.1,49.8-6.1"/>
<circle class="st3" cx="363" cy="363" r="103.2"/>
<path class="st0" d="M300.4,185.7c0.4-59-24.3-73.5-64.1-73.5s-64.3,15.5-64.2,73.5c-11.2,7.5-13.3,24.8-3.7,35.3
	c0,0,34.4,64.3,67.9,64.3c33,0,67.8-64.3,67.8-64.3C313.8,210.5,311.6,193.2,300.4,185.7z"/>
</svg>
