<?xml version="1.0" encoding="utf-8"?>
<!-- Generator: Adobe Illustrator 19.0.1, SVG Export Plug-In . SVG Version: 6.00 Build 0)  -->
<svg version="1.1" id="Слой_1" xmlns="http://www.w3.org/2000/svg" xmlns:xlink="http://www.w3.org/1999/xlink" x="0px" y="0px"
	 viewBox="0 0 500 500" style="enable-background:new 0 0 500 500;" xml:space="preserve">
<style type="text/css">
	.st0{fill:none;stroke:#00AFD1;stroke-width:9;stroke-miterlimit:10;}
</style>
<g>
	<g>
		<path d="M313,433H0v-61.2c0-9.7,6.3-17.7,11-22.9c12.8-14.2,33.2-22.6,52.9-30.7c28-11.5,46.3-20.2,46.4-35.6
			c0.1-9.6-1.1-17.5-2.1-20.7c-0.4-1.2-1.7-3.9-3-6.5c-3.5-7.1-8.5-17.4-10.2-27.7c-8.1-5.9-13.8-14.2-15.9-23.3
			c-1.6-6.7-1.8-16.9,4.8-28.7c-11.4-42.8-0.7-68.1,10.6-82c18-22.1,47.3-28.3,67.2-26.9c7.7-0.5,16,0.1,23.9,1.7l0.6,0.1
			c3.6,1,6.1,3.4,8.2,5.3c1,0.9,2.3,2.1,3,2.4c2.8,1.1,4.9,1.3,7.2,1.4c2.8,0.2,6.3,0.4,9.6,2.7c16.1,10.9,40.5,37.6,25.1,95.3
			c6.6,11.7,6.3,21.9,4.7,28.6c-2.1,9.2-7.8,17.5-16,23.5c-1.7,10.2-6.7,20.1-10.4,27.7c-1.3,2.6-2.7,5.3-3.1,6.5
			c-1.3,3.9-2.8,11.7-2.7,20.7c0.1,15.6,16.9,24,44.6,35.8c18.8,8.1,38.3,16.4,51,30.5l-0.4,0c6.2,6.9,5.8,15.2,5.8,21.8V433z
			 M18,415h277.6l0.9-44.3c0-4.9-0.6-8.1-0.6-9.8v0c-12-11.1-28.6-18.7-45.6-26c-27.3-11.7-55.9-23.7-56.1-52.3
			c-0.1-14.1,2.5-23.9,3.4-26.5c0.8-2.4,2.1-5.3,3.9-8.9c3.6-7.3,8.6-17.3,9.1-25.4l0.3-4.8l4.2-2.4c5.9-3.4,10.1-8.7,11.4-14.5
			c1.3-5.7-0.2-11.8-4.4-18.1l-2.4-3.5l1.2-4.1c10.7-36.7,5.1-63.8-16.1-78.6c-0.4,0-0.8,0-1.3-0.1c-3-0.2-7.5-0.5-13-2.7
			c-3.7-1.5-6.4-4-8.4-5.8c-0.4-0.4-1-0.9-1.4-1.3c-6.2-1.2-12.5-1.6-18.4-1.1l-0.7,0.1l-0.7-0.1c-15.6-1.2-38.7,3.3-52.5,20.3
			c-12.9,15.8-15,39.2-6.2,69.4l1.2,4.1l-2.4,3.5c-4.3,6.4-5.7,12.5-4.4,18.2c1.3,5.7,5.4,10.9,11.3,14.3l4.2,2.4l0.3,4.8
			c0.5,8.2,5.4,18.2,9,25.6c1.7,3.5,3.1,6.3,3.9,8.7c2,5.9,3.1,15.8,3,26.5c-0.2,28.6-29.4,40.6-57.6,52.2
			C53,342.2,34.5,349.8,24.4,361c-5.5,6.1-6.4,9.4-6.4,10.8V415z"/>
	</g>
	<g>
		<path d="M491.3,433H348v-18h133.7c-4.6-26-29.3-35.2-55.2-46c-20-8.3-40.7-16.9-51.6-33.1c-1.5-2.3-1.9-5.2-1-7.8
			c0.9-2.6,3-4.7,5.6-5.5c31.1-10.1,52.7-23.2,62-37.4c-27.8-16.6-30.9-48.2-33.6-76.4c-3.7-38.6-6.7-69.1-61.4-69.3
			c-52.9,0.2-56.1,30.5-60.1,68.8c-2.6,24.9-5.6,52.7-25.4,70.4l-19.9-7.5c22.2-11.8,24.9-37.5,27.8-64.7c4-37.5,8.9-84.2,77.3-84.6
			c0.2,0,0.4,0,0.6,0c70.4,0.4,75,47.4,78.6,85.2c2.9,29.6,5.3,55.2,31.2,66c4.3,1.8,6.5,6.7,4.9,11.1
			c-8.8,24.3-37.3,40.5-63.6,50.5c9.1,7.1,21.9,12.4,35.3,17.9c31.3,13,66.9,27.9,66.9,71.3C500.1,428.8,496.1,433,491.3,433z"/>
	</g>
</g>
<g>
	<path class="st0" d="M4716.3,1769.1"/>
</g>
</svg>
