<?xml version="1.0" encoding="utf-8"?>
<!-- Generator: Adobe Illustrator 19.0.1, SVG Export Plug-In . SVG Version: 6.00 Build 0)  -->
<svg version="1.1" id="Слой_1" xmlns="http://www.w3.org/2000/svg" xmlns:xlink="http://www.w3.org/1999/xlink" x="0px" y="0px"
	 viewBox="0 0 500 500" style="enable-background:new 0 0 500 500;" xml:space="preserve">
<style type="text/css">
	.st0{fill:#00B187;}
</style>
<g>
	<g>
		<path class="st0" d="M384,501H8v-13.1C8,405,77.2,375.1,118.1,357.3c0.8-1.1,1.4-6.8-0.9-9.5c-43-50.9-55.5-150-27.1-212
			c16.9-36.9,47-59.8,85.4-64.1l0,0l12.9,0c0.3,0,0.6,0,0.8,0l0.9,0c45.5,1,81.4,25.5,101.3,69c29.3,64,19.2,159.4-22,208.6
			c0,1.9,1.2,6.5,4.6,7.9c41.7,18.2,114,48.7,110,130.6V501z M36.2,475h324.3c-6.8-55-57.5-77.8-95.3-94.3l0,0
			c-9.8-4.3-18.1-14.3-20.5-24.9c-2-8.5-0.2-16.5,5-22.7c35.2-41.6,43.9-126.6,18.6-181.8C257,127,234.1,97.8,188.4,97.3
			c-34.9,0.4-60.1,16.9-74.8,49.1c-26.7,58.3-9.5,145.6,23.6,184.9c6.7,8,9.5,20,7,30.6c-2,8.7-7.5,15.6-14.9,18.8
			C83.4,400.7,42,424,36.2,475z"/>
	</g>
	<g>
		<path d="M491,428h-78.8l-10.4-25h65.4c-6.8-56-57.5-78-95.3-94.5c-9.8-4.3-18.1-14.4-20.5-25c-2-8.5-0.2-16.6,5-22.7
			c35.2-41.6,43.9-126.6,18.6-181.8c-11.2-24.4-34.1-53.5-79.8-54.1c-24.4,0.3-44.2,8.6-58.9,24.7l-27-7.3
			c17.6-24.4,42.7-39.7,73.2-43.1l0,0l12.8,0c0.3,0,0.5,0,0.8,0l0.9,0c45.5,1,81.4,25.5,101.3,69c29.3,64,19.2,159.4-22,208.6
			c0,1.9,1.4,6.5,4.7,7.9C422.5,303,495,333.5,491,415.3V428z"/>
	</g>
</g>
</svg>
