<?xml version="1.0" encoding="utf-8"?>
<!-- Generator: Adobe Illustrator 19.0.1, SVG Export Plug-In . SVG Version: 6.00 Build 0)  -->
<svg version="1.1" id="Слой_1" xmlns="http://www.w3.org/2000/svg" xmlns:xlink="http://www.w3.org/1999/xlink" x="0px" y="0px"
	 viewBox="0 0 500 500" style="enable-background:new 0 0 500 500;" xml:space="preserve">
<style type="text/css">
	.st0{fill:#FFFFFF;}
	.st1{fill:none;}
	.st2{fill:#00B187;}
</style>
<g>
	<path class="st0" d="M400.1,487.9l-96-215.1c-0.2-1.1-0.7-2.1-1.3-3l-41-91.9c18.6-5.1,32.2-22.2,32.2-42.4c0-24.2-19.7-44-44-44
		s-44,19.7-44,44c0,19.9,13.3,36.8,31.5,42.1l-41.1,92.2c-0.7,0.9-1.1,2-1.3,3L99,487.9c-1.5,3.3-0.7,7.2,1.9,9.7
		c1.6,1.6,3.8,2.4,6,2.4c1.3,0,2.6-0.3,3.9-0.9l138.8-69.7l138.8,69.7c1.2,0.6,2.6,0.9,3.9,0.9c2.2,0,4.3-0.8,6-2.4
		C400.8,495.1,401.6,491.2,400.1,487.9z M321,352.9l-57.1-43.3l28.3-21.4L321,352.9z M320.8,374.4l-71.2,35.8l-71.2-35.8l71.2-54
		L320.8,374.4z M223.3,135.4c0-14.7,12-26.7,26.7-26.7s26.7,12,26.7,26.7c0,14.7-12,26.7-26.7,26.7S223.3,150.1,223.3,135.4z
		 M249.6,192.9l35.3,79.2l-35.3,26.8L214.2,272L249.6,192.9z M207,288.2l28.3,21.4l-57.1,43.3L207,288.2z M124.6,472.8l38.7-86.7
		l67,33.6L124.6,472.8z M268.8,419.8l67-33.6l38.7,86.7L268.8,419.8z"/>
	<g>
		<path class="st1" d="M76.5,135.3c0,48.1,19.7,91.6,51.3,123.1l24.6-24.6c-25.4-25.2-41.1-60-41.1-98.5s15.8-73.3,41.1-98.5
			l-24.6-24.6C96.2,43.6,76.5,87.2,76.5,135.3z"/>
		<path class="st1" d="M128.6,135.3c0,33.7,13.8,64.3,36.1,86.3l22.5-22.5c-16.5-16.3-26.7-38.8-26.7-63.8s10.2-47.5,26.7-63.8
			L164.7,49C142.4,71,128.6,101.6,128.6,135.3z"/>
		<path class="st2" d="M59.3,135.3c0,52.8,21.6,100.7,56.4,135.3l12.2-12.2c-31.7-31.5-51.3-75-51.3-123.1s19.7-91.6,51.3-123.1
			L115.7,0C80.9,34.6,59.3,82.5,59.3,135.3z"/>
		<path class="st2" d="M111.3,135.3c0,38.5,15.8,73.3,41.1,98.5l12.2-12.2c-22.3-22-36.1-52.6-36.1-86.3S142.4,71,164.7,49
			l-12.2-12.2C127.1,62,111.3,96.8,111.3,135.3z"/>
		<path class="st2" d="M160.5,135.3c0,24.9,10.2,47.5,26.7,63.8l12.2-12.2c-13.4-13.1-21.7-31.4-21.7-51.6s8.3-38.5,21.7-51.6
			l-12.2-12.2C170.7,87.8,160.5,110.4,160.5,135.3z"/>
	</g>
	<g>
		<path class="st1" d="M423.5,135.3c0,48.1-19.7,91.6-51.3,123.1l-24.6-24.6c25.4-25.2,41.1-60,41.1-98.5S372.9,62,347.5,36.8
			l24.6-24.6C403.8,43.6,423.5,87.2,423.5,135.3z"/>
		<path class="st1" d="M371.4,135.3c0,33.7-13.8,64.3-36.1,86.3l-22.5-22.5c16.5-16.3,26.7-38.8,26.7-63.8s-10.2-47.5-26.7-63.8
			L335.3,49C357.6,71,371.4,101.6,371.4,135.3z"/>
		<path class="st2" d="M440.7,135.3c0,52.8-21.6,100.7-56.4,135.3l-12.2-12.2c31.7-31.5,51.3-75,51.3-123.1s-19.7-91.6-51.3-123.1
			L384.3,0C419.1,34.6,440.7,82.5,440.7,135.3z"/>
		<path class="st2" d="M388.7,135.3c0,38.5-15.8,73.3-41.1,98.5l-12.2-12.2c22.3-22,36.1-52.6,36.1-86.3S357.6,71,335.3,49
			l12.2-12.2C372.9,62,388.7,96.8,388.7,135.3z"/>
		<path class="st2" d="M339.5,135.3c0,24.9-10.2,47.5-26.7,63.8l-12.2-12.2c13.4-13.1,21.7-31.4,21.7-51.6s-8.3-38.5-21.7-51.6
			l12.2-12.2C329.3,87.8,339.5,110.4,339.5,135.3z"/>
	</g>
</g>
</svg>
