<?xml version="1.0" encoding="utf-8"?>
<!-- Generator: Adobe Illustrator 19.0.1, SVG Export Plug-In . SVG Version: 6.00 Build 0)  -->
<svg version="1.1" id="Слой_1" xmlns="http://www.w3.org/2000/svg" xmlns:xlink="http://www.w3.org/1999/xlink" x="0px" y="0px"
	 viewBox="0 0 500 500" style="enable-background:new 0 0 500 500;" xml:space="preserve">
<style type="text/css">
	.st0{fill:none;stroke:#00AFD1;stroke-width:9;stroke-miterlimit:10;}
</style>
<path d="M427.2,73.6C380.8,26.9,319.1,0.8,253.4-0.1c-0.5-0.1-1,0-1.5,0L251,0c0,0,0,0-0.1,0c-0.7,0-1.3-0.1-1.9,0
	C182.6,0.3,120.3,26.2,73.4,73.1C26.2,120.3,0.3,182.9,0.3,249.6s26,129.4,73.1,176.6c46.6,46.7,108.5,72.7,174.4,73.2
	c1.1,0.3,2.3,0.6,3.5,0.6c0,0,0.1,0,0.1,0c66.4-2,128.8-26.8,175.6-73.9c46.9-47.1,72.7-109.9,72.7-176.4
	C499.7,183.3,474,120.7,427.2,73.6z M469.8,249.6c0,26.4-4.7,51.7-13.3,75.2c-25.2-4.1-50.4-7.4-75.5-10c4.7-21.3,7.1-43.1,7.1-65.1
	c0-18.9-1.8-37.7-5.3-56.2c25.5-2.7,51.1-6.1,76.7-10.3C466.2,204.2,469.8,226.5,469.8,249.6z M30.2,249.6c0-23,3.6-45.3,10.2-66.2
	c26.3,4.5,52.7,8.1,79.3,10.8c-3.4,18.2-5.1,36.8-5.1,55.5c0,21.7,2.4,43.3,6.9,64.3c-26.2,2.7-52.2,6.2-78.1,10.5
	C34.8,301.2,30.2,275.9,30.2,249.6z M144.4,249.8c0-17.9,1.6-35.5,5-52.8c27.8,2.2,55.6,3.4,83.6,3.7v107.1
	c-27,0.3-54.5,1.5-81.6,3.6C146.7,291.4,144.4,270.7,144.4,249.8z M269,200.6c28-0.5,56-1.9,84.3-4.2c3.5,17.4,5.2,35.3,5.2,53.4
	c0,21.2-2.2,42-7,62.2c-27.7-2.2-55.4-3.6-82.4-4.1V200.6z M448.2,154.8c-24.2,3.8-48.3,7-72.4,9.5c-5.7-19.3-13.3-38-22.7-55.7
	c-14.3-27-32.8-51.8-54.6-73.3C364.5,50.2,419.5,95.1,448.2,154.8z M345.9,167c-25.7,2-51.9,3.2-76.9,3.7V47.8
	C304,80.2,331.4,121.5,345.9,167z M233,48.7v122.1c-25-0.3-50.9-1.4-76.1-3.2C171.3,122.3,198,81.1,233,48.7z M204.9,34.4
	c-22.1,21.7-40.9,46.8-55.4,74.1c-9.5,18-17.2,36.9-22.9,56.4c-25.2-2.5-50.2-5.8-75.1-9.9C80.8,94.1,137.2,48.6,204.9,34.4z
	 M56,352.8c24.3-3.9,48.8-7.1,73.4-9.5c5.3,16.4,12.1,32.4,20.2,47.6c14.4,27.2,33.1,52.1,55,73.7C140.2,451.1,86.1,409.3,56,352.8z
	 M159.9,340.8c24.3-1.7,49.1-2.8,73.1-3v113C200,420.5,174.7,382.6,159.9,340.8z M269,451.8V337.9c24,0.4,49.2,1.6,74,3.5
	C327.9,383.4,302,421.5,269,451.8z M298.9,463.9c21.6-21.4,40-46.1,54.2-72.9c8-15,14.6-30.8,20-46.9c23.5,2.4,47.1,5.4,70.8,9.1
	C414.2,408.3,361.5,449.6,298.9,463.9z"/>
<g>
	<path class="st0" d="M4716.3,1769.1"/>
</g>
</svg>
