<?xml version="1.0" encoding="utf-8"?>
<!-- Generator: Adobe Illustrator 19.0.1, SVG Export Plug-In . SVG Version: 6.00 Build 0)  -->
<svg version="1.1" id="Слой_1" xmlns="http://www.w3.org/2000/svg" xmlns:xlink="http://www.w3.org/1999/xlink" x="0px" y="0px"
	 viewBox="0 0 520 120" style="enable-background:new 0 0 520 120;" xml:space="preserve">
<style type="text/css">
	.st0{fill:#639F5F;}
</style>
<g>
	<path class="st0" d="M173.8,54.4c-0.2,9.8-1.5,19.3-6,28.1c-0.8,1.6-1.8,3.2-2.8,4.7c-2.9,4.1-3,4.3,1,6.9c4.9,3.2,10.8,6.6,16,9.4
		c4.2,2.1,2.3,10.6-0.1,10.6c-1.9,0-16.2-6.8-22.4-12.2c-4.3-3.8-7.7-4-13.1-2.2c-14,4.7-27.8,3.7-40-5.3
		c-7.8-5.8-11-14.4-12.6-23.5c-2-11-1.9-22.1,1-33.1c4.8-18.3,18.6-29,37.5-29.2c8.5-0.1,16.7,1,24.1,5.5
		c10.8,6.7,15,17.2,16.7,29.1C173.4,46.9,173.6,50.6,173.8,54.4z M104.5,56.3c0.2,2.5,0.3,6.2,0.8,9.8c1,7,2.8,13.7,7.9,19
		c13.7,14.3,40,7.6,45.9-12.1c3.6-11.9,3.5-24.1,0.1-36.1c-2-7.1-6-12.7-12.8-16.1c-4.9-2.4-10.1-2.6-15.4-2.4
		c-7.9,0.3-14.3,3.4-19.1,9.7C105.8,36.1,104.8,45.5,104.5,56.3z"/>
	<path class="st0" d="M322,101c-5.7,0-5.7,0-7.5-5.3c-1.9-5.5-3.9-10.9-5.7-16.4c-0.7-2-1.8-2.9-4-2.9c-10.8,0.1-21.7,0.1-32.5,0
		c-2.4,0-3.5,1-4.1,3.1c-1.8,5.7-4,11.3-5.7,17.1c-1,3.2-2.6,4.5-6,4.4c-7-0.1-7.4-0.4-5-7c9.6-26.5,19.2-53,28.6-79.5
		c1.1-3.1,2.6-5.1,6-5.1c2.8,0.1,5.6-0.1,8.2,0.6c1.3,0.3,2.5,2.3,3,3.7c5.1,13.7,10,27.4,14.9,41.1c4.8,13.3,9.6,26.6,14.4,39.9
		c0.3,0.7,0.5,1.4,0.7,2.1c0.9,3.1,0.4,3.9-2.8,4.1C323.7,101,322.8,101,322,101z M304.7,67.6c-5.5-15.6-10.7-30.6-16-45.5
		c-0.4,0-0.7,0-1.1,0c-5.2,15-10.4,30.1-15.8,45.6C283.1,67.6,293.5,67.6,304.7,67.6z"/>
	<path class="st0" d="M195.4,55.9c0-13.4,0-26.8,0-40.2c0-4.6,1.1-5.8,5.6-5.7c8.9,0.1,17.8-0.1,26.7,0.7
		c15.7,1.5,24.7,14,22.9,29.8c-1.7,14.8-12.8,24-26.9,25.1c-4.7,0.3-9.4,0.5-14.1,0.5c-2.4,0-3.1,0.9-3.1,3.2
		c0.1,9.3-0.1,18.7,0.1,28c0,2.8-1.1,3.7-3.7,3.8c-7.5,0.3-7.4,0.4-7.4-7.2C195.4,81.2,195.4,68.5,195.4,55.9z M206.5,37.9
		c0,5.3,0,10.5,0,15.8c0,1.7,0.2,3.1,2.3,3.1c5.3-0.2,10.8,0.2,16-0.8c10.4-2.1,16.2-12.8,13.3-23.8c-1.8-6.8-6.8-11.7-13.3-12.3
		c-5.1-0.5-10.3-0.4-15.4-0.7c-2.3-0.1-3,0.9-3,3.1C206.6,27.4,206.5,32.6,206.5,37.9z"/>
	<path class="st0" d="M500.7,54.8c-16-13.3-31.5-26.2-46.9-39c3-3.1,5.8-5.9,8.9-9c18.9,15.8,37.9,31.7,57.3,47.8
		c-19.3,16.1-38.3,32-57.1,47.7c-3-3-5.9-5.8-9-8.9C469.2,80.8,484.7,68,500.7,54.8z"/>
	<path class="st0" d="M412,93c15.6-12.9,31.1-25.6,47.1-38.8C443.3,41,427.8,28.2,412,15c2.9-3.1,5.7-6,8.7-9.2
		c19.2,16,38.2,31.9,57.6,48.1c-3.4,2.9-6.7,5.7-9.9,8.4c-14.9,12.5-29.9,24.8-44.7,37.4c-2.4,2-3.9,1.9-5.7-0.4
		C416.2,97.2,414.2,95.2,412,93z"/>
	<path class="st0" d="M355.9,54.2c0.6-1.3,1-2.1,1.4-2.9c6-12.9,12-25.8,18.1-38.7c1.5-3.2,9.6-4.8,11.9-2.3
		c0.6,0.6,0.3,2.5-0.2,3.5c-2.9,6.2-6,12.3-9.1,18.4c-5.1,10.2-10.4,20.5-15.4,30.8c-0.8,1.7-1.3,3.7-1.3,5.5
		c-0.1,9.6-0.1,19.1,0,28.7c0,2.8-0.9,3.8-3.7,3.9c-7.6,0.3-7.6,0.4-7.6-7c0-8.1,0.1-16.1-0.1-24.1c-0.1-2.5-0.6-5.1-1.7-7.3
		c-7.8-15.9-15.8-31.6-23.7-47.4c-2.4-4.7-1.7-5.7,3.6-5.8c4.3-0.1,7.3,1.2,9.2,5.7c5.4,12.4,11.3,24.5,17,36.8
		C354.7,52.4,355.2,53.1,355.9,54.2z"/>
	<path class="st0" d="M0.1,54.5c0-13.3,0.1-26.6-0.1-39.9c0-3.4,1-4.7,4.4-5.2c5.4-0.7,7.4,0.8,7.4,6.1c0,23.9,0,47.9-0.1,71.8
		c0,2.9,0.7,3.9,3.7,3.9c9.1-0.2,18.3-0.1,27.4-0.1c3.5,0,3.9,0.5,3.9,4.6c0,4.3-0.6,5.1-3.8,5.2c-12.5,0-24.9,0-37.4,0
		c-3.9,0-5.4-1.5-5.4-5.5C0.1,81.8,0.1,68.1,0.1,54.5z"/>
	<path class="st0" d="M72.5,96.9c0,3.2-1.2,4.3-4.1,4.1c-0.2,0-0.4,0-0.6,0c-6.5,0.1-6.5,0.1-6.5-6.5c0-26.5,0-53,0-79.5
		c0-4.9,1.4-6.1,6.4-5.7c4.4,0.3,4.9,0.8,4.9,5.2C72.4,28.1,72.3,83.1,72.5,96.9z"/>
</g>
</svg>
