<?xml version="1.0" encoding="utf-8"?>
<!-- Generator: Adobe Illustrator 19.0.1, SVG Export Plug-In . SVG Version: 6.00 Build 0)  -->
<svg version="1.1" id="Слой_1" xmlns="http://www.w3.org/2000/svg" xmlns:xlink="http://www.w3.org/1999/xlink" x="0px" y="0px"
	 viewBox="75 183 650 136" style="enable-background:new 75 183 650 136;" xml:space="preserve">
<style type="text/css">
	.st0{fill:#639F5F;}
</style>
<g>
	<path class="st0" d="M292.4,244c-0.2,12.2-1.9,24-7.5,35c-1,2-2.2,4-3.5,5.9c-3.6,5.1-3.8,5.4,1.3,8.7c6.1,4,13.5,8.3,19.9,11.8
		c5.2,2.6,2.9,13.3-0.1,13.3c-2.4,0-20.3-8.4-28-15.3c-5.4-4.8-9.6-5-16.3-2.8c-17.4,5.8-34.7,4.6-50-6.7
		c-9.8-7.2-13.8-18-15.8-29.4c-2.4-13.8-2.4-27.6,1.2-41.3c6-22.9,23.3-36.2,46.8-36.4c10.6-0.1,20.9,1.2,30.1,6.9
		c13.4,8.3,18.7,21.5,20.8,36.3C291.9,234.6,292.1,239.3,292.4,244z M205.8,246.3c0.3,3.2,0.4,7.7,1,12.2c1.2,8.7,3.5,17.1,9.8,23.7
		c17.2,17.9,49.9,9.4,57.3-15.1c4.5-14.9,4.3-30.1,0.1-45.1c-2.5-8.8-7.5-15.9-16-20.1c-6.1-3-12.6-3.3-19.2-3
		c-9.8,0.4-17.8,4.4-23.8,12.2C207.4,221.1,206.3,232.9,205.8,246.3z"/>
	<path class="st0" d="M477.4,302.2c-7.1,0-7.1,0-9.4-6.6c-2.4-6.8-4.9-13.6-7.1-20.4c-0.8-2.5-2.3-3.6-5-3.6
		c-13.5,0.1-27.1,0.1-40.6,0c-2.9,0-4.3,1.2-5.2,3.9c-2.3,7.1-5,14.1-7.1,21.3c-1.2,4-3.3,5.6-7.5,5.5c-8.8-0.1-9.2-0.5-6.2-8.8
		c11.9-33.1,24-66.1,35.8-99.3c1.4-3.9,3.2-6.4,7.5-6.3c3.5,0.1,7-0.1,10.3,0.8c1.6,0.4,3.1,2.8,3.8,4.6
		c6.3,17.1,12.4,34.2,18.6,51.3c6,16.6,12,33.2,18,49.8c0.3,0.9,0.7,1.8,0.9,2.7c1.1,3.9,0.5,4.9-3.5,5.1
		C479.5,302.2,478.4,302.2,477.4,302.2z M455.9,260.6c-6.8-19.5-13.4-38.2-19.9-56.9c-0.5,0-0.9,0-1.4,0
		c-6.5,18.8-13,37.6-19.7,56.9C428.9,260.6,441.8,260.6,455.9,260.6z"/>
	<path class="st0" d="M319.3,245.9c0-16.8,0-33.5,0-50.3c0-5.7,1.4-7.3,7-7.2c11.1,0.2,22.3-0.1,33.3,0.9
		c19.6,1.8,30.9,17.5,28.6,37.2c-2.1,18.5-16,30-33.6,31.3c-5.9,0.4-11.7,0.7-17.6,0.7c-3.1,0-3.9,1.1-3.9,4
		c0.1,11.7-0.1,23.3,0.1,35c0.1,3.6-1.3,4.7-4.7,4.8c-9.3,0.3-9.3,0.4-9.3-8.9C319.3,277.5,319.3,261.7,319.3,245.9z M333.2,223.4
		c0,6.6,0,13.1,0,19.7c0,2.1,0.2,3.9,2.9,3.8c6.7-0.2,13.5,0.2,20-1c13-2.6,20.2-16,16.6-29.7c-2.2-8.5-8.5-14.6-16.6-15.4
		c-6.4-0.6-12.8-0.6-19.2-0.9c-2.8-0.1-3.8,1.1-3.7,3.8C333.3,210.2,333.2,216.8,333.2,223.4z"/>
	<path class="st0" d="M700.6,244.5c-20-16.6-39.3-32.7-58.6-48.6c3.8-3.8,7.3-7.4,11.1-11.3c23.7,19.7,47.4,39.5,71.5,59.7
		c-24.1,20.2-47.9,40-71.3,59.5c-3.8-3.7-7.4-7.3-11.2-11.1C661.2,277,680.6,261,700.6,244.5z"/>
	<path class="st0" d="M589.9,292.2c19.5-16.1,38.8-32,58.8-48.5c-19.8-16.4-39.1-32.5-58.8-48.9c3.7-3.8,7.1-7.5,10.9-11.4
		c24,20,47.7,39.8,71.9,60c-4.3,3.6-8.3,7.1-12.4,10.4c-18.6,15.5-37.3,31-55.8,46.7c-3,2.6-4.8,2.3-7.1-0.5
		C595.1,297.4,592.5,295,589.9,292.2z"/>
	<path class="st0" d="M519.8,243.8c0.8-1.6,1.3-2.6,1.7-3.6c7.5-16.1,15-32.3,22.6-48.4c1.9-4,11.9-6,14.9-2.9
		c0.7,0.8,0.4,3.1-0.2,4.3c-3.7,7.7-7.5,15.4-11.4,23c-6.4,12.8-12.9,25.6-19.2,38.4c-1,2.1-1.6,4.6-1.6,6.9
		c-0.2,11.9-0.2,23.9,0,35.8c0,3.5-1.2,4.8-4.6,4.9c-9.5,0.4-9.5,0.5-9.5-8.8c0-10.1,0.2-20.1-0.1-30.2c-0.1-3.1-0.8-6.4-2.2-9.2
		c-9.7-19.8-19.7-39.5-29.6-59.2c-3-5.9-2.2-7.1,4.5-7.2c5.3-0.1,9.1,1.5,11.5,7.1c6.7,15.5,14.1,30.6,21.2,45.9
		C518.2,241.5,518.8,242.3,519.8,243.8z"/>
	<path class="st0" d="M75.4,244.1c0-16.6,0.1-33.2-0.1-49.9c0-4.2,1.3-5.9,5.5-6.4c6.7-0.9,9.2,0.9,9.3,7.6
		c0,29.9,0.1,59.8-0.1,89.7c0,3.6,0.9,4.9,4.7,4.8c11.4-0.2,22.8-0.1,34.2-0.1c4.3,0,4.8,0.7,4.9,5.8c0,5.4-0.7,6.4-4.8,6.4
		c-15.6,0-31.1,0-46.7,0c-4.9,0-6.8-1.9-6.8-6.8C75.4,278.2,75.4,261.1,75.4,244.1z"/>
	<path class="st0" d="M165.9,297.1c0,4-1.4,5.4-5.1,5.1c-0.3,0-0.5,0-0.8,0c-8.2,0.2-8.2,0.2-8.2-8.1c0-33.1,0-66.2,0-99.3
		c0-6.1,1.7-7.6,7.9-7.2c5.5,0.4,6.1,1,6.1,6.5C165.8,211.2,165.7,279.8,165.9,297.1z"/>
</g>
</svg>
