<?xml version="1.0" encoding="utf-8"?>
<!-- Generator: Adobe Illustrator 19.0.1, SVG Export Plug-In . SVG Version: 6.00 Build 0)  -->
<svg version="1.1" id="Слой_1" xmlns="http://www.w3.org/2000/svg" xmlns:xlink="http://www.w3.org/1999/xlink" x="0px" y="0px"
	 viewBox="0 0 375.1 203" style="enable-background:new 0 0 375.1 203;" xml:space="preserve">
<style type="text/css">
	.st0{fill:#E9A94D;}
	.st1{fill:#D14A48;}
	.st2{fill:#FFFFFF;}
	.st3{fill:none;stroke:#FFFFFF;stroke-width:0.215;}
</style>
<g>
	<polygon class="st0" points="255.5,203 260.7,202.9 265.9,202.5 270.9,201.8 276,200.9 280.9,199.8 285.7,198.4 290.4,196.8 
		295,195 299.6,193 303.9,190.7 308.2,188.3 312.3,185.6 316.3,182.8 320.1,179.8 323.8,176.6 327.4,173.2 330.7,169.7 333.9,166 
		336.9,162.2 339.8,158.2 342.4,154 344.9,149.8 347.1,145.4 349.2,140.9 351,136.3 352.6,131.5 354,126.7 355.1,121.8 356,116.8 
		356.6,111.7 357,106.6 357.1,101.3 357,96.1 356.6,91 356,85.9 355.1,80.9 354,76 352.6,71.3 351,66.5 349.2,61.9 347.1,57.5 
		344.9,53.1 342.4,48.9 339.8,44.7 336.9,40.7 333.9,36.9 330.7,33.2 327.4,29.7 323.8,26.4 320.1,23.2 316.3,20.2 312.3,17.3 
		308.2,14.7 303.9,12.3 299.6,10 295,8 290.4,6.2 285.7,4.6 280.9,3.2 276,2.1 270.9,1.2 265.9,0.5 260.7,0.1 255.5,0 250.3,0.1 
		245.1,0.5 240,1.2 235,2.1 230.1,3.2 225.3,4.6 220.6,6.2 216,8 211.5,10 207.1,12.3 202.9,14.7 198.8,17.3 194.8,20.2 191,23.2 
		187.3,26.4 183.8,29.7 180.4,33.2 177.3,36.9 174.2,40.7 171.4,44.7 168.8,48.9 166.4,53.1 164.1,57.5 162.1,61.9 160.3,66.5 
		158.7,71.3 157.3,76 156.2,80.9 155.3,85.9 154.7,91 154.3,96.1 154.1,101.3 154.3,106.6 154.7,111.7 155.3,116.8 156.2,121.8 
		157.3,126.7 158.7,131.5 160.3,136.3 162.1,140.9 164.1,145.4 166.4,149.8 168.8,154 171.4,158.2 174.2,162.2 177.3,166 
		180.4,169.7 183.8,173.2 187.3,176.6 191,179.8 194.8,182.8 198.8,185.6 202.9,188.3 207.1,190.7 211.5,193 216,195 220.6,196.8 
		225.3,198.4 230.1,199.8 235,200.9 240,201.8 245.1,202.5 250.3,202.9 	"/>
	<polygon class="st1" points="119.7,203 124.9,202.9 130,202.5 135.1,201.8 140.1,200.9 145,199.8 149.8,198.4 154.5,196.8 
		159.1,195 163.6,193 168,190.7 172.2,188.3 176.3,185.6 180.3,182.8 184.1,179.8 187.8,176.6 191.3,173.2 194.7,169.7 197.9,166 
		200.9,162.2 203.7,158.2 206.3,154 208.8,149.8 211,145.4 213,140.9 214.8,136.3 216.4,131.5 217.8,126.7 218.9,121.8 219.8,116.8 
		220.5,111.7 220.8,106.6 221,101.3 220.8,96.1 220.5,91 219.8,85.9 218.9,80.9 217.8,76 216.4,71.3 214.8,66.5 213,61.9 211,57.5 
		208.8,53.1 206.3,48.9 203.7,44.7 200.9,40.7 197.9,36.9 194.7,33.2 191.3,29.7 187.8,26.4 184.1,23.2 180.3,20.2 176.3,17.3 
		172.2,14.7 168,12.3 163.6,10 159.1,8 154.5,6.2 149.8,4.6 145,3.2 140.1,2.1 135.1,1.2 130,0.5 124.9,0.1 119.7,0 114.4,0.1 
		109.3,0.5 104.2,1.2 99.2,2.1 94.3,3.2 89.4,4.6 84.7,6.2 80.1,8 75.6,10 71.2,12.3 66.9,14.7 62.8,17.3 58.8,20.2 55,23.2 
		51.3,26.4 47.8,29.7 44.4,33.2 41.2,36.9 38.2,40.7 35.3,44.7 32.7,48.9 30.2,53.1 28,57.5 26,61.9 24.1,66.5 22.5,71.3 21.2,76 
		20,80.9 19.1,85.9 18.5,91 18.1,96.1 18,101.3 18.1,106.6 18.5,111.7 19.1,116.8 20,121.8 21.2,126.7 22.5,131.5 24.1,136.3 
		26,140.9 28,145.4 30.2,149.8 32.7,154 35.3,158.2 38.2,162.2 41.2,166 44.4,169.7 47.8,173.2 51.3,176.6 55,179.8 58.8,182.8 
		62.8,185.6 66.9,188.3 71.2,190.7 75.6,193 80.1,195 84.7,196.8 89.4,198.4 94.3,199.8 99.2,200.9 104.2,201.8 109.3,202.5 
		114.4,202.9 	"/>
	<polygon class="st0" points="175.7,38.9 229.6,38.9 229.6,33.4 180.3,33.4 	"/>
	<polygon class="st0" points="167.6,51.2 229.6,51.2 229.6,45.7 170.9,45.7 	"/>
	<polygon class="st0" points="161.6,63.4 229.6,63.4 229.6,57.9 164,57.9 	"/>
	<polygon class="st0" points="157.4,75.7 229.6,75.7 229.6,70.2 159.1,70.2 	"/>
	<polygon class="st0" points="159.8,134.9 229.8,134.9 229.8,129.4 158.1,129.4 	"/>
	<polygon class="st0" points="165,147.2 229.8,147.2 229.8,141.6 162.4,141.6 	"/>
	<polygon class="st0" points="172.3,159.4 229.8,159.4 229.8,153.9 168.8,153.9 	"/>
	<polygon class="st0" points="182.3,171.6 229.8,171.6 229.8,166.1 177.4,166.1 	"/>
	<polygon class="st0" points="155,87.9 229.6,87.9 229.6,82.4 156.1,82.4 	"/>
	<polygon class="st0" points="200.5,122.7 228.9,122.7 228.9,117.2 201.5,117.2 	"/>
	<polygon class="st0" points="202.7,110.5 228.9,110.5 228.9,104.9 203.8,104.9 	"/>
	<polygon class="st0" points="153.1,104.9 160.5,104.9 160.5,110.5 153.5,110.5 	"/>
	<polygon class="st2" points="139.3,98.2 138.8,98.2 138.4,98.1 137.9,98.1 137.5,98 137.1,97.9 136.6,97.9 136.2,97.8 135.7,97.7 
		135.2,97.6 134.7,97.6 134,97.6 133.4,97.5 132.7,97.5 131.9,97.6 131,97.6 130,97.7 129.3,97.8 128.7,97.9 128.1,98.1 127.6,98.3 
		127.1,98.6 126.6,98.8 126.3,99.2 126,99.5 125.8,99.9 125.6,100.3 125.6,100.7 125.6,101.1 125.7,101.5 125.8,102 126.1,102.4 
		126.4,102.9 127.1,103.5 127.9,104 128.9,104.5 129.9,104.8 131,105.2 132.1,105.6 133.3,106 134.4,106.4 135.4,107 136.3,107.7 
		137.2,108.6 137.9,109.6 138.5,110.9 138.8,112.5 138.9,114.3 138.8,116.5 138.6,118.1 138.2,119.5 137.6,120.8 136.9,121.9 
		136.1,122.9 135.2,123.8 134.3,124.5 133.2,125.2 132.1,125.7 131,126.1 129.8,126.5 128.6,126.8 127.5,127 126.3,127.1 
		125.2,127.1 124.1,127.2 122.7,127.2 121.3,127.1 120.1,127.1 119,127.1 118,127.1 117,127 116.2,126.9 115.4,126.8 114.7,126.8 
		114,126.6 113.4,126.5 112.8,126.3 112.2,126.2 111.7,126 111.1,125.8 110.6,125.6 112.1,118 112.4,118.1 112.8,118.2 113.3,118.3 
		113.8,118.5 114.5,118.6 115.1,118.7 115.9,118.9 116.7,119 117.6,119.2 118.5,119.3 119.4,119.4 120.3,119.5 121.3,119.6 
		122.3,119.6 123.3,119.6 124.3,119.6 125.3,119.4 126.1,119.1 126.7,118.7 127.2,118.2 127.5,117.7 127.8,117.2 128,116.7 
		128.1,116.1 128.2,115.1 127.9,114.3 127.3,113.6 126.4,113 125.4,112.5 124.2,112 122.9,111.5 121.5,111 120.2,110.4 118.9,109.6 
		117.7,108.7 116.6,107.7 115.7,106.4 115.1,104.8 114.8,103 114.8,100.8 115,99.5 115.2,98.2 115.6,97 116,95.9 116.5,94.9 
		117.2,94 117.9,93.2 118.7,92.4 119.7,91.8 120.8,91.2 122.1,90.7 123.4,90.3 125,90 126.6,89.8 128.5,89.6 130.5,89.6 131.8,89.6 
		132.9,89.6 134,89.7 135,89.7 135.8,89.8 136.6,89.8 137.3,89.9 137.9,90 138.5,90 139,90.2 139.4,90.2 139.8,90.3 140.2,90.4 
		140.5,90.4 140.8,90.5 141.1,90.5 	"/>
	<g>
		<g>
			<polyline class="st3" points="139.3,98.2 139.3,98.2 138.8,98.2 138.4,98.1 137.9,98.1 137.5,98 137.1,97.9 136.6,97.9 
				136.2,97.8 135.7,97.7 135.2,97.6 134.7,97.6 134,97.6 133.4,97.5 132.7,97.5 131.9,97.6 131,97.6 130,97.7 130,97.7 129.3,97.8 
				128.7,97.9 128.1,98.1 127.6,98.3 127.1,98.6 126.6,98.8 126.3,99.2 126,99.5 125.8,99.9 125.6,100.3 125.6,100.7 125.6,101.1 
				125.7,101.5 125.8,102 126.1,102.4 126.4,102.9 126.4,102.9 127.1,103.5 127.9,104 128.9,104.5 129.9,104.8 131,105.2 
				132.1,105.6 133.3,106 134.4,106.4 135.4,107 136.3,107.7 137.2,108.6 137.9,109.6 138.5,110.9 138.8,112.5 138.9,114.3 
				138.8,116.5 138.8,116.5 138.6,118.1 138.2,119.5 137.6,120.8 136.9,121.9 136.1,122.9 135.2,123.8 134.3,124.5 133.2,125.2 
				132.1,125.7 131,126.1 129.8,126.5 128.6,126.8 127.5,127 126.3,127.1 125.2,127.1 124.1,127.2 124.1,127.2 122.7,127.2 
				121.3,127.1 120.1,127.1 119,127.1 118,127.1 117,127 116.2,126.9 115.4,126.8 114.7,126.8 114,126.6 113.4,126.5 112.8,126.3 
				112.2,126.2 111.7,126 111.1,125.8 110.6,125.6 112.1,118 112.1,118 112.4,118.1 112.8,118.2 113.3,118.3 113.8,118.5 
				114.5,118.6 115.1,118.7 115.9,118.9 116.7,119 117.6,119.2 118.5,119.3 119.4,119.4 120.3,119.5 121.3,119.6 122.3,119.6 
				123.3,119.6 124.3,119.6 124.3,119.6 125.3,119.4 126.1,119.1 126.7,118.7 127.2,118.2 127.5,117.7 127.8,117.2 128,116.7 
				128.1,116.1 128.1,116.1 128.2,115.1 127.9,114.3 127.3,113.6 126.4,113 125.4,112.5 124.2,112 122.9,111.5 121.5,111 
				120.2,110.4 118.9,109.6 117.7,108.7 116.6,107.7 115.7,106.4 115.1,104.8 114.8,103 114.8,100.8 114.8,100.8 115,99.5 
				115.2,98.2 115.6,97 116,95.9 116.5,94.9 117.2,94 117.9,93.2 118.7,92.4 119.7,91.8 120.8,91.2 122.1,90.7 123.4,90.3 125,90 
				126.6,89.8 128.5,89.6 130.5,89.6 130.5,89.6 131.8,89.6 132.9,89.6 134,89.7 135,89.7 135.8,89.8 136.6,89.8 137.3,89.9 
				137.9,90 138.5,90 139,90.2 139.4,90.2 139.8,90.3 140.2,90.4 140.5,90.4 140.8,90.5 141.1,90.5 139.3,98.2 			"/>
		</g>
	</g>
	<polygon class="st2" points="147.4,82 156.9,82 155.5,90.3 161.2,90.3 160,98.1 154,97.9 150.7,117 150.7,117.7 150.8,118.3 
		151.2,118.7 151.6,119.1 152.2,119.3 152.9,119.5 153.7,119.7 154.5,119.7 155.2,119.7 155.9,119.6 156.5,119.5 157.1,119.4 
		157.5,119.3 157.8,119.2 158,119.1 158.1,119 156.9,125.4 156.7,125.6 156.4,125.7 156.2,125.9 156,126 155.7,126.1 155.4,126.2 
		155.1,126.3 154.8,126.4 154.5,126.5 154.1,126.6 153.7,126.6 153.3,126.7 152.9,126.8 152.4,126.9 151.8,126.9 151.2,127 
		148.6,127 147.3,126.9 146.1,126.8 145,126.5 144,126.3 143.3,126 142.6,125.7 142,125.2 141.6,124.8 141.2,124.3 141,123.7 
		140.8,123.2 140.7,122.5 140.7,121.8 140.7,121 140.8,120.2 140.9,119.4 	"/>
	<g>
		<g>
			<polyline class="st3" points="147.4,82 156.9,82 155.5,90.3 161.2,90.3 160,98.1 154,97.9 150.7,117 150.7,117 150.7,117.7 
				150.8,118.3 151.2,118.7 151.6,119.1 152.2,119.3 152.9,119.5 153.7,119.7 154.5,119.7 154.5,119.7 155.2,119.7 155.9,119.6 
				156.5,119.5 157.1,119.4 157.5,119.3 157.8,119.2 158,119.1 158.1,119 156.9,125.4 156.9,125.4 156.7,125.6 156.4,125.7 
				156.2,125.9 156,126 155.7,126.1 155.4,126.2 155.1,126.3 154.8,126.4 154.5,126.5 154.1,126.6 153.7,126.6 153.3,126.7 
				152.9,126.8 152.4,126.9 151.8,126.9 151.2,127 148.6,127 148.6,127 147.3,126.9 146.1,126.8 145,126.5 144,126.3 143.3,126 
				142.6,125.7 142,125.2 141.6,124.8 141.2,124.3 141,123.7 140.8,123.2 140.7,122.5 140.7,121.8 140.7,121 140.8,120.2 
				140.9,119.4 147.4,82 			"/>
		</g>
	</g>
	<polygon class="st2" points="168.8,111 168.7,111.5 168.7,112.2 168.7,112.8 168.9,113.5 169.1,114.1 169.4,114.7 169.8,115.4 
		170.2,116 170.6,116.5 171.2,117.1 171.7,117.6 172.3,118 172.9,118.4 173.6,118.7 174.3,118.9 175,119 175.9,119.2 176.7,119.3 
		177.6,119.4 178.5,119.5 179.4,119.5 180.3,119.5 181.2,119.5 182.1,119.4 183.1,119.3 184,119.1 185,118.9 185.9,118.6 
		186.8,118.2 187.8,117.8 188.8,117.2 189.8,116.7 188.4,125.1 187.9,125.3 187.3,125.6 186.8,125.8 186.3,126 185.7,126.2 
		185.2,126.4 184.6,126.5 184.1,126.6 183.5,126.7 182.8,126.8 182,126.9 181.3,126.9 180.4,127 179.4,127 178.4,127 177.3,127 
		175.6,127 173.9,126.8 172.2,126.5 170.4,126.1 168.8,125.6 167.2,125 165.6,124.1 164.2,123.1 162.8,122 161.7,120.6 160.7,119 
		159.9,117.2 159.3,115.1 158.9,112.9 158.8,110.3 159,107.5 159.1,106.4 159.3,105.1 159.6,103.8 160,102.4 160.5,100.9 
		161.1,99.4 161.9,97.9 162.8,96.5 163.9,95.1 165.3,93.8 166.8,92.6 168.5,91.6 170.5,90.8 172.7,90.2 175.2,89.7 177.9,89.6 
		179.3,89.6 180.7,89.8 182.1,90 183.5,90.4 184.9,90.9 186.2,91.5 187.4,92.3 188.6,93.3 189.6,94.4 190.4,95.8 191.1,97.4 
		191.6,99.2 191.9,101.2 191.9,103.6 191.7,106.2 191.2,109.1 191,111.1 166,111.1 167.6,104.4 182.6,104.4 182.7,103.5 
		182.6,102.7 182.6,102 182.4,101.3 182.2,100.6 181.9,100 181.6,99.5 181.3,99.1 180.8,98.6 180.4,98.3 179.9,98 179.4,97.7 
		178.8,97.5 178.3,97.4 177.7,97.3 177.1,97.2 176.4,97.2 175.8,97.3 175.2,97.5 174.7,97.7 174.1,98 173.6,98.3 173,98.6 
		172.6,99.1 172.2,99.5 171.7,100 171.4,100.6 171.1,101.2 170.7,101.8 170.5,102.5 170.3,103.2 170.2,103.9 	"/>
	<g>
		<g>
			<polyline class="st3" points="168.8,111 168.8,111 168.7,111.5 168.7,112.2 168.7,112.8 168.9,113.5 169.1,114.1 169.4,114.7 
				169.8,115.4 170.2,116 170.6,116.5 171.2,117.1 171.7,117.6 172.3,118 172.9,118.4 173.6,118.7 174.3,118.9 175,119 175,119 
				175.9,119.2 176.7,119.3 177.6,119.4 178.5,119.5 179.4,119.5 180.3,119.5 181.2,119.5 182.1,119.4 183.1,119.3 184,119.1 
				185,118.9 185.9,118.6 186.8,118.2 187.8,117.8 188.8,117.2 189.8,116.7 188.4,125.1 188.4,125.1 187.9,125.3 187.3,125.6 
				186.8,125.8 186.3,126 185.7,126.2 185.2,126.4 184.6,126.5 184.1,126.6 183.5,126.7 182.8,126.8 182,126.9 181.3,126.9 
				180.4,127 179.4,127 178.4,127 177.3,127 177.3,127 175.6,127 173.9,126.8 172.2,126.5 170.4,126.1 168.8,125.6 167.2,125 
				165.6,124.1 164.2,123.1 162.8,122 161.7,120.6 160.7,119 159.9,117.2 159.3,115.1 158.9,112.9 158.8,110.3 159,107.5 159,107.5 
				159.1,106.4 159.3,105.1 159.6,103.8 160,102.4 160.5,100.9 161.1,99.4 161.9,97.9 162.8,96.5 163.9,95.1 165.3,93.8 166.8,92.6 
				168.5,91.6 170.5,90.8 172.7,90.2 175.2,89.7 177.9,89.6 177.9,89.6 179.3,89.6 180.7,89.8 182.1,90 183.5,90.4 184.9,90.9 
				186.2,91.5 187.4,92.3 188.6,93.3 189.6,94.4 190.4,95.8 191.1,97.4 191.6,99.2 191.9,101.2 191.9,103.6 191.7,106.2 
				191.2,109.1 191,111.1 166,111.1 167.6,104.4 182.6,104.4 182.6,104.4 182.7,103.5 182.6,102.7 182.6,102 182.4,101.3 
				182.2,100.6 181.9,100 181.6,99.5 181.3,99.1 180.8,98.6 180.4,98.3 179.9,98 179.4,97.7 178.8,97.5 178.3,97.4 177.7,97.3 
				177.1,97.2 177.1,97.2 176.4,97.2 175.8,97.3 175.2,97.5 174.7,97.7 174.1,98 173.6,98.3 173,98.6 172.6,99.1 172.2,99.5 
				171.7,100 171.4,100.6 171.1,101.2 170.7,101.8 170.5,102.5 170.3,103.2 170.2,103.9 168.8,111 			"/>
		</g>
	</g>
	<polygon class="st2" points="250.5,92.4 250,92.1 249.6,91.9 249.1,91.7 248.6,91.5 248.1,91.2 247.5,91 246.9,90.8 246.3,90.6 
		245.6,90.5 245,90.3 244.3,90.2 243.5,90.1 242.8,90 242,89.9 241.1,89.9 240.3,89.9 239.4,89.9 238.5,90 237.6,90.1 236.7,90.3 
		235.7,90.6 234.7,90.9 233.8,91.4 232.8,92 231.9,92.8 231,93.7 230.2,94.8 229.3,96 228.6,97.5 227.9,99.3 227.2,101.2 
		226.7,103.4 226.5,104.6 226.3,105.8 226.2,107 226.3,108.2 226.4,109.3 226.6,110.4 226.9,111.4 227.3,112.5 227.8,113.4 
		228.4,114.3 229.2,115.1 230,115.8 230.9,116.4 232,116.9 233.1,117.4 234.4,117.7 234.9,117.8 235.4,117.9 236,118 236.7,118 
		237.4,118.1 238.2,118.1 239.1,118.1 239.9,118 240.8,117.9 241.7,117.7 242.6,117.5 243.4,117.2 244.3,116.9 245.1,116.4 
		245.8,115.9 246.5,115.2 244.9,124.4 244.7,124.6 244.5,124.8 244.3,125 244,125.2 243.6,125.5 243.1,125.7 242.5,126 241.9,126.2 
		241.1,126.4 240.3,126.6 239.2,126.7 238,126.9 236.7,126.9 235.2,127 233.4,126.9 231.5,126.8 229.9,126.6 228.3,126.3 
		226.8,125.8 225.2,125.1 223.7,124.3 222.2,123.3 220.9,122.1 219.6,120.7 218.5,119.2 217.5,117.4 216.7,115.5 216.1,113.4 
		215.7,111.1 215.5,108.7 215.6,106 216,103.2 216.3,101.8 216.6,100.4 216.9,99.1 217.2,97.8 217.6,96.6 218.1,95.4 218.5,94.3 
		219,93.2 219.5,92.2 220,91.2 220.6,90.2 221.2,89.3 221.8,88.5 222.5,87.7 223.2,86.9 223.9,86.2 224.7,85.5 225.5,84.8 
		226.3,84.3 227.2,83.7 228.1,83.2 229,82.8 230,82.3 231,82 232,81.6 233.1,81.4 234.2,81.1 235.4,80.9 236.5,80.7 237.8,80.6 
		239,80.5 240.3,80.5 241.4,80.5 242.4,80.6 243.5,80.7 244.5,80.8 245.5,81 246.4,81.2 247.3,81.4 248.1,81.6 248.9,81.8 249.6,82 
		250.2,82.2 250.8,82.4 251.2,82.5 251.7,82.7 252,82.8 252.2,82.9 	"/>
	<g>
		<g>
			<polyline class="st3" points="250.5,92.4 250.5,92.4 250,92.1 249.6,91.9 249.1,91.7 248.6,91.5 248.1,91.2 247.5,91 246.9,90.8 
				246.3,90.6 245.6,90.5 245,90.3 244.3,90.2 243.5,90.1 242.8,90 242,89.9 241.1,89.9 240.3,89.9 240.3,89.9 239.4,89.9 238.5,90 
				237.6,90.1 236.7,90.3 235.7,90.6 234.7,90.9 233.8,91.4 232.8,92 231.9,92.8 231,93.7 230.2,94.8 229.3,96 228.6,97.5 
				227.9,99.3 227.2,101.2 226.7,103.4 226.7,103.4 226.5,104.6 226.3,105.8 226.2,107 226.3,108.2 226.4,109.3 226.6,110.4 
				226.9,111.4 227.3,112.5 227.8,113.4 228.4,114.3 229.2,115.1 230,115.8 230.9,116.4 232,116.9 233.1,117.4 234.4,117.7 
				234.4,117.7 234.9,117.8 235.4,117.9 236,118 236.7,118 237.4,118.1 238.2,118.1 239.1,118.1 239.9,118 240.8,117.9 241.7,117.7 
				242.6,117.5 243.4,117.2 244.3,116.9 245.1,116.4 245.8,115.9 246.5,115.2 244.9,124.4 244.9,124.4 244.7,124.6 244.5,124.8 
				244.3,125 244,125.2 243.6,125.5 243.1,125.7 242.5,126 241.9,126.2 241.1,126.4 240.3,126.6 239.2,126.7 238,126.9 236.7,126.9 
				235.2,127 233.4,126.9 231.5,126.8 231.5,126.8 229.9,126.6 228.3,126.3 226.8,125.8 225.2,125.1 223.7,124.3 222.2,123.3 
				220.9,122.1 219.6,120.7 218.5,119.2 217.5,117.4 216.7,115.5 216.1,113.4 215.7,111.1 215.5,108.7 215.6,106 216,103.2 
				216,103.2 216.3,101.8 216.6,100.4 216.9,99.1 217.2,97.8 217.6,96.6 218.1,95.4 218.5,94.3 219,93.2 219.5,92.2 220,91.2 
				220.6,90.2 221.2,89.3 221.8,88.5 222.5,87.7 223.2,86.9 223.9,86.2 224.7,85.5 225.5,84.8 226.3,84.3 227.2,83.7 228.1,83.2 
				229,82.8 230,82.3 231,82 232,81.6 233.1,81.4 234.2,81.1 235.4,80.9 236.5,80.7 237.8,80.6 239,80.5 240.3,80.5 240.3,80.5 
				241.4,80.5 242.4,80.6 243.5,80.7 244.5,80.8 245.5,81 246.4,81.2 247.3,81.4 248.1,81.6 248.9,81.8 249.6,82 250.2,82.2 
				250.8,82.4 251.2,82.5 251.7,82.7 252,82.8 252.2,82.9 250.5,92.4 			"/>
		</g>
	</g>
	<polygon class="st2" points="334.8,127 325.3,127 326,123.2 326,122.8 325.4,123.5 324.8,124.1 324.2,124.7 323.6,125.2 323,125.6 
		322.4,126 321.8,126.3 321.1,126.6 320.5,126.9 319.8,127 319.2,127.2 318.5,127.3 317.8,127.4 317.2,127.5 316.5,127.5 
		315.8,127.5 314,127.4 312.4,127 310.9,126.4 309.5,125.6 308.3,124.6 307.2,123.5 306.2,122.2 305.4,120.8 304.7,119.2 
		304.1,117.6 303.8,115.9 303.5,114.2 303.4,112.4 303.4,110.7 303.6,108.9 303.9,107.2 304.4,105.1 305,103.2 305.8,101.5 
		306.6,99.8 307.5,98.3 308.5,96.9 309.6,95.7 310.7,94.6 311.9,93.6 313.2,92.7 314.5,92 315.8,91.4 317.2,90.9 318.5,90.6 
		319.9,90.4 321.3,90.3 322.3,90.4 323.2,90.5 324.1,90.6 325,90.9 325.7,91.1 326.4,91.5 327.1,91.8 327.7,92.2 328.3,92.6 
		328.8,93.1 329.2,93.5 329.6,94 330,94.4 330.3,94.8 330.6,95.3 330.8,95.7 330.8,95.7 333.2,82.2 342.5,82.2 	"/>
	<g>
		<g>
			<polyline class="st3" points="334.8,127 325.3,127 326,123.2 326,122.8 326,122.8 325.4,123.5 324.8,124.1 324.2,124.7 
				323.6,125.2 323,125.6 322.4,126 321.8,126.3 321.1,126.6 320.5,126.9 319.8,127 319.2,127.2 318.5,127.3 317.8,127.4 
				317.2,127.5 316.5,127.5 315.8,127.5 315.8,127.5 314,127.4 312.4,127 310.9,126.4 309.5,125.6 308.3,124.6 307.2,123.5 
				306.2,122.2 305.4,120.8 304.7,119.2 304.1,117.6 303.8,115.9 303.5,114.2 303.4,112.4 303.4,110.7 303.6,108.9 303.9,107.2 
				303.9,107.2 304.4,105.1 305,103.2 305.8,101.5 306.6,99.8 307.5,98.3 308.5,96.9 309.6,95.7 310.7,94.6 311.9,93.6 313.2,92.7 
				314.5,92 315.8,91.4 317.2,90.9 318.5,90.6 319.9,90.4 321.3,90.3 321.3,90.3 322.3,90.4 323.2,90.5 324.1,90.6 325,90.9 
				325.7,91.1 326.4,91.5 327.1,91.8 327.7,92.2 328.3,92.6 328.8,93.1 329.2,93.5 329.6,94 330,94.4 330.3,94.8 330.6,95.3 
				330.8,95.7 330.8,95.7 333.2,82.2 342.5,82.2 334.8,127 			"/>
		</g>
	</g>
	<polygon class="st0" points="319.2,118.7 320.2,118.6 321.1,118.4 321.9,118.2 322.7,117.8 323.4,117.4 324.1,116.9 324.8,116.3 
		325.3,115.7 325.8,115 326.3,114.3 326.8,113.5 327.2,112.6 327.5,111.8 327.8,110.9 328,110 328.2,109.1 328.3,108.1 328.5,107.1 
		328.5,106.2 328.4,105.2 328.3,104.3 328.2,103.5 327.9,102.6 327.7,101.9 327.3,101.2 326.9,100.5 326.5,100 326,99.5 325.4,99.1 
		324.8,98.8 324.1,98.6 323.4,98.6 322.5,98.6 321.6,98.8 320.8,99.1 320,99.4 319.3,99.8 318.7,100.4 318.1,101 317.5,101.6 
		317,102.4 316.5,103.2 316.1,104 315.7,104.9 315.3,105.8 315.1,106.7 314.8,107.7 314.6,108.7 314.4,110.2 314.5,111.9 
		314.7,113.5 315.2,115.1 315.9,116.5 316.7,117.7 317.9,118.4 	"/>
	<polygon class="st2" points="109,119.4 107.6,127 99,127 99.2,125.6 99.4,124.3 99.5,123.4 99.7,122.8 99.2,123.4 98.6,123.9 
		98,124.5 97.3,124.9 96.5,125.4 95.6,125.8 94.7,126.2 93.8,126.6 92.8,126.9 91.8,127.1 90.8,127.3 89.8,127.5 88.8,127.5 
		87.8,127.6 86.8,127.5 85.9,127.3 84.7,127 83.6,126.7 82.7,126.2 81.8,125.7 81,125.2 80.4,124.6 79.8,123.9 79.3,123.2 
		78.9,122.5 78.6,121.8 78.3,121 78.1,120.2 78,119.5 77.9,118.7 77.8,117.9 77.8,117.2 77.9,115.8 78.1,114.6 78.4,113.4 
		78.9,112.2 79.4,111.1 80,110.1 80.8,109.2 81.6,108.3 82.4,107.5 83.4,106.8 84.4,106.1 85.4,105.6 86.5,105.1 87.7,104.7 
		88.8,104.4 90,104.2 90.1,104.2 90.3,104.2 90.5,104.2 90.9,104.1 91.3,104.1 91.8,104 92.3,103.9 92.9,103.9 93.4,103.8 94,103.7 
		94.6,103.7 95.2,103.6 95.7,103.6 96.2,103.6 96.7,103.5 97.1,103.5 97.9,103.5 98.7,103.6 99.5,103.6 100.2,103.6 100.8,103.6 
		101.3,103.7 101.7,103.7 101.8,103.7 101.8,103.5 102,102.9 102.2,102.1 102.3,101.5 102.1,100.7 101.8,100 101.4,99.4 100.9,98.9 
		100.2,98.5 99.5,98.2 98.7,98 97.8,97.9 96.8,97.9 95.8,97.8 94.7,97.8 93.6,97.9 92.5,97.9 91.4,98 90.3,98.1 89.3,98.3 
		88.2,98.4 87.2,98.6 86.3,98.7 85.5,98.9 84.8,99.1 84.2,99.3 83.7,99.6 83.3,99.8 85.7,91.5 86.5,91.2 87.2,90.9 88.1,90.7 
		88.9,90.5 89.7,90.4 90.6,90.2 91.5,90.1 92.4,90 93.4,89.9 94.4,89.9 95.4,89.9 96.5,89.9 97.5,89.9 98.7,89.9 99.9,89.9 
		101.1,89.9 102,90 103.1,90.2 104.1,90.4 105.2,90.7 106.3,91.1 107.3,91.6 108.3,92.2 109.3,92.9 110.1,93.6 110.9,94.4 
		111.6,95.4 112.1,96.4 112.4,97.5 112.6,98.6 112.6,99.9 112.4,101.3 	"/>
	<g>
		<g>
			<polyline class="st3" points="109,119.4 107.6,127 99,127 99,127 99.2,125.6 99.4,124.3 99.5,123.4 99.7,122.8 99.7,122.8 
				99.2,123.4 98.6,123.9 98,124.5 97.3,124.9 96.5,125.4 95.6,125.8 94.7,126.2 93.8,126.6 92.8,126.9 91.8,127.1 90.8,127.3 
				89.8,127.5 88.8,127.5 87.8,127.6 86.8,127.5 85.9,127.3 85.9,127.3 84.7,127 83.6,126.7 82.7,126.2 81.8,125.7 81,125.2 
				80.4,124.6 79.8,123.9 79.3,123.2 78.9,122.5 78.6,121.8 78.3,121 78.1,120.2 78,119.5 77.9,118.7 77.8,117.9 77.8,117.2 
				77.8,117.2 77.9,115.8 78.1,114.6 78.4,113.4 78.9,112.2 79.4,111.1 80,110.1 80.8,109.2 81.6,108.3 82.4,107.5 83.4,106.8 
				84.4,106.1 85.4,105.6 86.5,105.1 87.7,104.7 88.8,104.4 90,104.2 90,104.2 90.1,104.2 90.3,104.2 90.5,104.2 90.9,104.1 
				91.3,104.1 91.8,104 92.3,103.9 92.9,103.9 93.4,103.8 94,103.7 94.6,103.7 95.2,103.6 95.7,103.6 96.2,103.6 96.7,103.5 
				97.1,103.5 97.1,103.5 97.9,103.5 98.7,103.6 99.5,103.6 100.2,103.6 100.8,103.6 101.3,103.7 101.7,103.7 101.8,103.7 
				101.8,103.7 101.8,103.5 102,102.9 102.2,102.1 102.3,101.5 102.3,101.5 102.1,100.7 101.8,100 101.4,99.4 100.9,98.9 
				100.2,98.5 99.5,98.2 98.7,98 97.8,97.9 97.8,97.9 96.8,97.9 95.8,97.8 94.7,97.8 93.6,97.9 92.5,97.9 91.4,98 90.3,98.1 
				89.3,98.3 88.2,98.4 87.2,98.6 86.3,98.7 85.5,98.9 84.8,99.1 84.2,99.3 83.7,99.6 83.3,99.8 85.7,91.5 85.7,91.5 86.5,91.2 
				87.2,90.9 88.1,90.7 88.9,90.5 89.7,90.4 90.6,90.2 91.5,90.1 92.4,90 93.4,89.9 94.4,89.9 95.4,89.9 96.5,89.9 97.5,89.9 
				98.7,89.9 99.9,89.9 101.1,89.9 101.1,89.9 102,90 103.1,90.2 104.1,90.4 105.2,90.7 106.3,91.1 107.3,91.6 108.3,92.2 
				109.3,92.9 110.1,93.6 110.9,94.4 111.6,95.4 112.1,96.4 112.4,97.5 112.6,98.6 112.6,99.9 112.4,101.3 109,119.4 			"/>
		</g>
	</g>
	<polygon class="st1" points="100.7,110.5 100.7,110.3 100.6,110.1 100.4,110 100,109.9 99.6,109.9 99.2,109.8 98.7,109.8 
		98.2,109.8 97.6,109.9 97,109.9 96.5,110 95.9,110.1 95.4,110.1 94.9,110.2 94.5,110.4 94.2,110.5 93.9,110.5 93.6,110.6 
		93.3,110.8 92.9,110.9 92.4,111.1 92,111.4 91.5,111.6 91.1,111.9 90.6,112.2 90.2,112.6 89.7,113 89.4,113.4 89,113.8 88.8,114.3 
		88.6,114.9 88.5,115.4 88.4,116.6 88.6,117.5 89,118.2 89.4,118.7 89.9,119 90.5,119.3 91,119.4 91.6,119.4 92.6,119.4 93.5,119.3 
		94.4,119.1 95.2,118.9 95.9,118.7 96.6,118.4 97.1,118.1 97.6,117.7 98.1,117.3 98.5,116.9 98.8,116.5 99.1,116.1 99.4,115.7 
		99.6,115.3 99.7,114.9 99.8,114.6 100.1,113.6 100.4,112.4 100.6,111.3 	"/>
	<polygon class="st2" points="36.9,127 27.6,127 35.4,82 51.6,82 53.1,108.7 64.3,82 81.2,82 73.3,127 64,127 69.9,93.4 69.5,93.4 
		55.6,127 45.1,127 45,125.6 44.7,121.9 44.4,116.5 44.1,110.5 43.8,104.3 43.4,98.9 43.2,95 43.1,93.4 43,93.4 42.8,93.4 
		42.6,93.4 42.6,93.4 	"/>
	<g>
		<g>
			<polyline class="st3" points="36.9,127 27.6,127 35.4,82 51.6,82 53.1,108.7 64.3,82 81.2,82 73.3,127 64,127 69.9,93.4 
				69.5,93.4 55.6,127 45.1,127 45.1,127 45,125.6 44.7,121.9 44.4,116.5 44.1,110.5 43.8,104.3 43.4,98.9 43.2,95 43.1,93.4 
				43.1,93.4 43,93.4 42.8,93.4 42.6,93.4 42.6,93.4 36.9,127 			"/>
		</g>
	</g>
	<polygon class="st2" points="278.9,119.4 277.5,127 268.9,127 269,125.6 269,124.4 269,123.4 269.1,123 268.6,123.5 268.1,124 
		267.5,124.5 266.8,125 266.1,125.5 265.3,125.9 264.4,126.3 263.6,126.6 262.6,126.9 261.7,127.2 260.7,127.3 259.8,127.5 
		258.8,127.5 257.8,127.6 256.9,127.5 256,127.3 254.7,127 253.6,126.7 252.7,126.2 251.8,125.7 251,125.2 250.4,124.6 249.8,123.9 
		249.4,123.2 248.9,122.5 248.6,121.8 248.4,121 248.2,120.2 248.1,119.5 248,118.7 247.9,117.9 247.9,117.2 248,115.8 248.2,114.6 
		248.5,113.4 248.9,112.2 249.4,111.1 250.1,110.1 250.8,109.2 251.6,108.3 252.5,107.5 253.4,106.8 254.4,106.1 255.5,105.6 
		256.5,105.1 257.6,104.7 258.8,104.4 259.9,104.2 260,104.2 260.2,104.2 260.4,104.2 260.8,104.1 261.2,104.1 261.7,104 
		262.2,103.9 262.7,103.9 263.3,103.8 263.9,103.7 264.5,103.7 265.1,103.6 265.7,103.6 266.1,103.6 266.6,103.5 267,103.5 
		267.8,103.5 268.6,103.6 269.4,103.6 270.2,103.6 270.8,103.6 271.4,103.7 271.7,103.7 271.8,103.7 271.9,103.5 272,102.9 
		272.1,102.1 272.2,101.5 272,100.7 271.8,100 271.3,99.4 270.8,98.9 270.2,98.5 269.5,98.2 268.7,98 267.9,97.9 266.9,97.9 
		265.9,97.8 264.8,97.8 263.7,97.9 262.6,97.9 261.5,98 260.4,98.1 259.4,98.3 258.3,98.4 257.3,98.6 256.4,98.7 255.6,98.9 
		254.9,99.1 254.3,99.3 253.8,99.6 253.4,99.8 255.8,91.5 256.6,91.2 257.3,90.9 258.1,90.7 258.9,90.5 259.8,90.4 260.7,90.2 
		261.5,90.1 262.5,90 263.4,89.9 264.4,89.9 265.4,89.9 266.5,89.9 267.5,89.9 268.6,89.9 269.8,89.9 271,89.9 271.9,90 273,90.2 
		274,90.4 275.1,90.7 276.2,91.1 277.2,91.6 278.3,92.2 279.2,92.9 280.1,93.6 280.9,94.4 281.5,95.4 282.1,96.4 282.4,97.5 
		282.7,98.6 282.7,99.9 282.5,101.3 	"/>
	<polygon class="st2" points="277.5,127.2 277.7,127 279.1,119.4 278.7,119.4 277.3,127 277.5,126.8 277.5,127.2 277.7,127.2 
		277.7,127 	"/>
	<polygon class="st2" points="268.7,127 268.9,127.2 277.5,127.2 277.5,126.8 268.9,126.8 269.1,127 268.7,127 268.7,127.2 
		268.9,127.2 	"/>
	<polygon class="st2" points="269.3,123.2 268.9,122.9 268.8,123.4 268.8,124.4 268.8,125.6 268.7,127 269.1,127 269.2,125.6 
		269.3,124.4 269.2,123.4 269.2,123.2 268.9,122.9 	"/>
	<polygon class="st2" points="255.9,127.5 255.9,127.5 256.9,127.7 257.8,127.8 258.8,127.7 259.8,127.7 260.8,127.5 261.7,127.4 
		262.7,127.1 263.6,126.8 264.5,126.5 265.4,126.1 266.2,125.7 266.9,125.2 267.6,124.7 268.3,124.2 268.8,123.7 269.3,123.2 
		268.9,122.9 268.5,123.4 268,123.9 267.4,124.4 266.7,124.8 266,125.2 265.2,125.7 264.4,126.1 263.5,126.4 262.6,126.7 261.7,127 
		260.7,127.1 259.8,127.3 258.8,127.3 257.8,127.4 256.9,127.3 256,127.1 256,127.1 	"/>
	<polygon class="st2" points="247.6,117.2 247.6,117.2 247.7,117.9 247.8,118.7 247.9,119.5 248,120.3 248.2,121 248.4,121.8 
		248.7,122.6 249.2,123.3 249.7,124 250.2,124.7 250.9,125.3 251.7,125.9 252.6,126.4 253.6,126.9 254.7,127.2 255.9,127.5 
		256,127.1 254.8,126.8 253.7,126.5 252.8,126 251.9,125.6 251.2,125 250.6,124.4 250,123.8 249.5,123.1 249.2,122.4 248.8,121.7 
		248.6,121 248.4,120.2 248.3,119.4 248.2,118.7 248.1,117.9 248.1,117.2 248.1,117.2 	"/>
	<polygon class="st2" points="259.9,104 259.9,104 258.7,104.2 257.6,104.5 256.4,104.9 255.4,105.4 254.3,105.9 253.3,106.6 
		252.3,107.3 251.4,108.2 250.6,109 249.9,110 249.2,111 248.7,112.1 248.3,113.3 248,114.5 247.8,115.8 247.6,117.2 248.1,117.2 
		248.2,115.8 248.4,114.6 248.7,113.4 249.1,112.3 249.6,111.2 250.3,110.2 251,109.3 251.7,108.4 252.6,107.7 253.5,107 
		254.5,106.3 255.6,105.8 256.6,105.3 257.7,104.9 258.8,104.6 259.9,104.4 259.9,104.4 	"/>
	<polygon class="st2" points="267,103.3 267,103.3 266.6,103.3 266.1,103.4 265.7,103.4 265.1,103.4 264.5,103.5 263.9,103.5 
		263.3,103.6 262.7,103.7 262.2,103.7 261.7,103.8 261.2,103.8 260.8,103.9 260.4,103.9 260.1,104 260,104 259.9,104 259.9,104.4 
		260,104.4 260.2,104.4 260.4,104.4 260.8,104.3 261.2,104.3 261.7,104.2 262.2,104.2 262.7,104.1 263.3,104 263.9,103.9 
		264.5,103.9 265.1,103.8 265.7,103.8 266.1,103.8 266.6,103.8 267,103.8 267,103.8 	"/>
	<polygon class="st2" points="271.6,103.7 271.8,103.5 271.7,103.5 271.4,103.5 270.8,103.4 270.2,103.4 269.4,103.4 268.6,103.4 
		267.8,103.3 267,103.3 267,103.8 267.8,103.8 268.6,103.8 269.4,103.8 270.2,103.8 270.8,103.8 271.4,103.9 271.7,103.9 
		271.8,103.9 272,103.7 271.8,103.9 272,103.9 272,103.7 	"/>
	<polygon class="st2" points="272,101.5 271.9,101.5 271.9,102.1 271.8,102.8 271.7,103.4 271.6,103.7 272,103.7 272.1,103.5 
		272.2,102.9 272.3,102.1 272.4,101.5 272.4,101.5 	"/>
	<polygon class="st2" points="267.9,98.1 267.9,98.1 268.7,98.2 269.4,98.4 270.1,98.7 270.7,99.1 271.1,99.6 271.5,100.1 
		271.8,100.8 272,101.5 272.4,101.5 272.2,100.7 272,99.9 271.5,99.3 270.9,98.7 270.3,98.3 269.5,98 268.7,97.8 267.9,97.6 
		267.9,97.7 	"/>
	<polygon class="st2" points="253.2,99.7 253.5,99.9 253.9,99.8 254.3,99.5 254.9,99.3 255.7,99.1 256.5,98.9 257.4,98.8 
		258.4,98.6 259.4,98.5 260.4,98.3 261.5,98.2 262.6,98.1 263.7,98.1 264.8,98.1 265.9,98.1 266.9,98.1 267.9,98.1 267.9,97.7 
		266.9,97.6 265.9,97.6 264.8,97.6 263.7,97.6 262.6,97.7 261.5,97.8 260.4,97.9 259.4,98.1 258.3,98.2 257.3,98.4 256.4,98.5 
		255.6,98.7 254.8,98.9 254.2,99.1 253.7,99.4 253.3,99.6 253.6,99.8 	"/>
	<polygon class="st2" points="255.7,91.3 255.6,91.5 253.2,99.7 253.6,99.8 256,91.6 255.9,91.7 255.7,91.3 255.6,91.3 255.6,91.5 	
		"/>
	<polygon class="st2" points="271,89.7 271,89.7 269.8,89.7 268.6,89.6 267.5,89.6 266.5,89.6 265.4,89.6 264.4,89.7 263.4,89.7 
		262.5,89.8 261.5,89.9 260.6,90 259.8,90.2 258.9,90.3 258.1,90.5 257.3,90.7 256.5,91 255.7,91.3 255.9,91.7 256.6,91.4 
		257.4,91.1 258.2,90.9 259,90.7 259.8,90.6 260.7,90.4 261.5,90.3 262.5,90.2 263.4,90.2 264.4,90.1 265.4,90.1 266.5,90.1 
		267.5,90.1 268.6,90.1 269.8,90.2 271,90.2 271,90.2 	"/>
	<polygon class="st2" points="282.7,101.3 282.7,101.3 282.9,99.9 282.9,98.6 282.6,97.4 282.3,96.3 281.7,95.3 281,94.3 
		280.2,93.4 279.4,92.7 278.4,92 277.3,91.4 276.2,90.9 275.2,90.5 274,90.2 273,90 271.9,89.8 271,89.7 271,90.2 271.9,90.2 
		272.9,90.4 274,90.6 275,90.9 276.1,91.3 277.1,91.8 278.2,92.4 279.1,93 279.9,93.8 280.7,94.6 281.4,95.5 281.9,96.5 282.2,97.5 
		282.5,98.6 282.5,99.9 282.3,101.3 282.3,101.3 	"/>
	<polygon class="st2" points="279.1,119.4 279.1,119.4 282.7,101.3 282.3,101.3 278.7,119.4 278.7,119.4 	"/>
	<polygon class="st0" points="270.6,110.5 270.6,110.2 270.4,110.1 270.2,110 269.8,109.9 269.5,109.8 269,109.8 268.5,109.8 
		268,109.8 267.4,109.9 266.9,110 266.3,110 265.8,110.1 265.3,110.2 264.9,110.3 264.4,110.4 264.1,110.5 263.8,110.5 263.6,110.6 
		263.2,110.7 262.9,110.8 262.4,111 262,111.2 261.5,111.5 261.1,111.8 260.6,112.1 260.2,112.5 259.8,112.9 259.4,113.3 
		259.1,113.8 258.9,114.3 258.7,114.8 258.6,115.4 258.5,116.6 258.7,117.5 259,118.2 259.4,118.7 259.9,119 260.5,119.3 
		261.1,119.4 261.7,119.4 262.7,119.4 263.6,119.3 264.5,119.1 265.3,118.8 266.1,118.6 266.7,118.3 267.3,117.9 267.9,117.5 
		268.4,117.1 268.8,116.7 269.2,116.3 269.5,115.8 269.7,115.4 269.9,115 270,114.6 270.1,114.2 270.2,113.3 270.4,112.3 
		270.6,111.3 	"/>
	<g>
		<g>
			<polygon class="st2" points="341.2,122.3 341.2,121.5 341.5,120.6 342,119.8 342.6,119 343.3,118.5 344.1,118.1 345,117.8 
				345.9,117.7 346.9,117.8 347.8,118.1 348.6,118.5 349.3,119 349.9,119.8 350.4,120.6 350.7,121.5 350.7,122.3 349.7,122.3 
				349.7,121.7 349.5,120.9 349.1,120.2 348.7,119.7 348.1,119.2 347.5,118.8 346.7,118.6 345.9,118.5 345.2,118.6 344.4,118.8 
				343.8,119.2 343.2,119.7 342.8,120.2 342.4,120.9 342.2,121.7 342.1,122.3 			"/>
			<polygon class="st2" points="344.2,122.3 344.2,120.2 346.1,120.2 346.5,120.3 346.9,120.3 347.2,120.5 347.4,120.6 347.6,120.8 
				347.7,121 347.8,121.2 347.8,121.5 347.8,121.8 347.7,122 347.6,122.2 347.6,122.3 346.1,122.3 346.3,122.3 346.5,122.2 
				346.7,122.2 346.9,122.1 347,122 347.1,121.9 347.1,121.7 347.1,121.5 347.1,121.3 347,121.2 346.9,121.1 346.8,121 346.7,121 
				346.5,121 346.3,121 346.1,121 345.1,121 345.1,122.3 			"/>
			<polygon class="st2" points="341.2,122.3 341.1,122.5 341.2,123.5 341.5,124.4 342,125.2 342.6,125.9 343.3,126.5 344.1,127 
				345,127.2 345.9,127.3 346.9,127.2 347.8,127 348.6,126.5 349.3,125.9 349.9,125.2 350.4,124.4 350.7,123.5 350.8,122.5 
				350.7,122.3 349.7,122.3 349.7,122.5 349.7,123.3 349.5,124.1 349.1,124.7 348.7,125.3 348.1,125.8 347.5,126.2 346.7,126.4 
				345.9,126.5 345.2,126.4 344.4,126.2 343.8,125.8 343.2,125.3 342.8,124.7 342.4,124.1 342.2,123.3 342.1,122.5 342.1,122.3 			
				"/>
			<polygon class="st2" points="344.2,122.3 344.2,124.4 345.1,124.4 345.1,122.7 345.9,122.7 347,124.4 347.7,124.4 346.6,122.7 
				346.9,122.7 347.1,122.6 347.3,122.5 347.5,122.4 347.6,122.3 346.1,122.3 345.9,122.3 345.1,122.3 345.1,122.3 			"/>
		</g>
	</g>
	<g>
		<g>
			<polyline class="st3" points="341.1,122.5 341.1,122.5 341.2,121.5 341.5,120.6 342,119.8 342.6,119 343.3,118.5 344.1,118.1 
				345,117.8 345.9,117.7 345.9,117.7 346.9,117.8 347.8,118.1 348.6,118.5 349.3,119 349.9,119.8 350.4,120.6 350.7,121.5 
				350.8,122.5 350.8,122.5 350.7,123.5 350.4,124.4 349.9,125.2 349.3,125.9 348.6,126.5 347.8,127 346.9,127.2 345.9,127.3 
				345.9,127.3 345,127.2 344.1,127 343.3,126.5 342.6,125.9 342,125.2 341.5,124.4 341.2,123.5 341.1,122.5 			"/>
		</g>
	</g>
	<g>
		<g>
			<polyline class="st3" points="345.1,124.4 344.2,124.4 344.2,120.2 346.1,120.2 346.1,120.2 346.5,120.3 346.9,120.3 
				347.2,120.5 347.4,120.6 347.6,120.8 347.7,121 347.8,121.2 347.8,121.5 347.8,121.5 347.8,121.8 347.7,122 347.6,122.2 
				347.5,122.4 347.3,122.5 347.1,122.6 346.9,122.7 346.6,122.7 347.7,124.4 347,124.4 345.9,122.7 345.1,122.7 345.1,124.4 			"/>
		</g>
	</g>
	<g>
		<g>
			<polyline class="st3" points="345.9,122.3 345.9,122.3 346.3,122.3 346.5,122.2 346.7,122.2 346.9,122.1 347,122 347.1,121.9 
				347.1,121.7 347.1,121.5 347.1,121.5 347.1,121.3 347,121.2 346.9,121.1 346.8,121 346.7,121 346.5,121 346.3,121 346.1,121 
				345.1,121 345.1,122.3 345.9,122.3 			"/>
		</g>
	</g>
	<g>
		<g>
			<polyline class="st3" points="345.9,126.5 345.9,126.5 346.7,126.4 347.5,126.2 348.1,125.8 348.7,125.3 349.1,124.7 
				349.5,124.1 349.7,123.3 349.7,122.5 349.7,122.5 349.7,121.7 349.5,120.9 349.1,120.2 348.7,119.7 348.1,119.2 347.5,118.8 
				346.7,118.6 345.9,118.5 345.9,118.5 345.2,118.6 344.4,118.8 343.8,119.2 343.2,119.7 342.8,120.2 342.4,120.9 342.2,121.7 
				342.1,122.5 342.1,122.5 342.2,123.3 342.4,124.1 342.8,124.7 343.2,125.3 343.8,125.8 344.4,126.2 345.2,126.4 345.9,126.5 			
				"/>
		</g>
	</g>
	<polygon class="st2" points="281.5,127 291.1,127 291.1,127 294.6,107.5 294.7,106.8 294.9,106 295.1,105.2 295.4,104.5 
		295.8,103.7 296.2,103 296.6,102.3 297.2,101.7 297.8,101.1 298.5,100.6 299.2,100 300.1,99.6 301.1,99.3 302.2,99 303.4,98.8 
		304.8,98.7 305.2,98.7 305.5,98.7 305.6,98.7 305.6,98.7 307.2,89.9 306.2,90 305.3,90.1 304.4,90.3 303.6,90.5 302.8,90.8 
		302.1,91.1 301.4,91.5 300.8,91.9 300.2,92.4 299.6,92.9 299,93.4 298.5,94 298,94.6 297.5,95.2 297,95.8 296.5,96.5 297.5,90.3 
		287.9,90.3 281.5,127 	"/>
	<g>
		<g>
			<polyline class="st3" points="281.5,127 291.1,127 291.1,127 294.6,107.5 294.6,107.5 294.7,106.8 294.9,106 295.1,105.2 
				295.4,104.5 295.8,103.7 296.2,103 296.6,102.3 297.2,101.7 297.8,101.1 298.5,100.6 299.2,100 300.1,99.6 301.1,99.3 302.2,99 
				303.4,98.8 304.8,98.7 304.8,98.7 305.2,98.7 305.5,98.7 305.6,98.7 305.6,98.7 307.2,89.9 307.2,89.9 306.2,90 305.3,90.1 
				304.4,90.3 303.6,90.5 302.8,90.8 302.1,91.1 301.4,91.5 300.8,91.9 300.2,92.4 299.6,92.9 299,93.4 298.5,94 298,94.6 
				297.5,95.2 297,95.8 296.5,96.5 297.5,90.3 287.9,90.3 281.5,127 281.5,127 			"/>
		</g>
	</g>
	<polygon class="st2" points="190.8,127 200.5,127 200.6,127 203.9,107.5 204.1,106.8 204.2,106 204.4,105.3 204.6,104.6 
		204.9,103.9 205.3,103.3 205.7,102.7 206.2,102.1 206.7,101.6 207.3,101.1 208.1,100.7 208.9,100.3 209.8,100 210.9,99.7 
		212.1,99.5 213.4,99.4 213.5,99.4 213.6,99.5 213.8,99.5 214,99.5 214.2,99.5 214.3,99.6 214.4,99.6 214.4,99.6 214.5,99.5 
		214.6,99.1 214.7,98.4 214.9,97.7 215.1,96.8 215.4,95.8 215.7,94.9 216,93.9 216.3,93.3 216.6,92.6 216.9,92 217.3,91.4 
		217.6,90.9 217.8,90.5 218,90.2 218.1,90.1 218,90.1 217.9,90.1 217.7,90 217.5,90 217.2,90 217,90 216.7,89.9 216.5,89.9 
		215.4,90 214.5,90.1 213.6,90.3 212.8,90.5 212,90.8 211.3,91.1 210.6,91.5 210,91.9 209.4,92.3 208.9,92.8 208.3,93.3 207.8,93.9 
		207.3,94.5 206.8,95.1 206.3,95.8 205.8,96.5 207,90.3 197.2,90.3 190.8,127 	"/>
	<g>
		<g>
			<polyline class="st3" points="190.8,127 200.5,127 200.6,127 203.9,107.5 203.9,107.5 204.1,106.8 204.2,106 204.4,105.3 
				204.6,104.6 204.9,103.9 205.3,103.3 205.7,102.7 206.2,102.1 206.7,101.6 207.3,101.1 208.1,100.7 208.9,100.3 209.8,100 
				210.9,99.7 212.1,99.5 213.4,99.4 213.4,99.4 213.5,99.4 213.6,99.5 213.8,99.5 214,99.5 214.2,99.5 214.3,99.6 214.4,99.6 
				214.4,99.6 214.4,99.6 214.5,99.5 214.6,99.1 214.7,98.4 214.9,97.7 215.1,96.8 215.4,95.8 215.7,94.9 216,93.9 216,93.9 
				216.3,93.3 216.6,92.6 216.9,92 217.3,91.4 217.6,90.9 217.8,90.5 218,90.2 218.1,90.1 218.1,90.1 218,90.1 217.9,90.1 217.7,90 
				217.5,90 217.2,90 217,90 216.7,89.9 216.5,89.9 216.5,89.9 215.4,90 214.5,90.1 213.6,90.3 212.8,90.5 212,90.8 211.3,91.1 
				210.6,91.5 210,91.9 209.4,92.3 208.9,92.8 208.3,93.3 207.8,93.9 207.3,94.5 206.8,95.1 206.3,95.8 205.8,96.5 207,90.3 
				197.2,90.3 190.8,127 190.8,127 			"/>
		</g>
	</g>
	<g>
		<g>
			<polygon class="st0" points="341.2,163 341.2,162.9 341.5,162 342,161.2 342.6,160.5 343.3,160 344.1,159.6 345,159.3 
				345.9,159.2 346.9,159.3 347.8,159.6 348.6,160 349.3,160.5 349.9,161.2 350.4,162 350.7,162.9 350.7,163 349.7,163 349.5,162.3 
				349.1,161.6 348.7,161.1 348.1,160.6 347.5,160.2 346.7,160 345.9,159.9 345.2,160 344.4,160.2 343.8,160.6 343.2,161.1 
				342.8,161.6 342.4,162.3 342.2,163 			"/>
			<polygon class="st0" points="344.2,163 344.2,161.8 346.1,161.8 346.5,161.8 346.9,161.9 347.2,161.9 347.4,162.1 347.6,162.3 
				347.7,162.5 347.8,162.7 347.8,163 347.1,163 347.1,162.8 347.1,162.7 347,162.5 346.9,162.5 346.8,162.4 346.7,162.4 
				346.5,162.3 346.3,162.3 346.1,162.3 345.1,162.3 345.1,163 			"/>
			<polygon class="st0" points="341.1,163.8 341.2,163 342.2,163 342.2,163 342.1,163.8 			"/>
			<polygon class="st0" points="344.2,163.8 344.2,163 345.1,163 345.1,163.7 345.9,163.7 346.3,163.6 346.5,163.6 346.7,163.5 
				346.9,163.5 347,163.4 347.1,163.2 347.1,163.1 347.1,163 347.8,163 347.8,163 347.8,163.2 347.7,163.5 347.6,163.6 347.5,163.8 
							"/>
			<polygon class="st0" points="349.7,163.8 349.7,163 349.7,163 350.7,163 350.8,163.8 			"/>
			<polygon class="st0" points="341.1,163.8 341.1,163.9 341.2,164.9 341.5,165.8 342,166.6 342.6,167.3 343.3,167.9 344.1,168.3 
				345,168.6 345.9,168.7 346.9,168.6 347.8,168.3 348.6,167.9 349.3,167.3 349.9,166.6 350.4,165.8 350.7,164.9 350.8,163.9 
				350.8,163.8 349.7,163.8 349.7,163.9 349.7,164.7 349.5,165.4 349.1,166.1 348.7,166.7 348.1,167.2 347.5,167.5 346.7,167.8 
				345.9,167.8 345.2,167.8 344.4,167.5 343.8,167.2 343.2,166.7 342.8,166.1 342.4,165.4 342.2,164.7 342.1,163.9 342.1,163.8 			
				"/>
			<polygon class="st0" points="344.2,163.8 344.2,165.7 345.1,165.7 345.1,164 345.9,164 347,165.7 347.7,165.7 346.6,164 
				346.9,164 347.1,164 347.3,163.9 347.5,163.8 347.5,163.8 			"/>
		</g>
	</g>
</g>
</svg>
