<?xml version="1.0" encoding="utf-8"?>
<!-- Generator: Adobe Illustrator 19.0.1, SVG Export Plug-In . SVG Version: 6.00 Build 0)  -->
<svg version="1.1" id="Слой_1" xmlns="http://www.w3.org/2000/svg" xmlns:xlink="http://www.w3.org/1999/xlink" x="0px" y="0px"
	 viewBox="-104 164 290 174" style="enable-background:new -104 164 290 174;" xml:space="preserve">
<style type="text/css">
	.st0{fill:#E9A94D;}
	.st1{fill:#D14A48;}
	.st2{fill:#FFFFFF;}
	.st3{fill:none;stroke:#FFFFFF;stroke-width:0.215;}
</style>
<g>
	<polygon class="st0" points="99,337.6 103.4,337.5 107.8,337.2 112.2,336.6 116.5,335.9 120.6,334.9 124.8,333.8 128.8,332.4 
		132.7,330.8 136.6,329.1 140.3,327.2 144,325.1 147.5,322.8 150.9,320.4 154.2,317.8 157.3,315.1 160.3,312.2 163.2,309.2 
		165.9,306 168.5,302.8 170.9,299.4 173.2,295.8 175.3,292.2 177.2,288.5 178.9,284.6 180.5,280.7 181.9,276.6 183,272.5 184,268.3 
		184.8,264 185.3,259.7 185.6,255.3 185.8,250.8 185.6,246.4 185.3,242 184.8,237.7 184,233.5 183,229.3 181.9,225.2 180.5,221.1 
		178.9,217.2 177.2,213.4 175.3,209.7 173.2,206.1 170.9,202.5 168.5,199.1 165.9,195.9 163.2,192.7 160.3,189.7 157.3,186.9 
		154.2,184.1 150.9,181.6 147.5,179.1 144,176.9 140.3,174.8 136.6,172.9 132.7,171.2 128.8,169.6 124.8,168.2 120.6,167.1 
		116.5,166.1 112.2,165.4 107.8,164.8 103.4,164.5 99,164.4 94.5,164.5 90.1,164.8 85.8,165.4 81.5,166.1 77.3,167.1 73.2,168.2 
		69.2,169.6 65.3,171.2 61.4,172.9 57.7,174.8 54.1,176.9 50.6,179.1 47.2,181.6 43.9,184.1 40.8,186.9 37.8,189.7 34.9,192.7 
		32.2,195.9 29.6,199.1 27.2,202.5 25,206.1 22.9,209.7 21,213.4 19.3,217.2 17.7,221.1 16.4,225.2 15.2,229.3 14.2,233.5 
		13.5,237.7 12.9,242 12.6,246.4 12.5,250.8 12.6,255.3 12.9,259.7 13.5,264 14.2,268.3 15.2,272.5 16.4,276.6 17.7,280.7 
		19.3,284.6 21,288.5 22.9,292.2 25,295.8 27.2,299.4 29.6,302.8 32.2,306 34.9,309.2 37.8,312.2 40.8,315.1 43.9,317.8 47.2,320.4 
		50.6,322.8 54.1,325.1 57.7,327.2 61.4,329.1 65.3,330.8 69.2,332.4 73.2,333.8 77.3,334.9 81.5,335.9 85.8,336.6 90.1,337.2 
		94.5,337.5 	"/>
	<polygon class="st1" points="-17,337.6 -12.5,337.5 -8.1,337.2 -3.8,336.6 0.5,335.9 4.7,334.9 8.8,333.8 12.8,332.4 16.7,330.8 
		20.6,329.1 24.3,327.2 27.9,325.1 31.4,322.8 34.8,320.4 38.1,317.8 41.2,315.1 44.2,312.2 47.1,309.2 49.8,306 52.4,302.8 
		54.8,299.4 57,295.8 59.1,292.2 61,288.5 62.7,284.6 64.3,280.7 65.6,276.6 66.8,272.5 67.8,268.3 68.5,264 69.1,259.7 69.4,255.3 
		69.5,250.8 69.4,246.4 69.1,242 68.5,237.7 67.8,233.5 66.8,229.3 65.6,225.2 64.3,221.1 62.7,217.2 61,213.4 59.1,209.7 57,206.1 
		54.8,202.5 52.4,199.1 49.8,195.9 47.1,192.7 44.2,189.7 41.2,186.9 38.1,184.1 34.8,181.6 31.4,179.1 27.9,176.9 24.3,174.8 
		20.6,172.9 16.7,171.2 12.8,169.6 8.8,168.2 4.7,167.1 0.5,166.1 -3.8,165.4 -8.1,164.8 -12.5,164.5 -17,164.4 -21.4,164.5 
		-25.8,164.8 -30.2,165.4 -34.5,166.1 -38.6,167.1 -42.8,168.2 -46.8,169.6 -50.7,171.2 -54.6,172.9 -58.3,174.8 -62,176.9 
		-65.5,179.1 -68.9,181.6 -72.2,184.1 -75.3,186.9 -78.3,189.7 -81.2,192.7 -83.9,195.9 -86.5,199.1 -88.9,202.5 -91.2,206.1 
		-93.3,209.7 -95.2,213.4 -96.9,217.2 -98.5,221.1 -99.9,225.2 -101,229.3 -102,233.5 -102.8,237.7 -103.3,242 -103.6,246.4 
		-103.8,250.8 -103.6,255.3 -103.3,259.7 -102.8,264 -102,268.3 -101,272.5 -99.9,276.6 -98.5,280.7 -96.9,284.6 -95.2,288.5 
		-93.3,292.2 -91.2,295.8 -88.9,299.4 -86.5,302.8 -83.9,306 -81.2,309.2 -78.3,312.2 -75.3,315.1 -72.2,317.8 -68.9,320.4 
		-65.5,322.8 -62,325.1 -58.3,327.2 -54.6,329.1 -50.7,330.8 -46.8,332.4 -42.8,333.8 -38.6,334.9 -34.5,335.9 -30.2,336.6 
		-25.8,337.2 -21.4,337.5 	"/>
	<polygon class="st0" points="30.9,197.6 76.9,197.6 76.9,192.9 34.8,192.9 	"/>
	<polygon class="st0" points="24,208.1 76.9,208.1 76.9,203.3 26.7,203.3 	"/>
	<polygon class="st0" points="18.8,218.5 76.9,218.5 76.9,213.8 20.9,213.8 	"/>
	<polygon class="st0" points="15.3,228.9 76.9,228.9 76.9,224.2 16.7,224.2 	"/>
	<polygon class="st0" points="17.3,279.5 77,279.5 77,274.8 15.9,274.8 	"/>
	<polygon class="st0" points="21.7,290 77,290 77,285.3 19.5,285.3 	"/>
	<polygon class="st0" points="27.9,300.4 77,300.4 77,295.7 25,295.7 	"/>
	<polygon class="st0" points="36.5,310.9 77,310.9 77,306.1 32.3,306.1 	"/>
	<polygon class="st0" points="13.2,239.4 76.9,239.4 76.9,234.7 14.1,234.7 	"/>
	<polygon class="st0" points="52,269.1 76.3,269.1 76.3,264.4 52.9,264.4 	"/>
	<polygon class="st0" points="53.9,258.6 76.3,258.6 76.3,253.9 54.8,253.9 	"/>
	<polygon class="st0" points="11.6,253.9 17.9,253.9 17.9,258.6 11.9,258.6 	"/>
	<polygon class="st2" points="-0.2,248.2 -0.6,248.2 -1,248.1 -1.4,248.1 -1.8,248 -2.1,247.9 -2.5,247.9 -2.9,247.8 -3.3,247.8 
		-3.7,247.7 -4.2,247.7 -4.7,247.7 -5.2,247.6 -5.8,247.6 -6.5,247.7 -7.3,247.7 -8.1,247.8 -8.7,247.9 -9.3,247.9 -9.8,248.1 
		-10.2,248.3 -10.6,248.5 -11,248.7 -11.3,249 -11.5,249.3 -11.7,249.6 -11.9,249.9 -11.9,250.3 -11.9,250.6 -11.8,251 -11.7,251.4 
		-11.5,251.8 -11.2,252.2 -10.6,252.7 -9.9,253.1 -9.1,253.5 -8.2,253.8 -7.3,254.1 -6.3,254.5 -5.4,254.8 -4.4,255.2 -3.5,255.7 
		-2.7,256.3 -2,257 -1.4,257.9 -0.9,259.1 -0.6,260.4 -0.5,261.9 -0.6,263.8 -0.8,265.2 -1.2,266.4 -1.6,267.5 -2.2,268.4 
		-2.9,269.3 -3.7,270 -4.5,270.7 -5.4,271.2 -6.3,271.6 -7.3,272 -8.3,272.3 -9.3,272.6 -10.3,272.7 -11.3,272.8 -12.2,272.9 
		-13.1,272.9 -14.4,272.9 -15.6,272.9 -16.6,272.9 -17.5,272.8 -18.4,272.8 -19.2,272.8 -19.9,272.7 -20.6,272.6 -21.2,272.6 
		-21.7,272.4 -22.3,272.4 -22.8,272.2 -23.3,272.1 -23.8,271.9 -24.2,271.7 -24.7,271.6 -23.4,265.1 -23.2,265.2 -22.8,265.2 
		-22.4,265.4 -21.9,265.5 -21.4,265.6 -20.8,265.7 -20.2,265.9 -19.5,266 -18.7,266.1 -18,266.2 -17.2,266.3 -16.4,266.4 
		-15.5,266.4 -14.7,266.4 -13.8,266.4 -13,266.4 -12.1,266.2 -11.5,266 -10.9,265.7 -10.5,265.3 -10.2,264.9 -10,264.4 -9.9,263.9 
		-9.7,263.5 -9.7,262.6 -9.9,261.9 -10.4,261.3 -11.2,260.8 -12,260.4 -13.1,260 -14.2,259.5 -15.3,259.1 -16.5,258.6 -17.6,257.9 
		-18.7,257.2 -19.6,256.3 -20.3,255.2 -20.8,253.8 -21.1,252.3 -21.1,250.4 -20.9,249.3 -20.7,248.2 -20.4,247.2 -20.1,246.3 
		-19.6,245.4 -19.1,244.6 -18.5,243.9 -17.7,243.2 -16.9,242.7 -16,242.2 -14.9,241.8 -13.7,241.5 -12.4,241.2 -11,241 -9.4,240.9 
		-7.7,240.8 -6.6,240.8 -5.6,240.9 -4.7,240.9 -3.9,240.9 -3.2,241 -2.5,241 -1.9,241.1 -1.4,241.2 -0.9,241.2 -0.5,241.3 
		-0.1,241.4 0.3,241.4 0.6,241.5 0.8,241.5 1.1,241.6 1.3,241.6 	"/>
	<g>
		<g>
			<polyline class="st3" points="-0.2,248.2 -0.2,248.2 -0.6,248.2 -1,248.1 -1.4,248.1 -1.8,248 -2.1,247.9 -2.5,247.9 -2.9,247.8 
				-3.3,247.8 -3.7,247.7 -4.2,247.7 -4.7,247.7 -5.2,247.6 -5.8,247.6 -6.5,247.7 -7.3,247.7 -8.1,247.8 -8.1,247.8 -8.7,247.9 
				-9.3,247.9 -9.8,248.1 -10.2,248.3 -10.6,248.5 -11,248.7 -11.3,249 -11.5,249.3 -11.7,249.6 -11.9,249.9 -11.9,250.3 
				-11.9,250.6 -11.8,251 -11.7,251.4 -11.5,251.8 -11.2,252.2 -11.2,252.2 -10.6,252.7 -9.9,253.1 -9.1,253.5 -8.2,253.8 
				-7.3,254.1 -6.3,254.5 -5.4,254.8 -4.4,255.2 -3.5,255.7 -2.7,256.3 -2,257 -1.4,257.9 -0.9,259.1 -0.6,260.4 -0.5,261.9 
				-0.6,263.8 -0.6,263.8 -0.8,265.2 -1.2,266.4 -1.6,267.5 -2.2,268.4 -2.9,269.3 -3.7,270 -4.5,270.7 -5.4,271.2 -6.3,271.6 
				-7.3,272 -8.3,272.3 -9.3,272.6 -10.3,272.7 -11.3,272.8 -12.2,272.9 -13.1,272.9 -13.1,272.9 -14.4,272.9 -15.6,272.9 
				-16.6,272.9 -17.5,272.8 -18.4,272.8 -19.2,272.8 -19.9,272.7 -20.6,272.6 -21.2,272.6 -21.7,272.4 -22.3,272.4 -22.8,272.2 
				-23.3,272.1 -23.8,271.9 -24.2,271.7 -24.7,271.6 -23.4,265.1 -23.4,265.1 -23.2,265.2 -22.8,265.2 -22.4,265.4 -21.9,265.5 
				-21.4,265.6 -20.8,265.7 -20.2,265.9 -19.5,266 -18.7,266.1 -18,266.2 -17.2,266.3 -16.4,266.4 -15.5,266.4 -14.7,266.4 
				-13.8,266.4 -13,266.4 -13,266.4 -12.1,266.2 -11.5,266 -10.9,265.7 -10.5,265.3 -10.2,264.9 -10,264.4 -9.9,263.9 -9.7,263.5 
				-9.7,263.5 -9.7,262.6 -9.9,261.9 -10.4,261.3 -11.2,260.8 -12,260.4 -13.1,260 -14.2,259.5 -15.3,259.1 -16.5,258.6 
				-17.6,257.9 -18.7,257.2 -19.6,256.3 -20.3,255.2 -20.8,253.8 -21.1,252.3 -21.1,250.4 -21.1,250.4 -20.9,249.3 -20.7,248.2 
				-20.4,247.2 -20.1,246.3 -19.6,245.4 -19.1,244.6 -18.5,243.9 -17.7,243.2 -16.9,242.7 -16,242.2 -14.9,241.8 -13.7,241.5 
				-12.4,241.2 -11,241 -9.4,240.9 -7.7,240.8 -7.7,240.8 -6.6,240.8 -5.6,240.9 -4.7,240.9 -3.9,240.9 -3.2,241 -2.5,241 
				-1.9,241.1 -1.4,241.2 -0.9,241.2 -0.5,241.3 -0.1,241.4 0.3,241.4 0.6,241.5 0.8,241.5 1.1,241.6 1.3,241.6 -0.2,248.2 			"/>
		</g>
	</g>
	<polygon class="st2" points="6.7,234.4 14.8,234.4 13.6,241.5 18.5,241.5 17.5,248.1 12.3,247.9 9.5,264.2 9.5,264.8 9.6,265.3 
		9.9,265.7 10.3,266 10.8,266.2 11.4,266.4 12.1,266.5 12.8,266.6 13.4,266.5 14,266.5 14.5,266.4 15,266.3 15.4,266.2 15.6,266.1 
		15.8,266 15.9,266 14.8,271.4 14.6,271.6 14.4,271.7 14.2,271.8 14,271.9 13.8,272 13.6,272.1 13.3,272.2 13.1,272.3 12.8,272.4 
		12.5,272.4 12.1,272.5 11.8,272.5 11.4,272.6 11,272.6 10.5,272.7 10,272.8 7.8,272.8 6.6,272.7 5.6,272.6 4.6,272.4 3.9,272.2 
		3.2,271.9 2.6,271.6 2.1,271.3 1.7,270.9 1.5,270.5 1.3,270 1.1,269.5 1,268.9 1,268.3 1,267.7 1.1,267 1.2,266.3 	"/>
	<g>
		<g>
			<polyline class="st3" points="6.7,234.4 14.8,234.4 13.6,241.5 18.5,241.5 17.5,248.1 12.3,247.9 9.5,264.2 9.5,264.2 9.5,264.8 
				9.6,265.3 9.9,265.7 10.3,266 10.8,266.2 11.4,266.4 12.1,266.5 12.8,266.6 12.8,266.6 13.4,266.5 14,266.5 14.5,266.4 15,266.3 
				15.4,266.2 15.6,266.1 15.8,266 15.9,266 14.8,271.4 14.8,271.4 14.6,271.6 14.4,271.7 14.2,271.8 14,271.9 13.8,272 13.6,272.1 
				13.3,272.2 13.1,272.3 12.8,272.4 12.5,272.4 12.1,272.5 11.8,272.5 11.4,272.6 11,272.6 10.5,272.7 10,272.8 7.8,272.8 
				7.8,272.8 6.6,272.7 5.6,272.6 4.6,272.4 3.9,272.2 3.2,271.9 2.6,271.6 2.1,271.3 1.7,270.9 1.5,270.5 1.3,270 1.1,269.5 
				1,268.9 1,268.3 1,267.7 1.1,267 1.2,266.3 6.7,234.4 			"/>
		</g>
	</g>
	<polygon class="st2" points="25,259.1 24.9,259.6 24.9,260.1 24.9,260.7 25,261.2 25.2,261.8 25.5,262.3 25.8,262.9 26.2,263.3 
		26.6,263.8 27,264.3 27.5,264.7 28,265.1 28.5,265.4 29.1,265.7 29.7,265.9 30.3,266 31,266.1 31.8,266.2 32.5,266.3 33.3,266.3 
		34,266.4 34.8,266.4 35.6,266.3 36.4,266.3 37.2,266.2 38,266 38.8,265.8 39.6,265.6 40.4,265.2 41.2,264.9 42.1,264.4 42.9,263.9 
		41.7,271.1 41.3,271.4 40.8,271.6 40.3,271.8 39.9,271.9 39.5,272.1 39,272.2 38.5,272.4 38,272.4 37.5,272.5 36.9,272.6 
		36.3,272.6 35.6,272.7 34.9,272.7 34.1,272.7 33.2,272.8 32.2,272.8 30.8,272.7 29.3,272.6 27.8,272.4 26.4,272 25,271.6 23.6,271 
		22.3,270.3 21,269.5 19.9,268.5 18.9,267.3 18.1,265.9 17.4,264.4 16.9,262.6 16.5,260.7 16.4,258.5 16.6,256.1 16.7,255.2 
		16.9,254.1 17.1,253 17.4,251.7 17.9,250.5 18.4,249.2 19.1,247.9 19.9,246.7 20.8,245.5 22,244.4 23.3,243.4 24.7,242.6 
		26.4,241.8 28.3,241.3 30.4,241 32.8,240.8 33.9,240.9 35.1,241 36.3,241.2 37.5,241.5 38.7,241.9 39.8,242.5 40.9,243.2 41.8,244 
		42.7,245 43.5,246.1 44,247.5 44.4,249 44.7,250.8 44.7,252.8 44.5,255 44.1,257.4 43.9,259.2 22.6,259.2 24,253.5 36.8,253.5 
		36.8,252.7 36.8,252 36.7,251.4 36.6,250.8 36.4,250.3 36.2,249.8 35.9,249.3 35.6,248.9 35.3,248.6 34.9,248.3 34.5,248 34,247.8 
		33.5,247.6 33.1,247.5 32.6,247.4 32.1,247.3 31.5,247.4 31,247.4 30.5,247.6 30,247.7 29.5,248 29,248.2 28.6,248.6 28.2,248.9 
		27.8,249.3 27.5,249.8 27.2,250.2 26.9,250.7 26.6,251.2 26.4,251.8 26.3,252.4 26.2,253 	"/>
	<g>
		<g>
			<polyline class="st3" points="25,259.1 25,259.1 24.9,259.6 24.9,260.1 24.9,260.7 25,261.2 25.2,261.8 25.5,262.3 25.8,262.9 
				26.2,263.3 26.6,263.8 27,264.3 27.5,264.7 28,265.1 28.5,265.4 29.1,265.7 29.7,265.9 30.3,266 30.3,266 31,266.1 31.8,266.2 
				32.5,266.3 33.3,266.3 34,266.4 34.8,266.4 35.6,266.3 36.4,266.3 37.2,266.2 38,266 38.8,265.8 39.6,265.6 40.4,265.2 
				41.2,264.9 42.1,264.4 42.9,263.9 41.7,271.1 41.7,271.1 41.3,271.4 40.8,271.6 40.3,271.8 39.9,271.9 39.5,272.1 39,272.2 
				38.5,272.4 38,272.4 37.5,272.5 36.9,272.6 36.3,272.6 35.6,272.7 34.9,272.7 34.1,272.7 33.2,272.8 32.2,272.8 32.2,272.8 
				30.8,272.7 29.3,272.6 27.8,272.4 26.4,272 25,271.6 23.6,271 22.3,270.3 21,269.5 19.9,268.5 18.9,267.3 18.1,265.9 17.4,264.4 
				16.9,262.6 16.5,260.7 16.4,258.5 16.6,256.1 16.6,256.1 16.7,255.2 16.9,254.1 17.1,253 17.4,251.7 17.9,250.5 18.4,249.2 
				19.1,247.9 19.9,246.7 20.8,245.5 22,244.4 23.3,243.4 24.7,242.6 26.4,241.8 28.3,241.3 30.4,241 32.8,240.8 32.8,240.8 
				33.9,240.9 35.1,241 36.3,241.2 37.5,241.5 38.7,241.9 39.8,242.5 40.9,243.2 41.8,244 42.7,245 43.5,246.1 44,247.5 44.4,249 
				44.7,250.8 44.7,252.8 44.5,255 44.1,257.4 43.9,259.2 22.6,259.2 24,253.5 36.8,253.5 36.8,253.5 36.8,252.7 36.8,252 
				36.7,251.4 36.6,250.8 36.4,250.3 36.2,249.8 35.9,249.3 35.6,248.9 35.3,248.6 34.9,248.3 34.5,248 34,247.8 33.5,247.6 
				33.1,247.5 32.6,247.4 32.1,247.3 32.1,247.3 31.5,247.4 31,247.4 30.5,247.6 30,247.7 29.5,248 29,248.2 28.6,248.6 28.2,248.9 
				27.8,249.3 27.5,249.8 27.2,250.2 26.9,250.7 26.6,251.2 26.4,251.8 26.3,252.4 26.2,253 25,259.1 			"/>
		</g>
	</g>
	<polygon class="st2" points="94.7,243.2 94.3,243 93.9,242.8 93.5,242.6 93.1,242.4 92.6,242.2 92.1,242.1 91.6,241.9 91.1,241.7 
		90.6,241.6 90,241.5 89.4,241.3 88.8,241.3 88.1,241.2 87.4,241.1 86.7,241.1 86,241.1 85.3,241.1 84.5,241.2 83.7,241.3 
		82.9,241.4 82.1,241.7 81.3,242 80.5,242.4 79.6,242.9 78.8,243.6 78.1,244.3 77.4,245.3 76.7,246.3 76,247.6 75.4,249.1 
		74.8,250.7 74.4,252.6 74.2,253.6 74.1,254.7 74,255.7 74.1,256.7 74.1,257.7 74.3,258.6 74.6,259.5 74.9,260.4 75.4,261.2 
		75.9,261.9 76.5,262.6 77.2,263.2 78,263.7 78.9,264.2 79.9,264.5 81,264.8 81.4,264.9 81.8,265 82.4,265 82.9,265.1 83.6,265.2 
		84.3,265.2 85,265.2 85.7,265.1 86.5,265 87.2,264.9 88,264.7 88.7,264.4 89.4,264.1 90.1,263.7 90.7,263.3 91.3,262.7 90,270.5 
		89.8,270.7 89.6,270.9 89.4,271.1 89.1,271.2 88.8,271.5 88.4,271.7 87.9,271.9 87.4,272.1 86.7,272.3 86,272.4 85.1,272.5 
		84.1,272.6 82.9,272.7 81.6,272.7 80.1,272.7 78.5,272.6 77.2,272.5 75.8,272.2 74.5,271.7 73.1,271.2 71.8,270.5 70.6,269.6 
		69.4,268.6 68.4,267.4 67.4,266.1 66.6,264.6 65.9,263 65.3,261.2 65,259.2 64.9,257.2 64.9,254.9 65.3,252.4 65.5,251.2 
		65.8,250.1 66,248.9 66.3,247.9 66.7,246.8 67,245.8 67.4,244.8 67.8,243.9 68.3,243 68.7,242.2 69.2,241.4 69.7,240.6 70.3,239.9 
		70.8,239.2 71.4,238.5 72,237.9 72.7,237.3 73.4,236.8 74.1,236.3 74.8,235.8 75.6,235.4 76.4,235 77.2,234.6 78.1,234.3 79,234 
		79.9,233.8 80.8,233.6 81.8,233.4 82.8,233.3 83.8,233.2 84.9,233.1 86,233.1 86.9,233.1 87.8,233.2 88.7,233.2 89.6,233.4 
		90.4,233.5 91.2,233.7 92,233.8 92.7,234 93.3,234.2 93.9,234.3 94.5,234.5 95,234.7 95.4,234.8 95.7,234.9 96,235.1 96.1,235.1 	
		"/>
	<g>
		<g>
			<polyline class="st3" points="94.7,243.2 94.7,243.2 94.3,243 93.9,242.8 93.5,242.6 93.1,242.4 92.6,242.2 92.1,242.1 
				91.6,241.9 91.1,241.7 90.6,241.6 90,241.5 89.4,241.3 88.8,241.3 88.1,241.2 87.4,241.1 86.7,241.1 86,241.1 86,241.1 
				85.3,241.1 84.5,241.2 83.7,241.3 82.9,241.4 82.1,241.7 81.3,242 80.5,242.4 79.6,242.9 78.8,243.6 78.1,244.3 77.4,245.3 
				76.7,246.3 76,247.6 75.4,249.1 74.8,250.7 74.4,252.6 74.4,252.6 74.2,253.6 74.1,254.7 74,255.7 74.1,256.7 74.1,257.7 
				74.3,258.6 74.6,259.5 74.9,260.4 75.4,261.2 75.9,261.9 76.5,262.6 77.2,263.2 78,263.7 78.9,264.2 79.9,264.5 81,264.8 
				81,264.8 81.4,264.9 81.8,265 82.4,265 82.9,265.1 83.6,265.2 84.3,265.2 85,265.2 85.7,265.1 86.5,265 87.2,264.9 88,264.7 
				88.7,264.4 89.4,264.1 90.1,263.7 90.7,263.3 91.3,262.7 90,270.5 90,270.5 89.8,270.7 89.6,270.9 89.4,271.1 89.1,271.2 
				88.8,271.5 88.4,271.7 87.9,271.9 87.4,272.1 86.7,272.3 86,272.4 85.1,272.5 84.1,272.6 82.9,272.7 81.6,272.7 80.1,272.7 
				78.5,272.6 78.5,272.6 77.2,272.5 75.8,272.2 74.5,271.7 73.1,271.2 71.8,270.5 70.6,269.6 69.4,268.6 68.4,267.4 67.4,266.1 
				66.6,264.6 65.9,263 65.3,261.2 65,259.2 64.9,257.2 64.9,254.9 65.3,252.4 65.3,252.4 65.5,251.2 65.8,250.1 66,248.9 
				66.3,247.9 66.7,246.8 67,245.8 67.4,244.8 67.8,243.9 68.3,243 68.7,242.2 69.2,241.4 69.7,240.6 70.3,239.9 70.8,239.2 
				71.4,238.5 72,237.9 72.7,237.3 73.4,236.8 74.1,236.3 74.8,235.8 75.6,235.4 76.4,235 77.2,234.6 78.1,234.3 79,234 79.9,233.8 
				80.8,233.6 81.8,233.4 82.8,233.3 83.8,233.2 84.9,233.1 86,233.1 86,233.1 86.9,233.1 87.8,233.2 88.7,233.2 89.6,233.4 
				90.4,233.5 91.2,233.7 92,233.8 92.7,234 93.3,234.2 93.9,234.3 94.5,234.5 95,234.7 95.4,234.8 95.7,234.9 96,235.1 96.1,235.1 
				94.7,243.2 			"/>
		</g>
	</g>
	<polygon class="st2" points="166.6,272.8 158.5,272.8 159.1,269.5 159.1,269.2 158.7,269.8 158.2,270.3 157.7,270.8 157.1,271.2 
		156.6,271.6 156.1,271.9 155.6,272.2 155,272.4 154.5,272.6 153.9,272.8 153.3,272.9 152.8,273 152.2,273.1 151.6,273.2 151,273.2 
		150.5,273.2 148.9,273.1 147.5,272.8 146.2,272.3 145.1,271.6 144,270.7 143.1,269.7 142.3,268.7 141.6,267.4 141,266.1 
		140.5,264.8 140.2,263.3 140,261.8 139.9,260.3 139.9,258.8 140,257.3 140.3,255.8 140.7,254.1 141.3,252.5 141.9,251 142.6,249.6 
		143.4,248.3 144.3,247.1 145.2,246 146.1,245.1 147.1,244.2 148.2,243.5 149.3,242.9 150.5,242.4 151.6,242 152.8,241.7 154,241.5 
		155.2,241.5 156,241.5 156.8,241.6 157.6,241.7 158.3,241.9 159,242.2 159.5,242.4 160.1,242.7 160.7,243.1 161.1,243.4 
		161.6,243.8 161.9,244.2 162.3,244.6 162.6,244.9 162.8,245.3 163.1,245.7 163.3,246 163.3,246 165.3,234.5 173.2,234.5 	"/>
	<g>
		<g>
			<polyline class="st3" points="166.6,272.8 158.5,272.8 159.1,269.5 159.1,269.2 159.1,269.2 158.7,269.8 158.2,270.3 
				157.7,270.8 157.1,271.2 156.6,271.6 156.1,271.9 155.6,272.2 155,272.4 154.5,272.6 153.9,272.8 153.3,272.9 152.8,273 
				152.2,273.1 151.6,273.2 151,273.2 150.5,273.2 150.5,273.2 148.9,273.1 147.5,272.8 146.2,272.3 145.1,271.6 144,270.7 
				143.1,269.7 142.3,268.7 141.6,267.4 141,266.1 140.5,264.8 140.2,263.3 140,261.8 139.9,260.3 139.9,258.8 140,257.3 
				140.3,255.8 140.3,255.8 140.7,254.1 141.3,252.5 141.9,251 142.6,249.6 143.4,248.3 144.3,247.1 145.2,246 146.1,245.1 
				147.1,244.2 148.2,243.5 149.3,242.9 150.5,242.4 151.6,242 152.8,241.7 154,241.5 155.2,241.5 155.2,241.5 156,241.5 
				156.8,241.6 157.6,241.7 158.3,241.9 159,242.2 159.5,242.4 160.1,242.7 160.7,243.1 161.1,243.4 161.6,243.8 161.9,244.2 
				162.3,244.6 162.6,244.9 162.8,245.3 163.1,245.7 163.3,246 163.3,246 165.3,234.5 173.2,234.5 166.6,272.8 			"/>
		</g>
	</g>
	<polygon class="st0" points="153.4,265.7 154.2,265.6 155,265.5 155.7,265.2 156.4,264.9 157,264.6 157.6,264.1 158.1,263.6 
		158.6,263.1 159,262.5 159.5,261.9 159.8,261.2 160.2,260.5 160.4,259.8 160.7,259 160.9,258.2 161,257.4 161.2,256.6 161.3,255.8 
		161.3,255 161.2,254.2 161.1,253.4 161,252.7 160.8,252 160.6,251.3 160.3,250.7 160,250.2 159.6,249.7 159.1,249.3 158.6,248.9 
		158.1,248.7 157.6,248.6 156.9,248.5 156.2,248.6 155.4,248.7 154.7,248.9 154.1,249.2 153.5,249.6 152.9,250.1 152.4,250.5 
		151.9,251.1 151.5,251.7 151.1,252.4 150.7,253.1 150.4,253.9 150.1,254.7 149.8,255.5 149.6,256.3 149.4,257.2 149.3,258.4 
		149.3,259.8 149.5,261.3 149.9,262.6 150.5,263.8 151.3,264.8 152.2,265.5 	"/>
	<polygon class="st2" points="-26.1,266.3 -27.2,272.8 -34.6,272.8 -34.4,271.6 -34.3,270.5 -34.1,269.7 -34,269.2 -34.4,269.7 
		-34.9,270.2 -35.5,270.6 -36.1,271 -36.8,271.4 -37.5,271.8 -38.3,272.1 -39.1,272.4 -39.9,272.7 -40.7,272.9 -41.6,273.1 
		-42.5,273.2 -43.3,273.2 -44.2,273.3 -45,273.2 -45.8,273.1 -46.8,272.8 -47.7,272.5 -48.5,272.1 -49.3,271.7 -49.9,271.2 
		-50.5,270.7 -51,270.1 -51.4,269.5 -51.7,268.9 -52,268.3 -52.3,267.6 -52.4,267 -52.6,266.3 -52.6,265.7 -52.7,265 -52.7,264.4 
		-52.6,263.2 -52.4,262.2 -52.1,261.1 -51.8,260.1 -51.3,259.2 -50.8,258.4 -50.2,257.5 -49.5,256.8 -48.7,256.1 -47.9,255.5 
		-47.1,255 -46.2,254.5 -45.2,254.1 -44.3,253.8 -43.3,253.5 -42.3,253.3 -42.2,253.3 -42.1,253.3 -41.9,253.3 -41.5,253.2 
		-41.2,253.2 -40.8,253.1 -40.3,253.1 -39.8,253 -39.3,253 -38.8,252.9 -38.3,252.9 -37.9,252.8 -37.4,252.8 -36.9,252.8 
		-36.5,252.7 -36.2,252.7 -35.5,252.7 -34.8,252.8 -34.2,252.8 -33.6,252.8 -33,252.8 -32.6,252.9 -32.3,252.9 -32.2,252.9 
		-32.2,252.7 -32,252.2 -31.9,251.5 -31.8,251 -31.9,250.3 -32.2,249.8 -32.5,249.2 -33,248.8 -33.6,248.4 -34.2,248.2 -34.9,248 
		-35.6,247.9 -36.4,247.9 -37.3,247.9 -38.2,247.9 -39.2,247.9 -40.1,247.9 -41.1,248 -42,248.1 -42.9,248.2 -43.8,248.4 
		-44.6,248.5 -45.4,248.6 -46.1,248.8 -46.7,249 -47.3,249.1 -47.7,249.3 -48,249.5 -45.9,242.5 -45.3,242.2 -44.6,242 -43.9,241.8 
		-43.2,241.6 -42.5,241.5 -41.8,241.4 -41,241.3 -40.2,241.2 -39.4,241.1 -38.6,241.1 -37.7,241.1 -36.8,241.1 -35.8,241.1 
		-34.9,241.1 -33.8,241.1 -32.8,241.1 -32,241.2 -31.1,241.3 -30.2,241.5 -29.3,241.8 -28.4,242.2 -27.5,242.6 -26.6,243.1 
		-25.8,243.6 -25.1,244.3 -24.4,245 -23.9,245.8 -23.4,246.6 -23.1,247.6 -22.9,248.6 -22.9,249.7 -23.1,250.8 	"/>
	<g>
		<g>
			<polyline class="st3" points="-26.1,266.3 -27.2,272.8 -34.6,272.8 -34.6,272.8 -34.4,271.6 -34.3,270.5 -34.1,269.7 -34,269.2 
				-34,269.2 -34.4,269.7 -34.9,270.2 -35.5,270.6 -36.1,271 -36.8,271.4 -37.5,271.8 -38.3,272.1 -39.1,272.4 -39.9,272.7 
				-40.7,272.9 -41.6,273.1 -42.5,273.2 -43.3,273.2 -44.2,273.3 -45,273.2 -45.8,273.1 -45.8,273.1 -46.8,272.8 -47.7,272.5 
				-48.5,272.1 -49.3,271.7 -49.9,271.2 -50.5,270.7 -51,270.1 -51.4,269.5 -51.7,268.9 -52,268.3 -52.3,267.6 -52.4,267 
				-52.6,266.3 -52.6,265.7 -52.7,265 -52.7,264.4 -52.7,264.4 -52.6,263.2 -52.4,262.2 -52.1,261.1 -51.8,260.1 -51.3,259.2 
				-50.8,258.4 -50.2,257.5 -49.5,256.8 -48.7,256.1 -47.9,255.5 -47.1,255 -46.2,254.5 -45.2,254.1 -44.3,253.8 -43.3,253.5 
				-42.3,253.3 -42.3,253.3 -42.2,253.3 -42.1,253.3 -41.9,253.3 -41.5,253.2 -41.2,253.2 -40.8,253.1 -40.3,253.1 -39.8,253 
				-39.3,253 -38.8,252.9 -38.3,252.9 -37.9,252.8 -37.4,252.8 -36.9,252.8 -36.5,252.7 -36.2,252.7 -36.2,252.7 -35.5,252.7 
				-34.8,252.8 -34.2,252.8 -33.6,252.8 -33,252.8 -32.6,252.9 -32.3,252.9 -32.2,252.9 -32.2,252.9 -32.2,252.7 -32,252.2 
				-31.9,251.5 -31.8,251 -31.8,251 -31.9,250.3 -32.2,249.8 -32.5,249.2 -33,248.8 -33.6,248.4 -34.2,248.2 -34.9,248 -35.6,247.9 
				-35.6,247.9 -36.4,247.9 -37.3,247.9 -38.2,247.9 -39.2,247.9 -40.1,247.9 -41.1,248 -42,248.1 -42.9,248.2 -43.8,248.4 
				-44.6,248.5 -45.4,248.6 -46.1,248.8 -46.7,249 -47.3,249.1 -47.7,249.3 -48,249.5 -45.9,242.5 -45.9,242.5 -45.3,242.2 
				-44.6,242 -43.9,241.8 -43.2,241.6 -42.5,241.5 -41.8,241.4 -41,241.3 -40.2,241.2 -39.4,241.1 -38.6,241.1 -37.7,241.1 
				-36.8,241.1 -35.8,241.1 -34.9,241.1 -33.8,241.1 -32.8,241.1 -32.8,241.1 -32,241.2 -31.1,241.3 -30.2,241.5 -29.3,241.8 
				-28.4,242.2 -27.5,242.6 -26.6,243.1 -25.8,243.6 -25.1,244.3 -24.4,245 -23.9,245.8 -23.4,246.6 -23.1,247.6 -22.9,248.6 
				-22.9,249.7 -23.1,250.8 -26.1,266.3 			"/>
		</g>
	</g>
	<polygon class="st1" points="-33.1,258.6 -33.1,258.5 -33.3,258.4 -33.4,258.3 -33.7,258.2 -34.1,258.1 -34.4,258.1 -34.9,258.1 
		-35.3,258.1 -35.8,258.1 -36.3,258.2 -36.7,258.3 -37.2,258.3 -37.6,258.4 -38.1,258.5 -38.4,258.6 -38.7,258.6 -38.9,258.7 
		-39.2,258.8 -39.5,258.9 -39.8,259.1 -40.2,259.2 -40.6,259.4 -41,259.6 -41.4,259.9 -41.8,260.2 -42.1,260.5 -42.5,260.8 
		-42.8,261.2 -43.1,261.5 -43.3,261.9 -43.5,262.4 -43.6,262.9 -43.6,263.9 -43.5,264.7 -43.2,265.2 -42.8,265.7 -42.4,266 
		-41.9,266.2 -41.4,266.2 -40.9,266.3 -40,266.2 -39.3,266.2 -38.5,266 -37.8,265.9 -37.2,265.7 -36.7,265.4 -36.2,265.1 
		-35.7,264.8 -35.4,264.5 -35,264.2 -34.7,263.8 -34.5,263.5 -34.3,263.1 -34.1,262.8 -34,262.5 -33.9,262.2 -33.6,261.3 
		-33.4,260.3 -33.3,259.4 	"/>
	<polygon class="st2" points="-87.6,272.8 -95.5,272.8 -88.9,234.4 -75.1,234.4 -73.7,257.2 -64.2,234.4 -49.7,234.4 -56.5,272.8 
		-64.5,272.8 -59.5,244.1 -59.8,244.1 -71.7,272.8 -80.6,272.8 -80.7,271.6 -80.9,268.4 -81.2,263.8 -81.5,258.6 -81.7,253.4 
		-82,248.8 -82.2,245.5 -82.3,244.1 -82.4,244.1 -82.5,244.1 -82.7,244.1 -82.7,244.1 	"/>
	<g>
		<g>
			<polyline class="st3" points="-87.6,272.8 -95.5,272.8 -88.9,234.4 -75.1,234.4 -73.7,257.2 -64.2,234.4 -49.7,234.4 
				-56.5,272.8 -64.5,272.8 -59.5,244.1 -59.8,244.1 -71.7,272.8 -80.6,272.8 -80.6,272.8 -80.7,271.6 -80.9,268.4 -81.2,263.8 
				-81.5,258.6 -81.7,253.4 -82,248.8 -82.2,245.5 -82.3,244.1 -82.3,244.1 -82.4,244.1 -82.5,244.1 -82.7,244.1 -82.7,244.1 
				-87.6,272.8 			"/>
		</g>
	</g>
	<polygon class="st2" points="119,266.3 117.8,272.8 110.4,272.8 110.5,271.6 110.5,270.5 110.5,269.7 110.6,269.4 110.2,269.8 
		109.8,270.2 109.2,270.7 108.7,271.1 108,271.4 107.3,271.8 106.6,272.1 105.9,272.4 105.1,272.7 104.3,272.9 103.5,273.1 
		102.6,273.2 101.8,273.2 101,273.3 100.2,273.2 99.4,273.1 98.3,272.8 97.4,272.5 96.6,272.1 95.8,271.7 95.2,271.2 94.6,270.7 
		94.2,270.1 93.8,269.5 93.4,268.9 93.1,268.3 92.9,267.6 92.8,267 92.6,266.3 92.6,265.7 92.5,265 92.5,264.4 92.6,263.2 
		92.7,262.2 93,261.1 93.4,260.1 93.8,259.2 94.4,258.4 95,257.5 95.7,256.8 96.4,256.1 97.2,255.5 98,255 99,254.5 99.9,254.1 
		100.8,253.8 101.8,253.5 102.8,253.3 102.8,253.3 103,253.3 103.2,253.3 103.5,253.2 103.9,253.2 104.3,253.1 104.7,253.1 
		105.2,253 105.7,253 106.2,252.9 106.7,252.9 107.2,252.8 107.7,252.8 108.1,252.8 108.5,252.7 108.8,252.7 109.5,252.7 
		110.2,252.8 110.9,252.8 111.5,252.8 112.1,252.8 112.5,252.9 112.8,252.9 112.9,252.9 113,252.7 113.1,252.2 113.2,251.5 
		113.2,251 113.1,250.3 112.9,249.8 112.5,249.2 112,248.8 111.5,248.4 110.9,248.2 110.3,248 109.6,247.9 108.7,247.9 107.9,247.9 
		107,247.9 106,247.9 105.1,247.9 104.1,248 103.2,248.1 102.3,248.2 101.4,248.4 100.6,248.5 99.8,248.6 99.1,248.8 98.5,249 
		97.9,249.1 97.5,249.3 97.2,249.5 99.2,242.5 99.9,242.2 100.6,242 101.2,241.8 101.9,241.6 102.7,241.5 103.4,241.4 104.2,241.3 
		104.9,241.2 105.8,241.1 106.6,241.1 107.5,241.1 108.4,241.1 109.3,241.1 110.2,241.1 111.2,241.1 112.2,241.1 113,241.2 
		113.9,241.3 114.8,241.5 115.7,241.8 116.6,242.2 117.5,242.6 118.4,243.1 119.2,243.6 120,244.3 120.6,245 121.2,245.8 
		121.7,246.6 122,247.6 122.2,248.6 122.2,249.7 122,250.8 	"/>
	<polygon class="st2" points="117.8,273 118,272.8 119.2,266.3 118.8,266.2 117.6,272.7 117.8,272.6 117.8,273 117.9,272.9 
		118,272.8 	"/>
	<polygon class="st2" points="110.3,272.8 110.4,273 117.8,273 117.8,272.6 110.4,272.6 110.6,272.8 110.3,272.8 110.2,273 
		110.4,273 	"/>
	<polygon class="st2" points="110.7,269.5 110.5,269.3 110.4,269.7 110.3,270.5 110.3,271.6 110.3,272.8 110.6,272.8 110.7,271.6 
		110.7,270.5 110.7,269.7 110.7,269.5 110.4,269.3 	"/>
	<polygon class="st2" points="99.4,273.2 99.4,273.2 100.2,273.3 101,273.4 101.8,273.4 102.6,273.3 103.5,273.2 104.3,273.1 
		105.1,272.8 105.9,272.6 106.7,272.3 107.4,272 108.1,271.6 108.7,271.2 109.4,270.8 109.9,270.4 110.4,269.9 110.7,269.5 
		110.4,269.3 110.1,269.7 109.7,270.1 109.1,270.5 108.6,270.9 108,271.3 107.3,271.6 106.6,272 105.8,272.3 105.1,272.5 
		104.2,272.7 103.4,272.9 102.6,273 101.8,273.1 101,273.1 100.2,273 99.4,272.9 99.4,272.9 	"/>
	<polygon class="st2" points="92.3,264.4 92.3,264.4 92.3,265 92.4,265.7 92.5,266.4 92.6,267 92.7,267.7 93,268.3 93.2,269 
		93.6,269.6 94,270.2 94.5,270.8 95.1,271.4 95.7,271.8 96.5,272.3 97.3,272.7 98.3,273 99.4,273.2 99.4,272.9 98.4,272.6 
		97.5,272.3 96.7,271.9 95.9,271.5 95.3,271.1 94.8,270.6 94.3,270 93.9,269.5 93.6,268.8 93.3,268.2 93.1,267.6 92.9,267 
		92.8,266.3 92.7,265.7 92.7,265 92.7,264.4 92.7,264.4 	"/>
	<polygon class="st2" points="102.8,253.1 102.8,253.1 101.8,253.3 100.8,253.6 99.8,253.9 98.9,254.3 98,254.8 97.1,255.4 
		96.3,256 95.5,256.7 94.8,257.4 94.2,258.2 93.6,259.1 93.2,260.1 92.8,261.1 92.6,262.1 92.4,263.2 92.3,264.4 92.7,264.4 
		92.7,263.2 92.9,262.2 93.2,261.2 93.5,260.2 94,259.3 94.5,258.5 95.1,257.6 95.8,256.9 96.5,256.3 97.3,255.7 98.1,255.1 
		99,254.7 99.9,254.3 100.9,253.9 101.8,253.7 102.8,253.5 102.8,253.5 	"/>
	<polygon class="st2" points="108.8,252.5 108.8,252.5 108.5,252.5 108.1,252.6 107.7,252.6 107.2,252.7 106.7,252.7 106.2,252.7 
		105.7,252.8 105.2,252.9 104.7,252.9 104.3,253 103.9,253 103.5,253.1 103.2,253.1 103,253.1 102.8,253.1 102.8,253.1 102.8,253.5 
		102.8,253.5 103,253.5 103.2,253.4 103.5,253.4 103.9,253.4 104.3,253.3 104.7,253.3 105.2,253.2 105.7,253.1 106.2,253.1 
		106.7,253.1 107.2,253 107.7,253 108.1,252.9 108.5,252.9 108.8,252.9 108.8,252.9 	"/>
	<polygon class="st2" points="112.7,252.9 112.9,252.7 112.8,252.7 112.5,252.7 112.1,252.7 111.5,252.6 110.9,252.6 110.2,252.6 
		109.5,252.5 108.8,252.5 108.8,252.9 109.5,252.9 110.2,252.9 110.9,253 111.5,253 112.1,253 112.5,253 112.8,253.1 112.9,253.1 
		113.1,252.9 112.9,253.1 113.1,253.1 113.1,252.9 	"/>
	<polygon class="st2" points="113,251 113,251 113,251.5 112.9,252.1 112.8,252.7 112.7,252.9 113.1,252.9 113.2,252.7 113.2,252.2 
		113.3,251.5 113.4,251 113.4,251 	"/>
	<polygon class="st2" points="109.6,248.1 109.6,248.1 110.2,248.2 110.9,248.3 111.4,248.6 111.9,248.9 112.3,249.3 112.7,249.8 
		112.9,250.4 113,251 113.4,251 113.3,250.3 113,249.7 112.6,249.1 112.2,248.6 111.6,248.2 111,248 110.3,247.8 109.6,247.7 
		109.6,247.7 	"/>
	<polygon class="st2" points="97,249.5 97.3,249.7 97.6,249.5 98,249.3 98.5,249.1 99.1,249 99.8,248.8 100.6,248.7 101.4,248.5 
		102.3,248.4 103.2,248.3 104.1,248.2 105.1,248.1 106,248.1 107,248.1 107.9,248.1 108.7,248.1 109.6,248.1 109.6,247.7 
		108.7,247.7 107.9,247.7 107,247.7 106,247.7 105.1,247.8 104.1,247.9 103.2,247.9 102.3,248.1 101.4,248.2 100.5,248.3 
		99.8,248.5 99.1,248.6 98.4,248.8 97.9,249 97.4,249.2 97.1,249.4 97.4,249.6 	"/>
	<polygon class="st2" points="99.2,242.3 99.1,242.5 97,249.5 97.4,249.6 99.4,242.5 99.3,242.7 99.2,242.3 99.1,242.3 99.1,242.5 	
		"/>
	<polygon class="st2" points="112.2,241 112.2,241 111.2,240.9 110.2,240.9 109.3,240.9 108.4,240.9 107.5,240.9 106.6,240.9 
		105.8,241 104.9,241 104.2,241.1 103.4,241.2 102.6,241.3 101.9,241.5 101.2,241.6 100.5,241.8 99.8,242 99.2,242.3 99.3,242.7 
		99.9,242.4 100.6,242.2 101.3,242 102,241.8 102.7,241.7 103.4,241.5 104.2,241.4 104.9,241.4 105.8,241.3 106.6,241.3 
		107.5,241.3 108.4,241.3 109.3,241.3 110.2,241.3 111.2,241.3 112.2,241.3 112.2,241.3 	"/>
	<polygon class="st2" points="122.2,250.9 122.2,250.9 122.4,249.7 122.4,248.6 122.2,247.5 121.8,246.6 121.4,245.7 120.8,244.8 
		120.1,244.1 119.4,243.5 118.5,242.9 117.6,242.4 116.7,242 115.8,241.6 114.8,241.4 113.9,241.2 113,241 112.2,241 112.2,241.3 
		113,241.4 113.9,241.5 114.8,241.7 115.7,242 116.6,242.3 117.5,242.7 118.3,243.2 119.1,243.8 119.9,244.4 120.5,245.1 
		121.1,245.8 121.5,246.7 121.8,247.6 122,248.6 122,249.7 121.9,250.8 121.9,250.8 	"/>
	<polygon class="st2" points="119.2,266.3 119.2,266.3 122.2,250.9 121.9,250.8 118.8,266.2 118.8,266.2 	"/>
	<polygon class="st0" points="111.9,258.6 111.8,258.5 111.7,258.3 111.5,258.2 111.2,258.1 110.9,258.1 110.5,258.1 110.1,258.1 
		109.7,258.1 109.2,258.2 108.7,258.2 108.2,258.3 107.8,258.4 107.4,258.4 107,258.5 106.6,258.6 106.3,258.6 106.1,258.7 
		105.9,258.8 105.6,258.8 105.3,259 104.9,259.1 104.5,259.3 104.1,259.5 103.7,259.8 103.4,260 103,260.4 102.7,260.7 102.3,261.1 
		102.1,261.5 101.9,261.9 101.7,262.4 101.6,262.9 101.6,263.9 101.7,264.7 102,265.2 102.3,265.7 102.8,266 103.3,266.2 
		103.7,266.2 104.2,266.3 105.1,266.2 105.9,266.2 106.7,266 107.4,265.8 108,265.6 108.6,265.3 109.1,265 109.6,264.7 110,264.3 
		110.3,264 110.6,263.6 110.9,263.2 111.1,262.9 111.3,262.5 111.4,262.2 111.5,261.9 111.6,261 111.7,260.2 111.8,259.4 	"/>
	<g>
		<g>
			<polygon class="st2" points="172.1,268.8 172.2,268.1 172.4,267.3 172.8,266.6 173.3,266 173.9,265.5 174.6,265.1 175.4,264.9 
				176.2,264.8 177,264.9 177.8,265.1 178.5,265.5 179.1,266 179.6,266.6 180,267.3 180.2,268.1 180.3,268.8 179.4,268.8 
				179.4,268.2 179.2,267.6 178.9,267 178.5,266.5 178.1,266.1 177.5,265.8 176.9,265.6 176.2,265.5 175.5,265.6 174.9,265.8 
				174.3,266.1 173.9,266.5 173.5,267 173.2,267.6 173,268.2 173,268.8 			"/>
			<polygon class="st2" points="174.7,268.8 174.7,267 176.3,267 176.7,267 177,267.1 177.3,267.2 177.5,267.3 177.6,267.5 
				177.7,267.6 177.8,267.8 177.8,268.1 177.8,268.3 177.7,268.5 177.6,268.7 177.6,268.8 176.3,268.8 176.5,268.7 176.7,268.7 
				176.8,268.6 177,268.6 177.1,268.5 177.2,268.4 177.2,268.3 177.2,268.1 177.2,267.9 177.1,267.8 177,267.7 177,267.7 
				176.8,267.6 176.7,267.6 176.5,267.6 176.3,267.6 175.5,267.6 175.5,268.8 			"/>
			<polygon class="st2" points="172.1,268.8 172.1,268.9 172.2,269.8 172.4,270.6 172.8,271.3 173.3,271.9 173.9,272.4 174.6,272.7 
				175.4,273 176.2,273.1 177,273 177.8,272.7 178.5,272.4 179.1,271.9 179.6,271.3 180,270.6 180.2,269.8 180.3,268.9 180.3,268.8 
				179.4,268.8 179.4,268.9 179.4,269.6 179.2,270.3 178.9,270.8 178.5,271.3 178.1,271.7 177.5,272.1 176.9,272.3 176.2,272.3 
				175.5,272.3 174.9,272.1 174.3,271.7 173.9,271.3 173.5,270.8 173.2,270.3 173,269.6 173,268.9 173,268.8 			"/>
			<polygon class="st2" points="174.7,268.8 174.7,270.5 175.5,270.5 175.5,269.1 176.2,269.1 177.1,270.5 177.7,270.5 176.8,269.1 
				177,269.1 177.2,269 177.4,269 177.5,268.8 177.6,268.8 176.3,268.8 176.2,268.8 175.5,268.8 175.5,268.8 			"/>
		</g>
	</g>
	<g>
		<g>
			<polyline class="st3" points="172.1,268.9 172.1,268.9 172.2,268.1 172.4,267.3 172.8,266.6 173.3,266 173.9,265.5 174.6,265.1 
				175.4,264.9 176.2,264.8 176.2,264.8 177,264.9 177.8,265.1 178.5,265.5 179.1,266 179.6,266.6 180,267.3 180.2,268.1 
				180.3,268.9 180.3,268.9 180.2,269.8 180,270.6 179.6,271.3 179.1,271.9 178.5,272.4 177.8,272.7 177,273 176.2,273.1 
				176.2,273.1 175.4,273 174.6,272.7 173.9,272.4 173.3,271.9 172.8,271.3 172.4,270.6 172.2,269.8 172.1,268.9 			"/>
		</g>
	</g>
	<g>
		<g>
			<polyline class="st3" points="175.5,270.5 174.7,270.5 174.7,267 176.3,267 176.3,267 176.7,267 177,267.1 177.3,267.2 
				177.5,267.3 177.6,267.5 177.7,267.6 177.8,267.8 177.8,268.1 177.8,268.1 177.8,268.3 177.7,268.5 177.6,268.7 177.5,268.8 
				177.4,269 177.2,269 177,269.1 176.8,269.1 177.7,270.5 177.1,270.5 176.2,269.1 175.5,269.1 175.5,270.5 			"/>
		</g>
	</g>
	<g>
		<g>
			<polyline class="st3" points="176.2,268.8 176.2,268.8 176.5,268.7 176.7,268.7 176.8,268.6 177,268.6 177.1,268.5 177.2,268.4 
				177.2,268.3 177.2,268.1 177.2,268.1 177.2,267.9 177.1,267.8 177,267.7 177,267.7 176.8,267.6 176.7,267.6 176.5,267.6 
				176.3,267.6 175.5,267.6 175.5,268.8 176.2,268.8 			"/>
		</g>
	</g>
	<g>
		<g>
			<polyline class="st3" points="176.2,272.3 176.2,272.3 176.9,272.3 177.5,272.1 178.1,271.7 178.5,271.3 178.9,270.8 
				179.2,270.3 179.4,269.6 179.4,268.9 179.4,268.9 179.4,268.2 179.2,267.6 178.9,267 178.5,266.5 178.1,266.1 177.5,265.8 
				176.9,265.6 176.2,265.5 176.2,265.5 175.5,265.6 174.9,265.8 174.3,266.1 173.9,266.5 173.5,267 173.2,267.6 173,268.2 
				173,268.9 173,268.9 173,269.6 173.2,270.3 173.5,270.8 173.9,271.3 174.3,271.7 174.9,272.1 175.5,272.3 176.2,272.3 			"/>
		</g>
	</g>
	<polygon class="st2" points="121.2,272.8 129.4,272.8 129.4,272.8 132.4,256.1 132.5,255.5 132.7,254.8 132.8,254.2 133.1,253.6 
		133.4,252.9 133.7,252.3 134.1,251.7 134.6,251.2 135.1,250.7 135.7,250.2 136.3,249.8 137.1,249.4 137.9,249.1 138.9,248.9 
		139.9,248.7 141,248.6 141.4,248.6 141.7,248.6 141.8,248.6 141.8,248.6 143.1,241.1 142.3,241.2 141.5,241.3 140.7,241.4 
		140,241.6 139.4,241.9 138.8,242.2 138.2,242.5 137.7,242.8 137.1,243.2 136.6,243.7 136.2,244.1 135.7,244.6 135.3,245.1 
		134.8,245.6 134.4,246.2 134,246.7 134.8,241.5 126.6,241.5 	"/>
	<g>
		<g>
			<polyline class="st3" points="121.2,272.8 129.4,272.8 129.4,272.8 132.4,256.1 132.4,256.1 132.5,255.5 132.7,254.8 
				132.8,254.2 133.1,253.6 133.4,252.9 133.7,252.3 134.1,251.7 134.6,251.2 135.1,250.7 135.7,250.2 136.3,249.8 137.1,249.4 
				137.9,249.1 138.9,248.9 139.9,248.7 141,248.6 141,248.6 141.4,248.6 141.7,248.6 141.8,248.6 141.8,248.6 143.1,241.1 
				143.1,241.1 142.3,241.2 141.5,241.3 140.7,241.4 140,241.6 139.4,241.9 138.8,242.2 138.2,242.5 137.7,242.8 137.1,243.2 
				136.6,243.7 136.2,244.1 135.7,244.6 135.3,245.1 134.8,245.6 134.4,246.2 134,246.7 134.8,241.5 126.6,241.5 121.2,272.8 
				121.2,272.8 			"/>
		</g>
	</g>
	<polygon class="st2" points="43.8,272.8 52,272.8 52.2,272.8 55,256.1 55.1,255.5 55.2,254.9 55.4,254.3 55.6,253.7 55.8,253.1 
		56.1,252.5 56.5,252 56.9,251.5 57.3,251.1 57.9,250.6 58.5,250.3 59.2,250 60,249.7 60.9,249.5 61.9,249.3 63.1,249.2 63.2,249.2 
		63.3,249.3 63.4,249.3 63.6,249.3 63.7,249.3 63.8,249.3 63.9,249.4 63.9,249.4 64,249.3 64.1,248.9 64.2,248.4 64.3,247.7 
		64.5,247 64.7,246.2 65,245.3 65.3,244.5 65.5,244 65.8,243.4 66.1,242.9 66.4,242.4 66.6,241.9 66.8,241.6 67,241.4 67,241.3 
		67,241.3 66.9,241.3 66.7,241.2 66.5,241.2 66.3,241.2 66.1,241.2 65.9,241.1 65.7,241.1 64.8,241.2 64,241.3 63.2,241.4 
		62.5,241.6 61.8,241.8 61.2,242.1 60.7,242.4 60.1,242.8 59.6,243.2 59.2,243.6 58.7,244 58.3,244.5 57.9,245 57.5,245.6 57,246.2 
		56.6,246.7 57.6,241.5 49.2,241.5 	"/>
	<g>
		<g>
			<polyline class="st3" points="43.8,272.8 52,272.8 52.2,272.8 55,256.1 55,256.1 55.1,255.5 55.2,254.9 55.4,254.3 55.6,253.7 
				55.8,253.1 56.1,252.5 56.5,252 56.9,251.5 57.3,251.1 57.9,250.6 58.5,250.3 59.2,250 60,249.7 60.9,249.5 61.9,249.3 
				63.1,249.2 63.1,249.2 63.2,249.2 63.3,249.3 63.4,249.3 63.6,249.3 63.7,249.3 63.8,249.3 63.9,249.4 63.9,249.4 63.9,249.4 
				64,249.3 64.1,248.9 64.2,248.4 64.3,247.7 64.5,247 64.7,246.2 65,245.3 65.3,244.5 65.3,244.5 65.5,244 65.8,243.4 66.1,242.9 
				66.4,242.4 66.6,241.9 66.8,241.6 67,241.4 67,241.3 67,241.3 67,241.3 66.9,241.3 66.7,241.2 66.5,241.2 66.3,241.2 66.1,241.2 
				65.9,241.1 65.7,241.1 65.7,241.1 64.8,241.2 64,241.3 63.2,241.4 62.5,241.6 61.8,241.8 61.2,242.1 60.7,242.4 60.1,242.8 
				59.6,243.2 59.2,243.6 58.7,244 58.3,244.5 57.9,245 57.5,245.6 57,246.2 56.6,246.7 57.6,241.5 49.2,241.5 43.8,272.8 
				43.8,272.8 			"/>
		</g>
	</g>
	<g>
		<g>
			<polygon class="st0" points="172.2,303.5 172.2,303.4 172.4,302.6 172.8,302 173.3,301.4 173.9,300.9 174.6,300.6 175.4,300.3 
				176.2,300.3 177,300.3 177.8,300.6 178.5,300.9 179.1,301.4 179.6,302 180,302.6 180.2,303.4 180.2,303.5 179.4,303.5 
				179.2,302.9 178.9,302.3 178.5,301.8 178.1,301.4 177.5,301.1 176.9,300.9 176.2,300.8 175.5,300.9 174.9,301.1 174.3,301.4 
				173.9,301.8 173.5,302.3 173.2,302.9 173,303.5 			"/>
			<polygon class="st0" points="174.7,303.5 174.7,302.5 176.3,302.5 176.7,302.5 177,302.5 177.3,302.6 177.5,302.7 177.6,302.9 
				177.7,303 177.8,303.2 177.8,303.5 177.2,303.5 177.2,303.4 177.2,303.2 177.1,303.1 177,303 177,303 176.8,302.9 176.7,302.9 
				176.5,302.9 176.3,302.9 175.5,302.9 175.5,303.5 			"/>
			<polygon class="st0" points="172.1,304.1 172.2,303.5 173,303.5 173,303.5 173,304.1 			"/>
			<polygon class="st0" points="174.7,304.1 174.7,303.5 175.5,303.5 175.5,304.1 176.2,304.1 176.5,304 176.7,304 176.8,303.9 
				177,303.9 177.1,303.8 177.2,303.7 177.2,303.6 177.2,303.5 177.8,303.5 177.8,303.5 177.8,303.7 177.7,303.9 177.6,304 
				177.5,304.1 			"/>
			<polygon class="st0" points="179.4,304.1 179.4,303.5 179.4,303.5 180.2,303.5 180.3,304.1 			"/>
			<polygon class="st0" points="172.1,304.1 172.1,304.2 172.2,305.1 172.4,305.9 172.8,306.6 173.3,307.2 173.9,307.7 174.6,308 
				175.4,308.3 176.2,308.4 177,308.3 177.8,308 178.5,307.7 179.1,307.2 179.6,306.6 180,305.9 180.2,305.1 180.3,304.2 
				180.3,304.1 179.4,304.1 179.4,304.2 179.4,304.9 179.2,305.6 178.9,306.1 178.5,306.6 178.1,307 177.5,307.4 176.9,307.6 
				176.2,307.6 175.5,307.6 174.9,307.4 174.3,307 173.9,306.6 173.5,306.1 173.2,305.6 173,304.9 173,304.2 173,304.1 			"/>
			<polygon class="st0" points="174.7,304.1 174.7,305.8 175.5,305.8 175.5,304.4 176.2,304.4 177.1,305.8 177.7,305.8 176.8,304.4 
				177,304.4 177.2,304.3 177.4,304.3 177.5,304.1 177.5,304.1 			"/>
		</g>
	</g>
</g>
</svg>
