<?xml version="1.0" encoding="utf-8"?>
<!-- Generator: Adobe Illustrator 19.0.1, SVG Export Plug-In . SVG Version: 6.00 Build 0)  -->
<svg version="1.1" id="Слой_1" xmlns="http://www.w3.org/2000/svg" xmlns:xlink="http://www.w3.org/1999/xlink" x="0px" y="0px"
	 viewBox="0 0 520 120" style="enable-background:new 0 0 520 120;" xml:space="preserve">
<style type="text/css">
	.st0{fill:#4795C8;}
	.st1{fill:#424B7B;}
	.st2{fill:#373E61;}
</style>
<g>
	<g>
		<path class="st0" d="M393.6,26.8h-27.2c-1.9,0-3.4,1.4-3.7,3.2l-11,69.7c-0.2,1.4,0.8,2.6,2.2,2.6h14c1.3,0,2.4-0.9,2.6-2.2
			l3.1-19.8c0.3-1.8,1.9-3.2,3.7-3.2h8.6c17.9,0,28.3-8.7,31-25.9c1.2-7.5,0-13.4-3.5-17.6C409.5,29.2,402.7,26.8,393.6,26.8z
			 M396.7,52.3c-1.5,9.8-8.9,9.8-16.2,9.8h-4.1l2.9-18.2c0.2-1.1,1.1-1.9,2.2-1.9h1.9c4.9,0,9.5,0,11.9,2.8
			C396.8,46.4,397.3,48.9,396.7,52.3z"/>
		<path class="st1" d="M199.6,26.8h-27.2c-1.9,0-3.4,1.4-3.7,3.2l-11,69.7c-0.2,1.4,0.8,2.6,2.2,2.6h13c1.9,0,3.4-1.4,3.7-3.2
			l3-18.8c0.3-1.8,1.9-3.2,3.7-3.2h8.6c17.9,0,28.3-8.7,31-25.9c1.2-7.5,0-13.4-3.5-17.6C215.6,29.2,208.7,26.8,199.6,26.8z
			 M202.8,52.3c-1.5,9.8-8.9,9.8-16.2,9.8h-4.1l2.9-18.2c0.2-1.1,1.1-1.9,2.2-1.9h1.9c4.9,0,9.5,0,11.9,2.8
			C202.9,46.4,203.3,48.9,202.8,52.3z"/>
		<path class="st1" d="M280.9,52h-13c-1.1,0-2.1,0.8-2.2,1.9l-0.6,3.6l-0.9-1.3c-2.8-4.1-9.1-5.5-15.4-5.5
			c-14.4,0-26.7,10.9-29.1,26.2c-1.2,7.6,0.5,14.9,4.8,20c4,4.7,9.6,6.6,16.4,6.6c11.6,0,18-7.4,18-7.4l-0.6,3.6
			c-0.2,1.4,0.8,2.6,2.2,2.6h11.7c1.9,0,3.4-1.4,3.7-3.2l7-44.6C283.4,53.2,282.3,52,280.9,52z M262.8,77.3
			c-1.3,7.4-7.2,12.4-14.7,12.4c-3.8,0-6.8-1.2-8.7-3.5c-1.9-2.3-2.7-5.5-2-9.1c1.2-7.4,7.2-12.5,14.6-12.5c3.7,0,6.7,1.2,8.7,3.5
			C262.5,70.5,263.3,73.7,262.8,77.3z"/>
		<path class="st0" d="M474.9,52h-13c-1.1,0-2.1,0.8-2.2,1.9l-0.6,3.6l-0.9-1.3c-2.8-4.1-9.1-5.5-15.4-5.5
			c-14.4,0-26.7,10.9-29.1,26.2c-1.2,7.6,0.5,14.9,4.8,20c4,4.7,9.6,6.6,16.4,6.6c11.6,0,18-7.4,18-7.4l-0.6,3.6
			c-0.2,1.4,0.8,2.6,2.2,2.6h11.7c1.9,0,3.4-1.4,3.7-3.2l7-44.6C477.3,53.2,476.3,52,474.9,52z M456.7,77.3
			c-1.3,7.4-7.2,12.4-14.7,12.4c-3.8,0-6.8-1.2-8.7-3.5c-1.9-2.3-2.7-5.5-2-9.1c1.2-7.4,7.2-12.5,14.6-12.5c3.7,0,6.7,1.2,8.7,3.5
			C456.5,70.5,457.3,73.7,456.7,77.3z"/>
		<path class="st1" d="M350.3,52h-13.1c-1.3,0-2.4,0.6-3.1,1.7L316,80.2l-7.7-25.6c-0.5-1.6-2-2.7-3.6-2.7h-12.9
			c-1.6,0-2.6,1.5-2.1,3l14.4,42.3l-13.6,19.1c-1.1,1.5,0,3.6,1.8,3.6h13.1c1.2,0,2.4-0.6,3.1-1.6l43.5-62.8
			C353.2,54,352.1,52,350.3,52z"/>
		<path class="st0" d="M490.2,28.8l-11.2,71c-0.2,1.4,0.8,2.6,2.2,2.6h11.2c1.9,0,3.4-1.4,3.7-3.2l11-69.7c0.2-1.4-0.8-2.6-2.2-2.6
			h-12.6C491.3,26.8,490.4,27.6,490.2,28.8z"/>
	</g>
	<g>
		<path class="st1" d="M64.2,115.1l3.7-23.2l0.2-1.3c0.2-1.1,0.7-2.1,1.6-2.9c0.9-0.7,2-1.1,3.1-1.1h2.9c4.8,0,9.3-0.5,13.2-1.5
			c4.2-1.1,7.9-2.8,11.1-5c3.4-2.4,6.2-5.5,8.4-9.2c2.3-3.9,4-8.6,5.1-13.9c0.9-4.7,1.1-9,0.5-12.6c-0.6-3.8-2.1-7.1-4.4-9.7
			c-1.4-1.6-3.2-3-5.3-4.1l0,0l0-0.1c0.7-4.7,0.7-8.7-0.1-12c-0.8-3.4-2.4-6.4-5-9.3c-5.3-6-14.8-9-28.4-9H33.5
			c-1.2,0-2.5,0.4-3.4,1.3c-0.9,0.8-1.6,1.9-1.8,3.2L12.8,103c-0.1,0.9,0.1,1.8,0.7,2.5c0.6,0.7,1.5,1.1,2.4,1.1H39l0,0.1l-1.6,10.1
			c-0.1,0.8,0.1,1.6,0.6,2.2c0.5,0.6,1.3,0.9,2.1,0.9h19.4c1.1,0,2.1-0.4,3-1.1c0.8-0.7,1.4-1.7,1.5-2.8L64.2,115.1z"/>
		<g>
			<path class="st1" d="M50.9,30.6c0.2-1.6,1.2-2.8,2.6-3.5c0.6-0.3,1.3-0.5,2-0.5h29.2c3.5,0,6.7,0.2,9.6,0.7
				c0.8,0.1,1.7,0.3,2.5,0.5c0.8,0.2,1.6,0.4,2.3,0.6c0.4,0.1,0.7,0.2,1.1,0.3c1.4,0.5,2.8,1,4,1.7c1.5-9.3,0-15.7-5.1-21.4
				c-5.6-6.3-15.6-9-28.4-9H33.5c-2.6,0-4.9,1.9-5.3,4.5L12.7,103c-0.3,1.9,1.2,3.7,3.2,3.7h23L44.7,70L50.9,30.6z"/>
			<path class="st0" d="M104.4,30.5L104.4,30.5L104.4,30.5c-0.1,0.7-0.2,1.4-0.4,2.2c-4.9,25.3-21.7,34-43.2,34H49.8
				c-2.6,0-4.8,1.9-5.3,4.5v0v0l-5.6,35.5l-1.6,10.1c-0.3,1.7,1,3.2,2.8,3.2h19.4c2.3,0,4.3-1.7,4.6-3.9l0.2-1L68,91.9l0.2-1.3
				c0.4-2.3,2.3-3.9,4.6-3.9h2.9c18.8,0,33.5-7.6,37.8-29.7c1.8-9.2,0.9-16.9-3.9-22.4C108.2,32.9,106.4,31.6,104.4,30.5z"/>
			<path class="st2" d="M99.2,28.4c-0.7-0.2-1.5-0.4-2.3-0.6c-0.8-0.2-1.6-0.3-2.5-0.5c-3-0.5-6.2-0.7-9.6-0.7H55.5
				c-0.7,0-1.4,0.2-2,0.5c-1.3,0.6-2.3,1.9-2.6,3.5L44.7,70l-0.2,1.1c0.4-2.6,2.6-4.5,5.3-4.5h10.9c21.5,0,38.3-8.7,43.2-34
				c0.1-0.7,0.3-1.5,0.4-2.2c-1.2-0.7-2.6-1.2-4-1.7C99.9,28.7,99.6,28.5,99.2,28.4z"/>
		</g>
	</g>
</g>
</svg>
