<?xml version="1.0" encoding="utf-8"?>
<!-- Generator: Adobe Illustrator 19.0.1, SVG Export Plug-In . SVG Version: 6.00 Build 0)  -->
<svg version="1.1" id="Слой_1" xmlns="http://www.w3.org/2000/svg" xmlns:xlink="http://www.w3.org/1999/xlink" x="0px" y="0px"
	 viewBox="64 174 628 153" style="enable-background:new 64 174 628 153;" xml:space="preserve">
<style type="text/css">
	.st0{fill:#4795C8;}
	.st1{fill:#424B7B;}
	.st2{fill:#373E61;}
</style>
<g>
	<g>
		<path class="st0" d="M547.6,208.4h-34.5c-2.4,0-4.4,1.7-4.7,4l-14,88.5c-0.3,1.7,1.1,3.3,2.8,3.3h17.7c1.7,0,3.1-1.2,3.3-2.8
			l4-25.1c0.4-2.3,2.4-4,4.7-4h10.9c22.7,0,35.9-11,39.3-32.8c1.5-9.5,0.1-17-4.4-22.3C567.9,211.4,559.2,208.4,547.6,208.4z
			 M551.6,240.7c-1.9,12.4-11.4,12.4-20.5,12.4h-5.2l3.7-23.1c0.2-1.4,1.4-2.4,2.8-2.4h2.4c6.2,0,12.1,0,15.2,3.6
			C551.7,233.2,552.3,236.4,551.6,240.7z"/>
		<path class="st1" d="M301.4,208.4h-34.5c-2.4,0-4.4,1.7-4.7,4l-14,88.5c-0.3,1.7,1.1,3.3,2.8,3.3h16.5c2.4,0,4.4-1.7,4.7-4
			l3.8-23.9c0.4-2.3,2.4-4,4.7-4h10.9c22.7,0,35.9-11,39.3-32.8c1.5-9.5,0.1-17-4.4-22.3C321.6,211.4,312.9,208.4,301.4,208.4z
			 M305.3,240.7c-1.9,12.4-11.4,12.4-20.5,12.4h-5.2l3.7-23.1c0.2-1.4,1.4-2.4,2.8-2.4h2.4c6.2,0,12.1,0,15.2,3.6
			C305.5,233.2,306,236.4,305.3,240.7z"/>
		<path class="st1" d="M404.5,240.3H388c-1.4,0-2.6,1-2.8,2.4l-0.7,4.6l-1.2-1.7c-3.6-5.2-11.6-6.9-19.5-6.9
			c-18.3,0-33.9,13.8-36.9,33.3c-1.6,9.7,0.7,18.9,6.2,25.4c5,5.9,12.2,8.4,20.8,8.4c14.7,0,22.9-9.5,22.9-9.5L376,301
			c-0.3,1.7,1.1,3.3,2.8,3.3h14.9c2.4,0,4.4-1.7,4.7-4l8.9-56.6C407.7,241.9,406.3,240.3,404.5,240.3z M381.5,272.5
			c-1.6,9.4-9.1,15.8-18.7,15.8c-4.8,0-8.6-1.5-11.1-4.5c-2.4-2.9-3.4-7-2.6-11.6c1.5-9.4,9.1-15.9,18.5-15.9c4.7,0,8.5,1.6,11,4.5
			C381.2,263.8,382.2,267.9,381.5,272.5z"/>
		<path class="st0" d="M650.8,240.3h-16.5c-1.4,0-2.6,1-2.8,2.4l-0.7,4.6l-1.2-1.7c-3.6-5.2-11.6-6.9-19.5-6.9
			c-18.3,0-33.9,13.8-36.9,33.3c-1.6,9.7,0.7,18.9,6.2,25.4c5,5.9,12.2,8.4,20.8,8.4c14.7,0,22.9-9.5,22.9-9.5l-0.7,4.6
			c-0.3,1.7,1.1,3.3,2.8,3.3H640c2.4,0,4.4-1.7,4.7-4l8.9-56.6C653.9,241.9,652.6,240.3,650.8,240.3z M627.8,272.5
			c-1.6,9.4-9.1,15.8-18.7,15.8c-4.8,0-8.6-1.5-11.1-4.5c-2.4-2.9-3.4-7-2.6-11.6c1.5-9.4,9.1-15.9,18.5-15.9c4.7,0,8.5,1.6,11,4.5
			C627.5,263.8,628.5,267.9,627.8,272.5z"/>
		<path class="st1" d="M492.6,240.3H476c-1.6,0-3.1,0.8-4,2.1l-22.9,33.8l-9.7-32.4c-0.6-2-2.5-3.4-4.6-3.4h-16.3
			c-2,0-3.4,1.9-2.7,3.8l18.3,53.7l-17.2,24.3c-1.4,1.9,0,4.5,2.3,4.5h16.6c1.6,0,3-0.8,3.9-2.1l55.3-79.7
			C496.3,242.9,494.9,240.3,492.6,240.3z"/>
		<path class="st0" d="M670.3,210.8L656.1,301c-0.3,1.7,1.1,3.3,2.8,3.3h14.3c2.4,0,4.4-1.7,4.7-4l14-88.5c0.3-1.7-1.1-3.3-2.8-3.3
			h-15.9C671.7,208.4,670.5,209.4,670.3,210.8z"/>
	</g>
	<g>
		<path class="st1" d="M129.4,320.4L134,291l0.3-1.6c0.2-1.4,1-2.7,2-3.7c1.1-0.9,2.5-1.4,3.9-1.4h3.8c6.1,0,11.8-0.7,16.8-2
			c5.3-1.4,10.1-3.5,14.1-6.4c4.3-3,7.8-6.9,10.6-11.6c2.9-4.9,5.1-10.9,6.4-17.7c1.2-6,1.4-11.4,0.7-16c-0.8-4.9-2.6-9-5.6-12.3
			c-1.8-2-4-3.8-6.7-5.2h-0.1V213c0.9-6,0.9-11-0.1-15.3s-3.1-8.2-6.3-11.9c-6.7-7.6-18.8-11.4-36-11.4H90.5c-1.6,0-3.1,0.6-4.3,1.6
			c-1.2,1-2,2.5-2.3,4L64.2,305c-0.2,1.1,0.1,2.3,0.9,3.2c0.8,0.9,1.8,1.4,3,1.4h29.4v0.1l-2,12.8c-0.2,1,0.1,2,0.8,2.8
			c0.7,0.8,1.6,1.2,2.6,1.2h24.6c1.4,0,2.7-0.5,3.8-1.4c1.1-0.9,1.7-2.1,2-3.5L129.4,320.4z"/>
		<g>
			<path class="st1" d="M112.6,213.2c0.3-2,1.6-3.6,3.3-4.4c0.8-0.4,1.6-0.6,2.6-0.6h37.1c4.4,0,8.5,0.3,12.2,0.9
				c1.1,0.2,2.1,0.4,3.1,0.6s2,0.5,2.9,0.8c0.5,0.1,0.9,0.3,1.4,0.4c1.8,0.6,3.6,1.3,5.1,2.2c1.9-11.9,0-19.9-6.4-27.2
				c-7.1-8-19.8-11.5-36.1-11.5H90.5c-3.3,0-6.2,2.4-6.7,5.7l-19.7,125c-0.4,2.5,1.5,4.7,4,4.7h29.2l7.3-46.6L112.6,213.2z"/>
			<path class="st0" d="M180.4,213L180.4,213L180.4,213c-0.1,0.9-0.3,1.8-0.5,2.8c-6.2,32.1-27.6,43.1-54.9,43.1h-13.9
				c-3.3,0-6.1,2.4-6.7,5.7l0,0l0,0l-7.1,45.1l-2,12.8c-0.3,2.2,1.3,4.1,3.5,4.1h24.6c2.9,0,5.4-2.1,5.9-5l0.2-1.3l4.6-29.4l0.3-1.6
				c0.5-2.9,2.9-5,5.9-5h3.7c23.9,0,42.6-9.7,48-37.7c2.3-11.7,1.1-21.5-4.9-28.4C185.3,216.2,183,214.4,180.4,213z"/>
			<path class="st2" d="M173.9,210.4c-1-0.3-1.9-0.5-2.9-0.8c-1-0.2-2.1-0.4-3.1-0.6c-3.7-0.6-7.8-0.9-12.2-0.9h-37.3
				c-0.9,0-1.8,0.2-2.6,0.6c-1.7,0.8-3,2.4-3.3,4.4l-7.9,50l-0.2,1.5c0.5-3.3,3.3-5.7,6.7-5.7H125c27.3,0,48.7-11.1,54.9-43.1
				c0.2-0.9,0.3-1.9,0.5-2.8c-1.6-0.8-3.3-1.6-5.1-2.2C174.8,210.7,174.3,210.6,173.9,210.4z"/>
		</g>
	</g>
</g>
</svg>
