<?xml version="1.0" encoding="utf-8"?>
<!-- Generator: Adobe Illustrator 19.0.1, SVG Export Plug-In . SVG Version: 6.00 Build 0)  -->
<svg version="1.1" id="Слой_1" xmlns="http://www.w3.org/2000/svg" xmlns:xlink="http://www.w3.org/1999/xlink" x="0px" y="0px"
	 viewBox="-129 162 241 177" style="enable-background:new -129 162 241 177;" xml:space="preserve">
<style type="text/css">
	.st0{fill:#80B95D;}
	.st1{fill:#201600;}
</style>
<g>
	<polygon class="st0" points="-121.8,332.2 -128.9,332.2 -128.9,307 -103.3,307 -103.3,332.2 -110.4,332.2 -110.4,311.9 
		-121.8,311.9 	"/>
	<path class="st0" d="M-93.6,323c0-5.1,3.1-6.1,5.1-6.1c1.9,0,5.1,1,5.1,6.1c0,3.2-1.3,6.2-5.1,6.2C-92.4,329.2-93.6,326.2-93.6,323
		L-93.6,323z M-99.9,313.9L-99.9,313.9v24.9h6.6v-8.5c2.2,2.4,5.8,2.6,6.6,2.6c6.2,0,10.1-4,10.1-9.8c0-6-3.8-9.8-10-9.8
		c-1.6,0-4.6,0.3-7.1,2.9h-0.1V314h-6.1V313.9z"/>
	<path class="st0" d="M-60.4,330c-2.4,2.3-4.7,2.9-7.3,2.9c-7.1,0-7.3-5.3-7.3-7.5V314h6.6v10.6c0,3.6,1.2,4.7,3.7,4.7
		c4.1,0,4.4-3.7,4.4-5v-10.2h6.5v18.2h-6.5L-60.4,330L-60.4,330z"/>
	<path class="st0" d="M-44.4,317.6h3.5c1.9,0,3.4,0.3,3.4,1.8c0,1.7-2.5,1.7-3.6,1.7h-3.4L-44.4,317.6L-44.4,317.6z M-51,313.9
		L-51,313.9v18.2h13c4.7,0,8-0.9,8-4.7c0-2.9-1.6-4.1-5.2-4.8v-0.1c2.4-0.3,4.4-1.8,4.4-4.3c0-4.4-5.2-4.4-7.2-4.4h-13V313.9z
		 M-44.4,324.5L-44.4,324.5h4c3.1,0,3.7,0.9,3.7,2.2c0,0.8-0.4,1.9-3.7,1.9h-4.1L-44.4,324.5L-44.4,324.5z"/>
	<path class="st0" d="M-14.1,324.6c0,3.7-3.2,4.6-4.8,4.6c-1.2,0-3.4-0.4-3.4-2.1c0-2.1,2.5-2.4,3.8-2.6c2.5-0.4,2.3-0.2,4.3-1
		L-14.1,324.6L-14.1,324.6z M-21.7,319.8L-21.7,319.8c0-2.7,2.8-2.9,4-2.9c0.7,0,3.4,0,3.5,2.4c0,0.2,0,0.3,0,0.5
		c-0.1,1.8-1.9,1.4-6.7,2c-4,0.5-8.1,1.5-8.1,5.7c0,1.5,0.7,5.3,7.6,5.3c2.7,0,5.6-0.7,7.3-2.5h0.1l0.6,1.8h6.9v-0.3
		c-1.2-0.3-1.3-1.5-1.3-3.4l0.1-8.3c0-2.1-0.2-6.8-10-6.8c-2.4,0-10,0.2-10.3,6.6h6.3V319.8z"/>
	<polygon class="st0" points="-6.9,317.6 -6.9,313.9 14.2,313.9 14.2,317.6 6.9,317.6 6.9,332.2 0.4,332.2 0.4,317.6 	"/>
	<path class="st0" d="M22.5,321.2h5.9c1.7,0,5.2,0.2,5.2,3.2c0,2.4-2.5,2.8-5.3,2.8h-5.8L22.5,321.2L22.5,321.2z M22.5,311.9
		L22.5,311.9h16.3V307H15.4v25.1h14.4c7,0,11.5-2.4,11.5-7.6c0-8-9-8.2-11.5-8.2h-7.3V311.9L22.5,311.9z"/>
	<path class="st0" d="M57.4,324.6c0,3.7-3.2,4.6-4.8,4.6c-1.2,0-3.4-0.4-3.4-2.1c0-2.1,2.5-2.4,3.8-2.6c2.5-0.4,2.3-0.2,4.3-1
		L57.4,324.6L57.4,324.6z M49.8,319.8L49.8,319.8c0-2.7,2.8-2.9,4-2.9c0.7,0,3.5,0,3.5,2.4c0,0.2,0,0.3,0,0.5
		c-0.1,1.8-1.9,1.4-6.7,2c-4,0.5-8.1,1.5-8.1,5.7c0,1.5,0.6,5.3,7.6,5.3c2.7,0,5.6-0.7,7.3-2.5h0.1l0.6,1.8H65v-0.3
		c-1.3-0.3-1.3-1.5-1.3-3.4l0.1-8.3c0-2.1-0.2-6.8-10-6.8c-2.4,0-10,0.2-10.3,6.6h6.3V319.8z"/>
	<polygon class="st0" points="73.2,332.2 66.7,332.2 66.7,313.9 73.2,313.9 73.2,320.8 81.1,320.8 81.1,313.9 87.7,313.9 
		87.7,332.2 81.1,332.2 81.1,324.4 73.2,324.4 	"/>
	<polygon class="st0" points="104.2,313.9 111.5,313.9 102.5,322.5 111.9,332.2 104.3,332.2 97.2,324.2 97.1,324.2 97.1,332.2 
		90.5,332.2 90.5,313.9 97.1,313.9 97.1,321.2 97.2,321.2 	"/>
	<polygon class="st1" points="-72.2,295.8 -19.9,295.8 -19.9,243.5 -72.2,243.5 	"/>
	<path class="st0" d="M-72.1,162.2v65h13.8c36.3,0,54.8,18.4,54.8,54.8v13.8h65V162.2H-72.1L-72.1,162.2z M33.9,189.8L33.9,189.8
		c0,17.7,0,60.6,0,78.3c-5,0-5.8,0-10.7,0c-4.6-38.7-29-63.1-67.7-67.7c0-4.8,0-5.7,0-10.7C-26.7,189.8,16.1,189.8,33.9,189.8
		L33.9,189.8z"/>
</g>
</svg>
