<?xml version="1.0" encoding="utf-8"?>
<!-- Generator: Adobe Illustrator 19.0.1, SVG Export Plug-In . SVG Version: 6.00 Build 0)  -->
<svg version="1.1" id="Слой_1" xmlns="http://www.w3.org/2000/svg" xmlns:xlink="http://www.w3.org/1999/xlink" x="0px" y="0px"
	 viewBox="0 0 260 208" style="enable-background:new 0 0 260 208;" xml:space="preserve">
<style type="text/css">
	.st0{fill:#80B95D;}
	.st1{fill:#201600;}
</style>
<g>
	<polygon class="st0" points="7.7,192.2 0,192.2 0,165 27.6,165 27.6,192.2 20,192.2 20,170.3 7.7,170.3 7.7,192.2 	"/>
	<path class="st0" d="M38.1,182.3c0-5.5,3.4-6.6,5.5-6.6c2.1,0,5.5,1.1,5.5,6.6c0,3.4-1.4,6.7-5.5,6.7
		C39.5,188.9,38.1,185.7,38.1,182.3L38.1,182.3z M31.3,172.5L31.3,172.5v26.9h7.1v-9.2c2.4,2.6,6.2,2.8,7.2,2.8
		c6.7,0,10.9-4.3,10.9-10.5c0-6.5-4.1-10.6-10.7-10.6c-1.7,0-4.9,0.3-7.6,3.1H38l0-2.4H31.3L31.3,172.5z"/>
	<path class="st0" d="M74,189.8c-2.6,2.4-5.1,3.1-7.9,3.1c-7.6,0-7.9-5.7-7.9-8.1v-12.3h7.1v11.4c0,3.9,1.3,5.1,4,5.1
		c4.5,0,4.8-4,4.8-5.4v-11h7.1v19.7H74V189.8L74,189.8z"/>
	<path class="st0" d="M91.2,176.4H95c2,0,3.7,0.3,3.7,1.9c0,1.8-2.7,1.8-3.9,1.8h-3.7V176.4L91.2,176.4z M84.1,172.5L84.1,172.5
		v19.7h14c5.1,0,8.7-1,8.7-5c0-3.1-1.7-4.5-5.6-5.2v-0.1c2.6-0.3,4.8-1.9,4.8-4.6c0-4.8-5.6-4.8-7.8-4.8H84.1L84.1,172.5z
		 M91.2,183.9L91.2,183.9h4.3c3.4,0,4,1,4,2.3c0,0.9-0.5,2-4,2h-4.4V183.9L91.2,183.9z"/>
	<path class="st0" d="M124,184c0,4-3.4,4.9-5.2,4.9c-1.3,0-3.6-0.4-3.6-2.3c0-2.2,2.6-2.6,4.1-2.8c2.7-0.4,2.5-0.3,4.6-1V184
		L124,184z M115.8,178.8L115.8,178.8c0-2.9,3.1-3.1,4.3-3.1c0.8,0,3.7,0,3.8,2.6c0,0.2,0,0.4,0,0.5c-0.1,1.9-2,1.5-7.2,2.2
		c-4.3,0.6-8.8,1.7-8.8,6.2c0,1.6,0.7,5.7,8.2,5.7c2.9,0,6-0.7,7.9-2.7h0.1l0.6,1.9h7.4v-0.3c-1.3-0.3-1.4-1.6-1.4-3.7l0.1-9
		c0-2.3-0.2-7.4-10.8-7.4c-2.6,0-10.8,0.2-11.1,7.1H115.8L115.8,178.8z"/>
	<polygon class="st0" points="131.8,176.4 131.8,172.5 154.5,172.5 154.5,176.4 146.6,176.4 146.6,192.2 139.6,192.2 139.6,176.4 
		131.8,176.4 	"/>
	<path class="st0" d="M163.5,180.4h6.4c1.9,0,5.6,0.2,5.6,3.4c0,2.6-2.7,3.1-5.7,3.1h-6.2V180.4L163.5,180.4z M163.5,170.3
		L163.5,170.3h17.6V165h-25.3v27.1h15.5c7.5,0,12.4-2.6,12.4-8.2c0-8.7-9.7-8.9-12.4-8.9h-7.9V170.3L163.5,170.3z"/>
	<path class="st0" d="M201.1,184c0,4-3.4,4.9-5.2,4.9c-1.3,0-3.6-0.4-3.6-2.3c0-2.2,2.7-2.6,4.1-2.8c2.7-0.4,2.5-0.3,4.7-1V184
		L201.1,184z M192.9,178.8L192.9,178.8c0-2.9,3.1-3.1,4.3-3.1c0.8,0,3.7,0,3.8,2.6c0,0.2,0,0.4,0,0.5c-0.1,1.9-2,1.5-7.2,2.2
		c-4.3,0.6-8.8,1.7-8.8,6.2c0,1.6,0.7,5.7,8.2,5.7c2.9,0,6-0.7,7.9-2.7h0.1l0.6,1.9h7.4v-0.3c-1.4-0.3-1.4-1.6-1.4-3.7l0.1-9
		c0-2.3-0.2-7.4-10.8-7.4c-2.6,0-10.8,0.2-11.1,7.1H192.9L192.9,178.8z"/>
	<polygon class="st0" points="218.2,192.2 211.2,192.2 211.2,172.5 218.2,172.5 218.2,179.9 226.7,179.9 226.7,172.5 233.8,172.5 
		233.8,192.2 226.7,192.2 226.7,183.8 218.2,183.8 218.2,192.2 	"/>
	<polygon class="st0" points="251.7,172.5 259.5,172.5 249.8,181.7 260,192.2 251.7,192.2 244.1,183.5 244,183.5 244,192.2 
		236.9,192.2 236.9,172.5 244,172.5 244,180.4 244.1,180.4 251.7,172.5 	"/>
	<polygon class="st1" points="61.3,152.8 117.7,152.8 117.7,96.5 61.3,96.5 61.3,152.8 	"/>
	<path class="st0" d="M61.4,8.7v70.2h14.9c39.2,0,59.1,19.9,59.1,59.1v14.9h70.2V8.7H61.4L61.4,8.7z M175.7,38.5L175.7,38.5
		c0,19.2,0,65.4,0,84.6c-5.4,0-6.3,0-11.5,0C159.3,81.2,133,55,91.2,50c0-5.2,0-6.1,0-11.5C110.3,38.5,156.6,38.5,175.7,38.5
		L175.7,38.5z"/>
</g>
</svg>
