<?xml version="1.0" encoding="utf-8"?>
<!-- Generator: Adobe Illustrator 19.0.1, SVG Export Plug-In . SVG Version: 6.00 Build 0)  -->
<svg version="1.1" id="Слой_1" xmlns="http://www.w3.org/2000/svg" xmlns:xlink="http://www.w3.org/1999/xlink" x="0px" y="0px"
	 viewBox="0 0 285 362" style="enable-background:new 0 0 285 362;" xml:space="preserve">
<style type="text/css">
	.st0{fill:#5681C1;}
	.st1{fill:#DB8916;}
</style>
<path id="russia_x5F_word" class="st0" d="M247.3,252.7h-9.1c-1.7,0-1.9,0.7-2,2v63.5c0,1.8,0.8,2,2.1,2.1h8.9
	c1.2,0,2.1-0.3,2.1-2.1v-63.5C249.3,253,248.7,252.7,247.3,252.7z M122.2,252.7h-9.1c-1.7,0-1.9,0.7-2,2v63.5c0,1.8,0.8,2,2.1,2.1
	h8.9c1.2,0,2.1-0.3,2.1-2.1v-63.5C124.2,253,123.7,252.7,122.2,252.7z M93.1,337.2c-5.7-1.5-17.6-5.7-20.8-16.5
	c17.1-6.4,21.3-23,21.3-34.4c0-20.7-12.3-35.1-30.4-35.1c-16.7,0-30.7,12.1-30.7,35.9c0,15.6,7.2,31.6,26.2,34.6
	c7.9,18.5,33,21.4,34.9,21.4c2.7,0,3.3-1.7,3.3-2.8C96.9,338.1,95.5,337.7,93.1,337.2z M63,314c-1.2,0-8,0-12.8-8
	c-3.4-5.9-4.2-13.8-4.2-19.7c0-6.4,0.9-14.1,4.2-19.5c3.3-5.1,8.2-7.6,12.9-7.6c2.2,0,8.1,0.6,12.4,7.3c4,6.2,4.6,14.8,4.6,19.4
	c0.1,5.6-0.5,13.7-3.7,19.5C72.9,311.4,67.7,314,63,314z M218.2,252.7h-6.5c-1.3,0-1.8,0.4-2.2,1.9l-11.1,43.9l-13.6-43.6
	c-0.6-1.8-0.7-2-1.3-2.2h-3.7c-1,0-1.2,0.6-1.7,1.9l-13.4,43.9l-11.1-43.7c-0.5-2-0.9-2.1-2.5-2.1h-9c-1,0-1.8,0.3-1.8,1.4
	c0,0.4,0,0.5,0.3,1.5l17.9,62.9c0.5,1.5,1,1.8,2.7,1.8c1.4,0,4,0,4.3-0.1c0.9-0.1,1.1-0.4,1.6-1.8l12.8-40.9l13.7,40.9
	c0.5,1.4,0.8,1.7,1.7,1.8h4.7c1.3,0,1.6-0.3,2.1-1.9l17.7-62.8c0.2-0.9,0.3-1.3,0.3-1.7C220.1,252.7,219.3,252.7,218.2,252.7z"/>
<path id="main_x5F_word" class="st0" d="M169,348.5c0,0-0.2,0-0.3,0c0.2-0.1,0.3-0.1,0.3-0.1c1.1-0.5,3.6-2,3.6-5.1
	c0-1.8-0.9-3.3-2.4-4.3c-1.4-0.9-3.5-1.3-6.1-1.3c-1.5,0-4.2,0.2-5,0.4c-0.5,0.2-0.6,0.5-0.6,1v20.4c0,0.7,0,1,0.6,1.2
	c0.6,0.2,2.6,0.4,4.8,0.4c2.5,0,10.1,0,10.1-6.4C174.1,351.5,172.2,349.3,169,348.5z M162,339.9c0.2,0,2.1-0.1,2.1-0.1
	c3.3,0,4.9,1.4,4.9,4c0,0.9-0.3,3.6-4.5,4c0,0-2.1,0-2.5,0C162,347.5,162,340.2,162,339.9z M164.5,358.8c0,0-2.4-0.1-2.5-0.1
	c0-0.3,0-8.6,0-8.9c0.1,0,0.3,0,0.3,0l1.6-0.1c1.9,0,4,0.1,5.4,1.7c0.4,0.5,1.1,1.5,1.1,3.1C170.4,358.3,166.7,358.8,164.5,358.8z
	 M117.7,348c0.1-0.2,7.1-9,7.1-9l0.1-0.1l0.3-0.6c0-0.3-0.2-0.5-0.6-0.5h-1.8c-0.4,0.1-0.6,0.2-0.9,0.7c0,0-6.1,7.6-7.4,9.2
	c0-0.8,0-9.1,0-9.1l-0.2-0.6l-0.6-0.1h-1.9c-0.6,0-0.8,0.2-0.8,0.8v21.5c0,0.7,0.2,0.8,0.8,0.8h1.8c0.3,0,0.8,0,0.8-0.6
	c0,0,0-10.1,0-11c0.5,0.7,7.9,11.1,7.9,11.1c0.4,0.5,0.5,0.5,1.1,0.5h2.6c0.5,0,0.6-0.3,0.6-0.5l-0.2-0.5
	C126.4,359.8,118.4,349,117.7,348z M198.3,337.8h-1.9c-0.5,0-0.6,0-0.9,0.6c0,0-11.3,15.7-11.8,16.4c0-0.9,0-16.2,0-16.2
	c0-0.4-0.1-0.7-0.4-0.8h-1.7c-0.5,0-0.6,0.2-0.6,0.7v21.6c0,0.7,0.2,0.7,0.7,0.7h1.2c0.4,0,0.5-0.1,0.8-0.5c0,0,10.8-15,12.6-17.5
	c0,0.9,0,17.2,0,17.2c0,0.3,0,0.7,0.4,0.7c0,0,0.1,0,1.7,0c0.6,0,0.7-0.3,0.7-0.8v-21.5C199.1,338,198.9,337.8,198.3,337.8z
	 M149.6,337.8h-1.2c-0.4,0.1-0.5,0.1-0.8,0.5c0,0-10.8,15-12.6,17.5c0-0.9,0-17.2,0-17.2c0-0.3,0-0.7-0.4-0.7c0,0-0.1,0-1.7,0
	c-0.6,0-0.7,0.3-0.7,0.8v21.5c0,0.6,0.2,0.8,0.8,0.8h1.8c0.5,0,0.6,0,0.9-0.6c0,0,11.3-15.7,11.8-16.4c0,0.9,0,16.2,0,16.2
	c0,0.4,0.1,0.7,0.4,0.7l1.7,0c0.6,0,0.7-0.2,0.7-0.7v-21.6C150.3,337.9,150.1,337.8,149.6,337.8z"/>
<path id="sign_1_" class="st1" d="M207.7,152.1c-2.1-0.8-2.3,1.7-1.8,3.3c1.2,3.8,2.8,6.7,4,7.3c1.1,0.7,2.5-0.9,1.6-4.7
	C211.1,156.4,209.9,152.9,207.7,152.1z M190.9,159.1C190.9,159.1,190.9,159.1,190.9,159.1c-0.2,0-0.2-0.1-0.2-0.1
	c-0.1,0-0.1-0.1-0.2-0.1c0,0-0.1,0-0.1,0c-0.1,0-0.2-0.1-0.3-0.1c-1.3-0.2-2.7,0-3.8,0.7c-2.5,1.7-2.9,5.6-0.8,8.6
	c1,1.4,2.2,2.4,3.6,2.9c0,0,0,0,0.1,0c0,0,0.1,0,0.1,0c0.1,0,0.1,0,0.2,0c0.1,0,0.1,0,0.1,0c0.1,0,0.2,0.1,0.3,0.1
	c1.3,0.3,2.7,0.1,3.8-0.7c2.5-1.7,2.9-5.5,0.8-8.6C193.6,160.6,192.3,159.6,190.9,159.1z M250.5,219.7c-6.1-12.5-17-21.6-28.8-28.6
	c-4.1-2.4-8.7-4.1-12.7-5.5c-9.2-3-18.2-3.7-28.6-5.5c-8.5-1.4-15.2-4.9-22.3-9.8c-3.7-2.6-6.8-6.1-9.4-9.8
	c-0.5-0.7-2.9-3.7-2.6-4.7c0,0-1.7,6.7,1.6,16c-30.3-1.4-56.9-18.2-69.1-38.5c-22.4-37.5-14.5-82.9,15.4-103
	c29.9-20.1,75.4-5.9,99.8,30.3c15.3,22.7,19.2,49.2,12.7,70.7c0,0.2-0.1,0.3-0.2,0.5c-13-9.4-24.8-4.6-24.8-4.6
	c13-1.3,23.2,9,23.2,9c1.5,1.3,3,2.8,4.3,4.5c0.3,0.4,0.6,0.8,0.9,1.2c3.4,4.6,5.5,9.7,6.4,15c25.8-32.7,30-78,7.2-113.2
	c-29.1-44.8-91-56.3-138.3-25.6C37.9,48.8,23.1,110,52.2,154.9c23.9,36.9,79.9,48.1,112,38c12.1-3.8,53.7-7.4,82.6,26.7
	c0,0,2.5,2.9,3.9,6.1c0,0,0.4,1.1,1.5,0.6C252.4,226.1,253.2,225.2,250.5,219.7z"/>
</svg>
