<?xml version="1.0" encoding="utf-8"?>
<!-- Generator: Adobe Illustrator 19.0.1, SVG Export Plug-In . SVG Version: 6.00 Build 0)  -->
<svg version="1.1" id="Слой_1" xmlns="http://www.w3.org/2000/svg" xmlns:xlink="http://www.w3.org/1999/xlink" x="0px" y="0px"
	 viewBox="-161 107 176 288" style="enable-background:new -161 107 176 288;" xml:space="preserve">
<style type="text/css">
	.st0{fill:#5681C1;}
	.st1{fill:#DB8916;}
</style>
<g>
	<path class="st0" d="M11.9,308.2H4.6c-1.4,0-1.5,0.5-1.6,1.6v50.7c0,1.4,0.6,1.6,1.7,1.7h7.1c1,0,1.7-0.2,1.7-1.7v-50.7
		C13.5,308.4,13,308.2,11.9,308.2z"/>
	<path class="st0" d="M-87.9,308.2h-7.3c-1.4,0-1.5,0.5-1.6,1.6v50.7c0,1.4,0.6,1.6,1.7,1.7h7.1c1,0,1.7-0.2,1.7-1.7v-50.7
		C-86.3,308.4-86.8,308.2-87.9,308.2z"/>
	<path class="st0" d="M-111.2,375.7c-4.6-1.2-14.1-4.5-16.6-13.2c13.7-5.1,17-18.4,17-27.5c0-16.5-9.8-28-24.2-28
		c-13.3,0-24.5,9.7-24.5,28.6c0,12.4,5.7,25.2,20.9,27.6c6.3,14.7,26.3,17.1,27.8,17.1c2.1,0,2.7-1.4,2.7-2.2
		C-108.1,376.5-109.3,376.2-111.2,375.7z M-135.2,357.2c-1,0-6.4,0-10.2-6.4c-2.7-4.7-3.4-11-3.4-15.8c0-5.1,0.7-11.2,3.4-15.5
		c2.6-4,6.6-6,10.3-6c1.7,0,6.4,0.5,9.9,5.8c3.2,5,3.7,11.8,3.7,15.5c0.1,4.5-0.4,10.9-3,15.6C-127.3,355.2-131.4,357.2-135.2,357.2
		z"/>
	<path class="st0" d="M-11.4,308.2h-5.2c-1.1,0-1.5,0.3-1.8,1.5l-8.9,35l-10.9-34.8c-0.5-1.4-0.5-1.6-1.1-1.7H-42
		c-0.8,0-1,0.4-1.4,1.5l-10.7,35l-8.8-34.9c-0.4-1.6-0.7-1.7-2-1.7h-7.2c-0.8,0-1.5,0.2-1.5,1.1c0,0.3,0,0.4,0.2,1.2l14.3,50.2
		c0.4,1.2,0.8,1.4,2.2,1.4c1.1,0,3.2,0,3.4-0.1c0.8-0.1,0.9-0.3,1.3-1.4l10.2-32.6l10.9,32.7c0.4,1.2,0.6,1.4,1.4,1.4h3.8
		c1.1,0,1.3-0.3,1.7-1.5l14.1-50.1c0.1-0.8,0.2-1.1,0.2-1.4C-9.8,308.2-10.5,308.2-11.4,308.2z"/>
	<path id="main_x5F_word_1_" class="st0" d="M-61.9,384.6c0,0-0.1,0-0.2,0c0.1-0.1,0.3-0.1,0.3-0.1c0.9-0.4,2.9-1.6,2.9-4.1
		c0-1.4-0.7-2.7-1.9-3.4c-1.1-0.7-2.8-1-4.9-1c-1.2,0-3.3,0.1-4,0.3c-0.4,0.1-0.5,0.4-0.5,0.8v16.2c0,0.6,0,0.8,0.5,1
		s2.1,0.4,3.8,0.4c2,0,8.1,0,8.1-5.1C-57.8,387.1-59.3,385.3-61.9,384.6z M-67.5,377.8c0.2,0,1.7-0.1,1.7-0.1c2.6,0,3.9,1.1,3.9,3.2
		c0,0.7-0.2,2.9-3.6,3.2c0,0-1.7,0-2,0C-67.5,383.8-67.5,378-67.5,377.8z M-65.5,392.9c0,0-1.9-0.1-2-0.1c0-0.2,0-6.9,0-7.1
		c0.1,0,0.3,0,0.3,0h1.3c1.5,0,3.2,0.1,4.3,1.4c0.3,0.4,0.9,1.2,0.9,2.5C-60.7,392.4-63.7,392.9-65.5,392.9z M-102.8,384.2
		c0.1-0.1,5.6-7.2,5.6-7.2l0.1-0.1l0.2-0.5c0-0.2-0.2-0.4-0.5-0.4h-1.4c-0.3,0.1-0.4,0.2-0.7,0.6c0,0-4.9,6.1-5.9,7.3
		c0-0.7,0-7.3,0-7.3l-0.1-0.5l-0.5-0.1h-1.5c-0.5,0-0.6,0.2-0.6,0.7v17.1c0,0.5,0.2,0.6,0.6,0.6h1.5c0.3,0,0.6,0,0.6-0.5
		c0,0,0-8.1,0-8.8c0.4,0.6,6.3,8.9,6.3,8.9c0.3,0.4,0.4,0.4,0.9,0.4h2c0.4,0,0.5-0.3,0.5-0.4l-0.2-0.4
		C-95.9,393.6-102.2,385-102.8,384.2z M-38.5,376.1H-40c-0.4,0-0.4,0-0.7,0.4c0,0-9,12.5-9.4,13.1c0-0.7,0-12.9,0-12.9
		c0-0.4-0.1-0.6-0.4-0.6h-1.4c-0.4,0-0.5,0.2-0.5,0.6v17.2c0,0.5,0.2,0.6,0.6,0.6h1c0.3,0,0.4-0.1,0.7-0.4c0,0,8.6-12,10-13.9
		c0,0.7,0,13.7,0,13.7c0,0.2,0,0.6,0.3,0.6c0,0,0.1,0,1.4,0c0.5,0,0.5-0.2,0.5-0.6v-17.2C-37.9,376.2-38,376.1-38.5,376.1z
		 M-77.4,376.1h-1c-0.3,0.1-0.4,0.1-0.7,0.4c0,0-8.6,12-10,14c0-0.7,0-13.7,0-13.7c0-0.2,0-0.6-0.3-0.6c0,0-0.1,0-1.4,0
		c-0.5,0-0.5,0.2-0.5,0.6V394c0,0.5,0.1,0.6,0.6,0.6h1.5c0.4,0,0.5,0,0.7-0.4c0,0,9-12.5,9.5-13.1c0,0.7,0,12.9,0,12.9
		c0,0.3,0.1,0.6,0.4,0.6h1.3c0.5,0,0.5-0.2,0.5-0.6v-17.2C-76.8,376.2-77,376.1-77.4,376.1z"/>
	<path class="st1" d="M-22.9,227.9c-1.7-0.6-1.8,1.4-1.4,2.7c0.9,3.1,2.2,5.4,3.2,5.8c0.9,0.5,2-0.7,1.3-3.8
		C-20.2,231.3-21.2,228.6-22.9,227.9z"/>
	<path class="st1" d="M-36.3,233.6C-36.3,233.5-36.3,233.5-36.3,233.6c-0.1,0-0.2-0.1-0.2-0.1c-0.1,0-0.1,0-0.2-0.1h-0.1
		c-0.1,0-0.2,0-0.3-0.1c-1.1-0.2-2.1,0-3,0.5c-2,1.4-2.3,4.4-0.7,6.9c0.8,1.1,1.8,1.9,2.9,2.3c0,0,0,0,0.1,0h0.1c0.1,0,0.1,0,0.2,0
		h0.1c0.1,0,0.2,0.1,0.2,0.1c1.1,0.2,2.1,0.1,3-0.5c2-1.4,2.3-4.4,0.7-6.9C-34.1,234.7-35.2,234-36.3,233.6z"/>
	<path class="st1" d="M11.3,281.8c-4.9-9.9-13.6-17.2-22.9-22.8c-3.3-1.9-6.9-3.3-10.1-4.4c-7.4-2.4-14.5-2.9-22.8-4.4
		c-6.8-1.2-12.1-3.9-17.8-7.8c-3-2-5.4-4.8-7.5-7.8c-0.4-0.6-2.3-2.9-2.1-3.7c0,0-1.3,5.3,1.3,12.8c-24.2-1.1-45.4-14.5-55.1-30.8
		c-18-29.8-11.7-66.1,12.1-82.1s60.2-4.7,79.6,24.2c12.2,18.1,15.3,39.3,10.1,56.4c0,0.1-0.1,0.3-0.1,0.4
		c-10.3-7.5-19.8-3.7-19.8-3.7c10.4-1.1,18.5,7.2,18.5,7.2c1.2,1.1,2.4,2.3,3.4,3.6c0.2,0.3,0.5,0.6,0.7,1c2.7,3.7,4.4,7.8,5.1,11.9
		c20.6-26.1,24-62.2,5.8-90.3c-23.1-35.8-72.5-44.9-110.3-20.4c-37.7,24.5-49.6,73.3-26.4,109c19,29.4,63.7,38.4,89.4,30.3
		c9.7-3,42.8-5.9,65.9,21.3c0,0,2,2.3,3.1,4.9c0,0,0.3,0.9,1.2,0.5C12.8,287,13.4,286.2,11.3,281.8z"/>
</g>
</svg>
