<?xml version="1.0" encoding="utf-8"?>
<!-- Generator: Adobe Illustrator 19.0.1, SVG Export Plug-In . SVG Version: 6.00 Build 0)  -->
<svg version="1.1" id="Слой_1" xmlns="http://www.w3.org/2000/svg" xmlns:xlink="http://www.w3.org/1999/xlink" x="0px" y="0px"
	 viewBox="-54 191 391 120" style="enable-background:new -54 191 391 120;" xml:space="preserve">
<style type="text/css">
	.st0{fill:#45619D;}
	.st1{fill:#E59D44;}
</style>
<g>
	<g>
		<polygon class="st0" points="83.9,309.1 103.6,193.2 135.2,193.2 115.4,309.1 		"/>
		<path class="st0" d="M230,196.1c-6.3-2.3-16.1-4.9-28.3-4.9c-31.2,0-53.2,15.7-53.4,38.2c-0.2,16.7,15.7,26,27.7,31.5
			c12.3,5.7,16.4,9.3,16.4,14.4c-0.1,7.8-9.8,11.3-18.9,11.3c-12.6,0-19.4-1.8-29.7-6.1l-4.1-1.8l-4.4,25.9c7.4,3.2,21,6,35.2,6.2
			c33.2,0,54.8-15.5,55-39.6c0.1-13.2-8.3-23.2-26.5-31.5c-11-5.4-17.8-8.9-17.7-14.4c0-4.8,5.7-10,18.1-10
			c10.3-0.2,17.8,2.1,23.6,4.4l2.8,1.3L230,196.1"/>
		<path class="st0" d="M311,193.3h-24.4c-7.6,0-13.2,2.1-16.5,9.6l-46.9,106.2h33.2c0,0,5.4-14.3,6.7-17.4c3.6,0,35.8,0,40.5,0
			c0.9,4.1,3.8,17.4,3.8,17.4h29.3L311,193.3 M272.1,268c2.6-6.7,12.6-32.4,12.6-32.4c-0.2,0.3,2.6-6.7,4.2-11.1l2.1,10
			c0,0,6,27.7,7.3,33.5H272.1z"/>
		<path class="st0" d="M57.4,193.3l-30.9,79l-3.3-16.1c-5.8-18.5-23.7-38.6-43.7-48.6L7.7,309h33.4l49.7-115.7H57.4"/>
		<path class="st1" d="M-2.2,193.2h-51l-0.4,2.4c39.6,9.6,65.9,32.8,76.8,60.7L12.1,203C10.2,195.7,4.6,193.5-2.2,193.2"/>
	</g>
</g>
</svg>
