<?xml version="1.0" encoding="utf-8"?>
<!-- Generator: Adobe Illustrator 19.0.1, SVG Export Plug-In . SVG Version: 6.00 Build 0)  -->
<svg version="1.1" id="Слой_1" xmlns="http://www.w3.org/2000/svg" xmlns:xlink="http://www.w3.org/1999/xlink" x="0px" y="0px"
	 viewBox="0 0 260 120" style="enable-background:new 0 0 260 120;" xml:space="preserve">
<style type="text/css">
	.st0{fill:#45619D;}
	.st1{fill:#E59D44;}
</style>
<g>
	<g>
		<polygon class="st0" points="91.6,98.7 104.8,21.5 125.8,21.5 112.6,98.7 		"/>
		<path class="st0" d="M189,23.4c-4.2-1.6-10.7-3.2-18.9-3.2c-20.8,0-35.5,10.5-35.6,25.5c-0.1,11.1,10.5,17.3,18.4,21
			c8.2,3.8,10.9,6.2,10.9,9.6c-0.1,5.2-6.5,7.5-12.6,7.5c-8.4,0-12.9-1.2-19.8-4.1l-2.7-1.2l-3,17.3c4.9,2.2,14,4,23.4,4.1
			c22.1,0,36.5-10.4,36.7-26.4c0.1-8.8-5.5-15.5-17.7-21c-7.4-3.6-11.9-6-11.8-9.6c0-3.2,3.8-6.6,12.1-6.6c6.9-0.1,11.9,1.4,15.8,3
			l1.9,0.9L189,23.4"/>
		<path class="st0" d="M243,21.6h-16.3c-5,0-8.8,1.4-11,6.4l-31.3,70.8h22.1c0,0,3.6-9.5,4.4-11.6c2.4,0,23.9,0,27,0
			c0.6,2.7,2.6,11.6,2.6,11.6H260L243,21.6 M217,71.3c1.7-4.4,8.4-21.6,8.4-21.6c-0.1,0.2,1.7-4.5,2.8-7.4l1.4,6.7
			c0,0,4,18.4,4.9,22.3H217z"/>
		<path class="st0" d="M73.9,21.5L53.3,74.2l-2.2-10.7C47.3,51.2,35.3,37.8,22,31.1l18.8,67.5l22.3,0l33.1-77.1H73.9"/>
		<path class="st1" d="M34.2,21.5H0.3L0,23.1c26.4,6.4,43.9,21.8,51.1,40.4L43.8,28C42.5,23.1,38.8,21.7,34.2,21.5"/>
	</g>
</g>
</svg>
