<?xml version="1.0" encoding="utf-8"?>
<!-- Generator: Adobe Illustrator 19.0.1, SVG Export Plug-In . SVG Version: 6.00 Build 0)  -->
<svg version="1.1" id="Слой_1" xmlns="http://www.w3.org/2000/svg" xmlns:xlink="http://www.w3.org/1999/xlink" x="0px" y="0px"
	 viewBox="44 175 588 152" style="enable-background:new 44 175 588 152;" xml:space="preserve">
<style type="text/css">
	.st0{fill:#4E79B8;}
</style>
<g>
	<g>
		<path class="st0" d="M119.9,175.5c11.9,0,23.1,2.7,33.1,7.6c1.6,0.7,3.1,1.6,4.7,2.5l-7,6.2L140.3,181l-17.6,15.8l-10.5-11.5
			l-32.8,29.6l21.1,23.2l-8.3,7.3l20.7,23.2l-8.2,7.3l29.6,33l17.6-16.2l15.2,17.4c-3,2.4-6.3,4.6-9.9,6.6
			c-11,6.3-23.7,9.9-37.2,9.9c-41.6,0-75.5-33.9-75.5-75.5C44.4,209.4,78.3,175.5,119.9,175.5L119.9,175.5z"/>
		<polygon class="st0" points="106.1,246.2 124.1,230.1 140.3,248 122.3,264.2 		"/>
		<polygon class="st0" points="118.9,277.3 136.9,261.1 153,279.1 135.1,295.2 		"/>
		<polygon class="st0" points="93.3,215.6 111.2,199.4 127.4,217.3 109.4,233.5 		"/>
		<polygon class="st0" points="126.2,206.9 139.7,194.7 151.8,208.2 138.4,220.3 		"/>
		<polygon class="st0" points="150.2,262.4 163.6,250.3 175.8,263.7 162.3,275.9 		"/>
		<polygon class="st0" points="162,289.6 175.5,277.5 187.6,290.9 174.1,303.1 		"/>
		<polygon class="st0" points="167.4,227.3 176.4,219.2 184.5,228.1 175.5,236.2 		"/>
		<polygon class="st0" points="156,200.6 164.9,192.5 173,201.5 164.1,209.6 		"/>
		<polygon class="st0" points="178.9,253.9 187.9,245.8 196,254.8 187,262.9 		"/>
		<polygon class="st0" points="138.6,233.9 152.1,221.8 164.2,235.3 150.8,247.4 		"/>
	</g>
	<g>
		<path class="st0" d="M262.6,248.1H262l-11.4,43h-9.3l-14-61.1h9.7l9.7,45.6h0.6l11.2-45.6h7.7l12,45.6h0.6l8.8-45.6h10.1l-14,61.1
			h-9.3L262.6,248.1z"/>
		<path class="st0" d="M335.8,281.7v6.5c-3.9,2.2-9,4-15.3,4c-14.5,0-20.4-9-20.4-22.6c0-13.1,6.6-22.6,19.6-22.6
			c10.8,0,17.4,7,17.4,21v3.2H309c0,10.3,4.2,14.9,13.1,14.9C326.8,286.1,331.1,284.5,335.8,281.7z M309.2,265.5h19.7
			c-0.4-9-4.8-12.7-9.5-12.7C314.2,252.8,310.1,256.8,309.2,265.5z"/>
		<path class="st0" d="M353.9,250.2c2.6-1.4,7-3.2,11.6-3.2c10.7,0,16.5,7.4,16.5,21.2c0,16.1-7.8,24-20.2,24
			c-4.6,0-11.6-1.5-16.8-4.2v-60.2l9-2.2v24.6H353.9z M353.8,284.8c2.8,1.2,5.8,1.4,7.9,1.4c6.4,0,11.2-4,11.2-17.9
			c0-10.9-4-14.5-9.7-14.5c-3.4,0-5.9,0.9-9.4,2.8V284.8z"/>
		<path class="st0" d="M421.2,278.2h0.4l18.5-48.2h10.7v61.1h-9.3v-44.3h-0.8l-17.6,44.3h-5.5L400,247.9h-0.8v43.3h-7.8V230h10.4
			L421.2,278.2z"/>
		<path class="st0" d="M460.2,269.6c0-15.1,8.3-22.6,19.6-22.6c11.4,0,19.6,7.5,19.6,22.6c0,14.7-7.8,22.6-19.6,22.6
			C468.1,292.2,460.2,284.3,460.2,269.6z M490.5,269.6c0-11.6-4.7-16.5-10.6-16.5c-5.7,0-10.6,4.9-10.6,16.5
			c0,11.8,4.5,16.5,10.6,16.5S490.5,281.4,490.5,269.6z"/>
		<path class="st0" d="M507.7,253.4c3.9-2.3,12.1-6.4,22-6.4c10.3,0,14.2,4.1,14.2,12.9v31.2h-9v-29.2c0-6.8-3.4-8-7.8-8
			c-3.4,0-7.8,1.6-10.5,3.1v34.1h-9L507.7,253.4L507.7,253.4z"/>
		<path class="st0" d="M587.6,281.7v6.5c-3.9,2.2-9,4-15.3,4c-14.5,0-20.4-9-20.4-22.6c0-13.1,6.6-22.6,19.6-22.6
			c10.8,0,17.4,7,17.4,21v3.2h-28.1c0,10.3,4.2,14.9,13.1,14.9C578.6,286.1,582.9,284.5,587.6,281.7z M561,265.5h19.7
			c-0.4-9-4.8-12.7-9.5-12.7C566,252.8,561.9,256.8,561,265.5z"/>
		<path class="st0" d="M622.4,248.5h9.2L616,291.6c-4.3,11.9-9.6,18.1-19.5,18.1v-7.1c5.9,0,9.5-4.7,11.5-11l-16.5-43.1h9.5l11,31.7
			h0.5L622.4,248.5z"/>
	</g>
</g>
</svg>
