<?xml version="1.0" encoding="utf-8"?>
<!-- Generator: Adobe Illustrator 19.0.1, SVG Export Plug-In . SVG Version: 6.00 Build 0)  -->
<svg version="1.1" id="Слой_1" xmlns="http://www.w3.org/2000/svg" xmlns:xlink="http://www.w3.org/1999/xlink" x="0px" y="0px"
	 viewBox="0 0 520 120" style="enable-background:new 0 0 520 120;" xml:space="preserve">
<style type="text/css">
	.st0{fill-rule:evenodd;clip-rule:evenodd;fill:#4E79B8;}
	.st1{fill:#4E79B8;}
</style>
<g>
	<g>
		<path class="st0" d="M86.7,0c9.4,0,18.3,2.2,26.3,6.1c1.2,0.6,2.5,1.2,3.7,2l-5.5,4.9l-8.3-8.6l-14,12.5l-8.3-9.1L54.5,31.3
			l16.7,18.4l-6.6,5.8L81.2,74l-6.5,5.8L98.2,106l14-12.9l12.1,13.8c-2.4,1.9-5,3.6-7.9,5.3c-8.7,5-18.8,7.8-29.6,7.8
			c-33,0-60-27-60-60C26.7,27,53.7,0,86.7,0L86.7,0z"/>
		<polygon class="st0" points="75.8,56.2 90.1,43.4 102.9,57.6 88.6,70.5 75.8,56.2 		"/>
		<polygon class="st0" points="85.9,80.9 100.2,68 113.1,82.3 98.8,95.1 85.9,80.9 		"/>
		<polygon class="st0" points="65.6,31.8 79.9,19 92.7,33.3 78.4,46.1 65.6,31.8 		"/>
		<polygon class="st0" points="91.8,24.9 102.5,15.3 112.1,26 101.4,35.6 91.8,24.9 		"/>
		<polygon class="st0" points="110.8,69.1 121.5,59.4 131.1,70.1 120.4,79.8 110.8,69.1 		"/>
		<polygon class="st0" points="120.2,90.7 130.9,81 140.5,91.7 129.8,101.4 120.2,90.7 		"/>
		<polygon class="st0" points="124.5,41.1 131.6,34.7 138.1,41.8 130.9,48.3 124.5,41.1 		"/>
		<polygon class="st0" points="115.4,19.9 122.5,13.5 128.9,20.7 121.8,27.1 115.4,19.9 		"/>
		<polygon class="st0" points="133.6,62.3 140.8,55.9 147.2,63 140,69.5 133.6,62.3 		"/>
		<polygon class="st0" points="101.6,46.4 112.3,36.8 122,47.5 111.3,57.1 101.6,46.4 		"/>
	</g>
	<g>
		<path class="st1" d="M200.1,57.7h-0.5l-9,34.2h-7.4l-11.1-48.5h7.7l7.7,36.2h0.5l8.9-36.2h6.1l9.5,36.2h0.5l7-36.2h8l-11.1,48.5
			h-7.4L200.1,57.7z"/>
		<path class="st1" d="M258.3,84.4v5.2c-3.1,1.8-7.2,3.2-12.1,3.2c-11.5,0-16.2-7.1-16.2-17.9c0-10.4,5.3-17.9,15.5-17.9
			c8.6,0,13.8,5.5,13.8,16.7v2.5H237c0,8.2,3.4,11.8,10.4,11.8C251.1,87.9,254.5,86.6,258.3,84.4z M237.1,71.5h15.7
			c-0.3-7.2-3.8-10.1-7.5-10.1C241.1,61.4,237.9,64.6,237.1,71.5z"/>
		<path class="st1" d="M272.6,59.4c2.1-1.1,5.5-2.5,9.2-2.5c8.5,0,13.1,5.9,13.1,16.8c0,12.8-6.2,19-16.1,19
			c-3.6,0-9.2-1.2-13.4-3.4V41.6l7.1-1.7V59.4z M272.6,86.8c2.2,1,4.6,1.1,6.3,1.1c5.1,0,8.9-3.1,8.9-14.2c0-8.7-3.1-11.5-7.7-11.5
			c-2.7,0-4.7,0.8-7.5,2.3V86.8z"/>
		<path class="st1" d="M326.1,81.6h0.3l14.6-38.3h8.5v48.5h-7.4V56.7h-0.6l-14,35.2h-4.4l-14-34.4h-0.6v34.4h-6.2V43.4h8.3
			L326.1,81.6z"/>
		<path class="st1" d="M357.1,74.8c0-12,6.6-17.9,15.6-17.9c9,0,15.6,6,15.6,17.9c0,11.7-6.2,17.9-15.6,17.9S357.1,86.5,357.1,74.8z
			 M381.1,74.8c0-9.2-3.8-13.1-8.4-13.1c-4.5,0-8.4,3.9-8.4,13.1c0,9.4,3.6,13.1,8.4,13.1C377.6,87.9,381.1,84.2,381.1,74.8z"/>
		<path class="st1" d="M394.8,61.9c3.1-1.8,9.6-5.1,17.5-5.1c8.2,0,11.3,3.2,11.3,10.3v24.8h-7.1V68.7c0-5.4-2.7-6.4-6.2-6.4
			c-2.7,0-6.2,1.2-8.4,2.5v27.1h-7.1V61.9z"/>
		<path class="st1" d="M458.3,84.4v5.2c-3.1,1.8-7.2,3.2-12.1,3.2c-11.5,0-16.2-7.1-16.2-17.9c0-10.4,5.3-17.9,15.5-17.9
			c8.6,0,13.8,5.5,13.8,16.7v2.5H437c0,8.2,3.4,11.8,10.4,11.8C451.1,87.9,454.5,86.6,458.3,84.4z M437.1,71.5h15.7
			c-0.3-7.2-3.8-10.1-7.5-10.1C441.1,61.4,437.9,64.6,437.1,71.5z"/>
		<path class="st1" d="M485.9,58h7.3l-12.4,34.2c-3.4,9.4-7.6,14.4-15.5,14.4V101c4.7,0,7.5-3.7,9.2-8.8L461.4,58h7.5l8.8,25.2h0.4
			L485.9,58z"/>
	</g>
</g>
</svg>
