<?xml version="1.0" encoding="utf-8"?>
<!-- Generator: Adobe Illustrator 19.0.1, SVG Export Plug-In . SVG Version: 6.00 Build 0)  -->
<svg version="1.1" id="Слой_1" xmlns="http://www.w3.org/2000/svg" xmlns:xlink="http://www.w3.org/1999/xlink" x="0px" y="0px"
	 viewBox="0 0 520 120" style="enable-background:new 0 0 520 120;" xml:space="preserve">
<style type="text/css">
	.st0{fill:#201600;}
	.st1{clip-path:url(#SVGID_2_);fill:#201600;}
	.st2{clip-path:url(#SVGID_2_);fill:#D34F43;}
	.st3{fill:#F5CA44;}
</style>
<g>
	<path class="st0" d="M264.9,75.3c0.9-1.7,3-5.7,4.2-10.7c1.1-4.8,1.3-10.3,1.3-18.1V40H293v35.3h4.8v13.6h-5.1V80h-26.9v8.9h-5.1
		V75.3H264.9L264.9,75.3z M275.7,44.8v1.3c0,10.1-0.7,15.5-1.7,19.3c-0.8,3.5-1.9,6.6-3.8,9.9h17.2V44.8H275.7L275.7,44.8z"/>
	<path class="st0" d="M325.6,76.4c-2.1,2.5-5.1,4.2-10.4,4.2c-3.2,0-6.6-0.5-9.5-3.5c-2.3-2.5-3.8-6.2-3.8-10.2
		c0-3.7,1.3-7.8,3.8-10.6c2.1-2.3,4.9-3.5,8.6-3.5c2.9,0,5.7,0.7,7.9,2.9c3.3,3.1,4.2,8.4,4.1,12.1h-19.2c0.1,2.5,1,5.3,2.6,6.9
		c1.7,1.7,3.6,2,5.3,2c1.6,0,4.6-0.2,7.4-2.9L325.6,76.4L325.6,76.4z M320.8,63.5c-0.2-1.7-1-3.8-2.1-5c-1.4-1.4-3-1.7-4.5-1.7
		c-1.7,0-3.1,0.3-4.4,1.6c-1.2,1.1-2.2,3.1-2.5,5.1H320.8L320.8,63.5z"/>
	<polygon class="st0" points="338.2,80 333.4,80 333.4,53.3 338.2,53.3 338.2,63.6 350.9,63.6 350.9,53.3 355.6,53.3 355.6,80 
		350.9,80 350.9,67.7 338.2,67.7 338.2,80 	"/>
	<path class="st0" d="M364.6,53.3h4.7v9.1h4.8c3.7,0,6.6,0.7,8.5,2.6c2.1,2,2.5,4.6,2.5,6.3c0,3.3-1.3,5.2-2.4,6.2
		c-2.3,2.2-5.8,2.5-9.3,2.5h-8.8V53.3L364.6,53.3z M373.7,75.9c1.1,0,3.3-0.1,4.6-1.1c0.7-0.6,1.7-1.7,1.7-3.6
		c0-1.8-0.9-2.9-1.5-3.5c-1.3-1-3.5-1.1-4.9-1.1h-4.2v9.4H373.7L373.7,75.9z"/>
	<polygon class="st0" points="396.3,80 391.5,80 391.5,53.3 408.6,53.3 408.6,57.6 396.3,57.6 396.3,80 	"/>
	<g>
		<defs>
			<rect id="SVGID_1_" x="24.2" y="0" width="471.5" height="120"/>
		</defs>
		<clipPath id="SVGID_2_">
			<use xlink:href="#SVGID_1_"  style="overflow:visible;"/>
		</clipPath>
		<polygon class="st1" points="432.1,56 432.1,53.3 436.8,53.3 436.8,80 432.1,80 432.1,61.8 419.4,77.3 419.4,80 414.6,80 
			414.6,53.3 419.4,53.3 419.4,71.4 432.1,56 		"/>
		<path class="st2" d="M46.8,60.3h-3.4c-5.3,0-10.4-3.8-10.4-13.5c0-10,4.8-14.1,9.7-14.1h4.1V60.3L46.8,60.3z M52,27.6h-9.1
			c-8.9,0-16.5,6.8-16.5,20c0,7.9,3.7,13.8,10.2,16.7L24.4,86.5c-0.4,0.7,0,1.3,0.6,1.3h5.7c0.5,0,0.8-0.2,1-0.6l11.1-21.7h4v21.7
			c0,0.2,0.2,0.6,0.6,0.6h5c0.5,0,0.6-0.2,0.6-0.6V28.4C52.9,27.9,52.6,27.6,52,27.6"/>
	</g>
	<path class="st0" d="M82.1,47.6h-5c-0.4,0-0.6,0.3-0.6,0.6v15.3h-9.2V48.1c0-0.4-0.2-0.6-0.6-0.6h-5c-0.4,0-0.6,0.2-0.6,0.6v38.9
		c0,0.4,0.2,0.6,0.6,0.6h5c0.3,0,0.6-0.2,0.6-0.6V68.5h9.2v18.6c0,0.4,0.2,0.6,0.6,0.6h5c0.4,0,0.6-0.3,0.6-0.6V48.1
		C82.6,47.8,82.4,47.6,82.1,47.6"/>
	<path class="st0" d="M195.1,85.1l-0.6-2.7c-0.1-0.2-0.2-0.3-0.4-0.3c-0.4,0-2.6,0.9-5.7,0.9c-6.1,0-9-5.8-9-15.1
		c0-8.2,2.5-16.3,6.6-16.3c1.1,0,2.5,0.3,4.6,2.3c0.2,0.2,0.4,0.3,0.6,0.3c0.2,0,0.5-0.2,0.7-0.6l2.2-3.5c0.2-0.2,0.2-0.5,0.2-0.7
		c0-0.3-0.3-0.6-0.8-0.8c-3.3-1.7-5.5-2-7.4-2c-7.5,0-13.3,9-13.3,23c0,12.1,5.6,19.1,13.6,19.1c3.4,0,7-1.6,8.4-2.6
		C195.1,85.8,195.2,85.5,195.1,85.1"/>
	<path class="st0" d="M160.4,65.7l9.6-17.5c0.2-0.2,0.1-0.6-0.2-0.6H165c-1.4,0-1.8,0.5-2.3,1.5l-7.2,15c-0.4,0.9-0.8,1.4-1.2,1.7
		V48.1c0-0.3-0.2-0.6-0.5-0.6h-5.2c-0.2,0-0.5,0.2-0.5,0.6v39c0,0.2,0.2,0.6,0.5,0.6h5.2c0.3,0,0.5-0.2,0.5-0.6V67
		c0.2,0.2,0.4,0.4,0.6,0.7l9.1,18.7c0.5,1,1.2,1.2,2.2,1.2h5.1c0.3,0,0.4-0.3,0.2-0.6L160.4,65.7L160.4,65.7z"/>
	<path class="st0" d="M106,82.7H94.4c4.1-7,5.7-14.8,6.2-24.4c0.2-2.1,0.2-4.2,0.2-5.6h5.1V82.7L106,82.7z M114.6,82.7h-1
		c-1.2,0-1.5-0.5-1.5-1.4V48.1c0-0.4-0.2-0.6-0.5-0.6h-16c-0.4,0-0.6,0.2-0.6,0.6V51c0,9.7-0.6,22.2-5.7,31.7h-1.8
		c-0.5,0-0.6,0.2-0.6,0.6V95c0,0.4,0.3,0.6,0.6,0.6h3.8c0.9,0,1.2-0.6,1.2-1.2v-6.7h17.1V95c0,0.3,0.2,0.6,0.6,0.6h4.1
		c0.5,0,1-0.4,1-1.2V83.3C115.3,82.9,115,82.7,114.6,82.7"/>
	<path class="st0" d="M130.1,64c-1.8,0-4.7,0.3-4.7,0.3s0-1.2,0.2-2.5c0.7-6.8,2.4-10.3,5.2-10.3c2.6,0,4.2,3.5,4.6,9.7
		c0.1,1.3,0.1,2.7,0.1,2.7H130.1L130.1,64z M130.9,46.6c-8.6,0-12.5,10.9-12.5,22.8c0,12.1,5.4,19.3,13.4,19.3
		c3.9,0,7.3-1.5,9.1-2.6c0.3-0.2,0.4-0.4,0.3-0.7l-0.6-2.7c-0.1-0.3-0.2-0.5-0.6-0.5c-0.3,0-2.6,0.9-5.9,0.9c-6.2,0-9-5.4-9-12.4
		v-1.9c0,0,3.1,0.4,5,0.4h11.7v-3.4C141.7,53.2,137.3,46.6,130.9,46.6"/>
	<path class="st3" d="M223.8,0v120h237.3l34.6-60L461.1,0H223.8L223.8,0z M235.1,10.1h218.9L482.9,60l-28.9,49.9H235.1V10.1
		L235.1,10.1z"/>
</g>
</svg>
