<?xml version="1.0" encoding="utf-8"?>
<!-- Generator: Adobe Illustrator 19.0.1, SVG Export Plug-In . SVG Version: 6.00 Build 0)  -->
<svg version="1.1" id="Слой_1" xmlns="http://www.w3.org/2000/svg" xmlns:xlink="http://www.w3.org/1999/xlink" x="0px" y="0px"
	 viewBox="74 168 647 165" style="enable-background:new 74 168 647 165;" xml:space="preserve">
<style type="text/css">
	.st0{fill:#201600;}
	.st1{clip-path:url(#SVGID_2_);fill:#201600;}
	.st2{clip-path:url(#SVGID_4_);fill:#D34F43;}
	.st3{fill:#F5CA44;}
</style>
<g>
	<path class="st0" d="M404.2,271.4c1.3-2.3,4.2-7.8,5.8-14.7c1.5-6.6,1.8-14.2,1.8-24.8v-8.8h30.9v48.4h6.6v18.7h-7.1V278h-36.9
		v12.2h-7.1v-18.7h6V271.4z M419,229.6v1.8c0,13.9-1,21.2-2.3,26.5c-1.1,4.9-2.7,9-5.2,13.6h23.6v-41.9H419L419,229.6z"/>
	<path class="st0" d="M487.4,273c-2.9,3.4-7.1,5.8-14.3,5.8c-4.4,0-9-0.6-13.1-4.9c-3.2-3.4-5.2-8.5-5.2-14c0-5,1.7-10.7,5.2-14.6
		c2.9-3.1,6.7-4.9,11.8-4.9c4,0,7.8,1,10.8,3.9c4.5,4.3,5.7,11.5,5.6,16.5H462c0.1,3.5,1.4,7.2,3.6,9.5c2.3,2.3,4.9,2.7,7.2,2.7
		c2.2,0,6.3-0.3,10.2-4L487.4,273L487.4,273z M480.8,255.3c-0.2-2.4-1.3-5.2-2.9-6.8c-1.9-2-4.1-2.4-6.1-2.4c-2.3,0-4.2,0.5-6,2.2
		c-1.6,1.6-3.1,4.2-3.4,7L480.8,255.3L480.8,255.3z"/>
	<polygon class="st0" points="504.7,278 498.2,278 498.2,241.4 504.7,241.4 504.7,255.4 522.1,255.4 522.1,241.4 528.7,241.4 
		528.7,278 522.1,278 522.1,261 504.7,261 	"/>
	<path class="st0" d="M540.9,241.4h6.5v12.5h6.6c5.1,0,9,1,11.7,3.5c2.9,2.7,3.4,6.3,3.4,8.6c0,4.5-1.8,7.1-3.3,8.5
		c-3.1,3-7.9,3.4-12.8,3.4h-12.1V241.4L540.9,241.4z M553.4,272.3c1.6,0,4.5-0.2,6.3-1.6c1-0.8,2.3-2.3,2.3-4.9c0-2.5-1.2-4-2.1-4.8
		c-1.8-1.4-4.9-1.6-6.7-1.6h-5.8v12.9H553.4L553.4,272.3z"/>
	<polygon class="st0" points="584.3,278 577.8,278 577.8,241.4 601.3,241.4 601.3,247.2 584.3,247.2 	"/>
	<g>
		<g>
			<defs>
				<rect id="SVGID_1_" x="74.2" y="168.2" width="646.6" height="164.5"/>
			</defs>
			<clipPath id="SVGID_2_">
				<use xlink:href="#SVGID_1_"  style="overflow:visible;"/>
			</clipPath>
			<polygon class="st1" points="633.4,245 633.4,241.4 639.9,241.4 639.9,278 633.4,278 633.4,253 616,274.2 616,278 609.5,278 
				609.5,241.4 616,241.4 616,266.2 			"/>
		</g>
		<g>
			<defs>
				<rect id="SVGID_3_" x="74.2" y="168.2" width="646.6" height="164.5"/>
			</defs>
			<clipPath id="SVGID_4_">
				<use xlink:href="#SVGID_3_"  style="overflow:visible;"/>
			</clipPath>
			<path class="st2" d="M105.1,251h-4.6c-7.2,0-14.2-5.3-14.2-18.5c0-13.7,6.6-19.3,13.3-19.3h5.6L105.1,251L105.1,251z
				 M112.3,206.1H99.8c-12.3,0-22.7,9.3-22.7,27.5c0,10.9,5,18.9,14,22.9l-16.7,30.3c-0.5,1,0,1.8,0.9,1.8h7.8
				c0.7,0,1.1-0.2,1.3-0.8L99.6,258h5.5v29.8c0,0.3,0.3,0.8,0.8,0.8h6.8c0.7,0,0.9-0.3,0.9-0.9v-80.5
				C113.5,206.5,113.1,206.1,112.3,206.1"/>
		</g>
	</g>
	<path class="st0" d="M153.5,233.4h-6.8c-0.5,0-0.9,0.4-0.9,0.8v21h-12.6v-21c0-0.5-0.2-0.8-0.8-0.8h-6.8c-0.5,0-0.9,0.3-0.9,0.8
		v53.4c0,0.6,0.2,0.9,0.8,0.9h6.9c0.4,0,0.8-0.3,0.8-0.9v-25.5h12.6v25.5c0,0.6,0.3,0.9,0.9,0.9h6.8c0.5,0,0.8-0.4,0.8-0.9v-53.4
		C154.3,233.8,153.9,233.4,153.5,233.4"/>
	<path class="st0" d="M308.6,285l-0.9-3.7c-0.1-0.3-0.2-0.4-0.5-0.4c-0.5,0-3.5,1.2-7.8,1.2c-8.3,0-12.4-8-12.4-20.8
		c0-11.2,3.4-22.3,9.1-22.3c1.5,0,3.4,0.4,6.4,3.2c0.3,0.3,0.5,0.4,0.9,0.4c0.3,0,0.7-0.2,1-0.8l3-4.8c0.2-0.3,0.3-0.7,0.3-1
		c0-0.4-0.4-0.8-1.1-1.1c-4.5-2.3-7.6-2.7-10.2-2.7c-10.4-0.1-18.4,12.2-18.4,31.5c0,16.6,7.7,26.2,18.6,26.2
		c4.6,0,9.5-2.2,11.5-3.6C308.6,285.8,308.7,285.4,308.6,285"/>
	<path class="st0" d="M261,258.3l13.1-24.1c0.2-0.3,0.1-0.8-0.3-0.8h-6.5c-1.9,0-2.5,0.7-3.2,2.1l-9.9,20.5c-0.5,1.2-1.1,2-1.6,2.3
		v-24.1c0-0.4-0.2-0.8-0.7-0.8h-7.1c-0.3,0-0.7,0.3-0.7,0.8v53.5c0,0.3,0.2,0.8,0.7,0.8h7.1c0.4,0,0.7-0.3,0.7-0.8v-27.6
		c0.3,0.2,0.5,0.5,0.8,1l12.5,25.7c0.7,1.3,1.6,1.6,3.1,1.6h7c0.4,0,0.5-0.4,0.3-0.8L261,258.3L261,258.3z"/>
	<path class="st0" d="M186.4,281.6h-15.9c5.6-9.6,7.8-20.3,8.5-33.5c0.2-2.9,0.3-5.8,0.3-7.7h7L186.4,281.6L186.4,281.6z
		 M198.2,281.6h-1.3c-1.6,0-2.1-0.7-2.1-2v-45.4c0-0.5-0.2-0.8-0.7-0.8h-21.9c-0.5,0-0.9,0.3-0.9,0.8v4c0,13.3-0.8,30.4-7.8,43.4
		h-2.4c-0.7,0-0.9,0.3-0.9,0.9v16c0,0.6,0.4,0.8,0.8,0.8h5.3c1.2,0,1.6-0.9,1.6-1.6v-9.1h23.4v10c0,0.4,0.3,0.8,0.8,0.8h5.6
		c0.7,0,1.3-0.5,1.3-1.6v-15.2C199.1,281.9,198.7,281.6,198.2,281.6"/>
	<path class="st0" d="M219.3,256c-2.5,0-6.5,0.4-6.5,0.4s0-1.6,0.2-3.4c1-9.3,3.3-14.1,7.1-14.1c3.5,0,5.7,4.8,6.2,13.3
		c0.1,1.8,0.1,3.7,0.1,3.7h-7.1V256z M220.5,232.1c-11.8,0-17.1,14.9-17.1,31.2c0,16.6,7.4,26.5,18.4,26.5c5.4,0,10.1-2.1,12.5-3.6
		c0.4-0.2,0.5-0.5,0.4-1l-0.9-3.7c-0.1-0.4-0.3-0.7-0.9-0.7c-0.4,0-3.6,1.2-8.1,1.2c-8.4,0-12.4-7.4-12.4-17v-2.6
		c0,0,4.3,0.5,6.8,0.5h16v-4.6C235.3,241.2,229.3,232.1,220.5,232.1"/>
	<path class="st3" d="M347.9,168.2v164.5h325.4l47.5-82.3l-47.5-82.2H347.9L347.9,168.2z M363.4,182.1h300.2l39.6,68.4l-39.6,68.4
		H363.4V182.1L363.4,182.1z"/>
</g>
</svg>
